<?xml version="1.0" encoding="UTF-8"?>
<svg width="16px" height="16px" viewBox="0 0 16 16" version="1.1" xmlns="http://www.w3.org/2000/svg" xmlns:xlink="http://www.w3.org/1999/xlink">
    <title>监控报警</title>
    <g id="页面-1" stroke="none" stroke-width="1" fill="none" fill-rule="evenodd">
        <g id="综合监控" transform="translate(-40.000000, -158.000000)">
            <g id="监控报警" transform="translate(40.000000, 158.000000)">
                <rect id="矩形" fill="#D8D8D8" opacity="0" x="0" y="0" width="16" height="16"></rect>
                <path d="M13,14 L13,15 L3,15 L3,14 L13,14 Z M16,1 L16,13 L0,13 L0,1 L16,1 Z M15,2 L1,2 L1,12 L15,12 L15,2 Z M8.0222168,4.51977539 C10.6822815,4.51977539 13.0222168,7.01977539 13.0222168,7.01977539 L12.8585398,7.18380737 C12.2831714,7.73999023 10.2666464,9.51977539 8.0222168,9.51977539 C5.3621521,9.51977539 3.0222168,7.01977539 3.0222168,7.01977539 L3.0491448,6.99169922 C3.31595922,6.71704102 5.52840614,4.51977539 8.0222168,4.51977539 Z M8.0222168,5.51977539 C7.09159787,5.51977539 6.08338498,5.9179617 5.08768331,6.59623857 C4.90661371,6.71958407 4.73276245,6.84763482 4.56734736,6.97793177 L4.5162168,7.01977539 L4.56734736,7.06161901 C4.65005491,7.12676749 4.73487149,7.19135441 4.82164489,7.2550724 L5.08768331,7.44331221 C6.08338498,8.12158908 7.09159787,8.51977539 8.0222168,8.51977539 C8.95283573,8.51977539 9.96104862,8.12158908 10.9567503,7.44331221 L11.2227887,7.2550724 L11.5272168,7.01977539 L11.4770862,6.97793177 C11.3943787,6.9127833 11.3095621,6.84819637 11.2227887,6.78447838 L10.9567503,6.59623857 C9.96104862,5.9179617 8.95283573,5.51977539 8.0222168,5.51977539 Z M8.05090332,5.96655273 C8.60318807,5.96655273 9.05090332,6.41426798 9.05090332,6.96655273 C9.05090332,7.51883748 8.60318807,7.96655273 8.05090332,7.96655273 C7.49861857,7.96655273 7.05090332,7.51883748 7.05090332,6.96655273 C7.05090332,6.41426798 7.49861857,5.96655273 8.05090332,5.96655273 Z" id="形状结合" fill="#73829E" fill-rule="nonzero"></path>
            </g>
        </g>
    </g>
</svg>