<?xml version="1.0" encoding="UTF-8"?>
<svg width="16px" height="16px" viewBox="0 0 16 16" version="1.1" xmlns="http://www.w3.org/2000/svg" xmlns:xlink="http://www.w3.org/1999/xlink">
    <title>系统管理</title>
    <g id="页面-1" stroke="none" stroke-width="1" fill="none" fill-rule="evenodd">
        <g id="综合监控" transform="translate(-40.000000, -508.000000)" fill="#73829E" fill-rule="nonzero">
            <g id="菜单">
                <path d="M47.1111111,516.888889 L47.1111111,520.444444 C47.1111111,522.408124 45.5192347,524 43.5555556,524 C41.5918764,524 40,522.408124 40,520.444444 C40,518.480765 41.5918764,516.888889 43.5555556,516.888889 L47.1111111,516.888889 Z M52.4444444,516.888889 C54.4081236,516.888889 56,518.480765 56,520.444444 C56,522.408124 54.4081236,524 52.4444444,524 C50.4807653,524 48.8888889,522.408124 48.8888889,520.444444 L48.8888889,516.888889 L52.4444444,516.888889 Z M46.2222222,517.777778 L43.5555556,517.777778 C42.0827962,517.777778 40.8888889,518.971685 40.8888889,520.444444 C40.8888889,521.917204 42.0827962,523.111111 43.5555556,523.111111 C45.0283149,523.111111 46.2222222,521.917204 46.2222222,520.444444 L46.2222222,517.777778 Z M52.4444444,517.777778 L49.7777778,517.777778 L49.7777778,520.444444 C49.7777778,521.917204 50.9716851,523.111111 52.4444444,523.111111 C53.9172038,523.111111 55.1111111,521.917204 55.1111111,520.444444 C55.1111111,518.971685 53.9172038,517.777778 52.4444444,517.777778 Z M43.5555556,508 C45.5192347,508 47.1111111,509.591876 47.1111111,511.555556 L47.1111111,515.111111 L43.5555556,515.111111 C41.5918764,515.111111 40,513.519235 40,511.555556 C40,509.591876 41.5918764,508 43.5555556,508 Z M52.4444444,508 C54.4081236,508 56,509.591876 56,511.555556 C56,513.519235 54.4081236,515.111111 52.4444444,515.111111 L48.8888889,515.111111 L48.8888889,511.555556 C48.8888889,509.591876 50.4807653,508 52.4444444,508 Z M43.5555556,508.888889 C42.0827962,508.888889 40.8888889,510.082796 40.8888889,511.555556 C40.8888889,513.028315 42.0827962,514.222222 43.5555556,514.222222 L46.2222222,514.222222 L46.2222222,511.555556 C46.2222222,510.082796 45.0283149,508.888889 43.5555556,508.888889 Z M52.4444444,508.888889 C50.9716851,508.888889 49.7777778,510.082796 49.7777778,511.555556 L49.7777778,514.222222 L52.4444444,514.222222 C53.9172038,514.222222 55.1111111,513.028315 55.1111111,511.555556 C55.1111111,510.082796 53.9172038,508.888889 52.4444444,508.888889 Z" id="系统管理"></path>
            </g>
        </g>
    </g>
</svg>