<?xml version="1.0" encoding="UTF-8"?>
<svg width="16px" height="16px" viewBox="0 0 16 16" version="1.1" xmlns="http://www.w3.org/2000/svg" xmlns:xlink="http://www.w3.org/1999/xlink">
    <title>运维管理</title>
    <g id="页面-1" stroke="none" stroke-width="1" fill="none" fill-rule="evenodd">
        <g id="综合监控" transform="translate(-40.000000, -408.000000)" fill="#73829E" fill-rule="nonzero">
            <g id="菜单">
                <path d="M47.1111111,408 C50.09642,408 52.6520737,409.839572 53.7063498,412.446994 L53.7777778,412.444444 C55.0050772,412.444444 56,413.439367 56,414.666667 C56,415.818714 55.1233451,416.766007 54.0007385,416.877843 C53.2159958,419.950083 50.4288968,422.222222 47.1111111,422.222222 L47.0660594,422.222083 C46.8610924,423.236269 45.9641801,424 44.8888889,424 C43.6615894,424 42.6666667,423.005077 42.6666667,421.777778 C42.6666667,421.437059 42.7433464,421.11425 42.8803903,420.825665 C41.133093,419.53237 40,417.454064 40,415.111111 C40,413.955346 40.275726,412.86398 40.7649875,411.899203 C40.2962034,411.492349 40,410.891877 40,410.222222 C40,408.994923 40.9949228,408 42.2222222,408 C42.8918768,408 43.4923494,408.296203 43.8997697,408.76474 C44.8639795,408.275726 45.9553457,408 47.1111111,408 Z M44.7473141,420.451872 L44.8888889,420.444444 C44.8365352,420.444444 44.7848862,420.447462 44.7341065,420.453332 C44.6950075,420.45785 44.656346,420.464075 44.6182774,420.471923 C44.6027267,420.475133 44.5876152,420.478531 44.5726031,420.482183 C44.5453732,420.488798 44.5180662,420.496375 44.4911263,420.504784 C44.4735491,420.510276 44.456466,420.516 44.4395411,420.522058 C44.4141042,420.531155 44.3887918,420.541104 44.3638708,420.55179 C44.3509726,420.557323 44.3383372,420.56298 44.3258077,420.568825 C44.2992389,420.581214 44.2728918,420.594593 44.2470664,420.608802 L44.2229151,420.62242 L44.2229151,420.62242 C43.9365183,420.787862 43.7173717,421.056735 43.616531,421.377984 L43.6088119,421.40347 C43.5741458,421.522221 43.5555556,421.647828 43.5555556,421.777778 C43.5555556,422.514157 44.1525092,423.111111 44.8888889,423.111111 C44.9342845,423.111111 44.9791503,423.108842 45.023379,423.104412 L44.8888889,423.111111 C44.9426701,423.111111 44.9957076,423.107927 45.0478232,423.101737 C45.0847292,423.097359 45.1213681,423.091433 45.1574755,423.084048 C45.1678478,423.081923 45.1776329,423.079801 45.1873773,423.077572 C45.2149538,423.07128 45.2428403,423.063944 45.2703543,423.055743 C45.2982434,423.047412 45.3249566,423.038486 45.3512786,423.028753 C45.3639905,423.024057 45.3769499,423.019035 45.3898094,423.013819 C45.4150196,423.003591 45.4398302,422.992623 45.4642299,422.980934 C45.4779989,422.974337 45.4916126,422.967524 45.5050909,422.960488 C45.523749,422.950746 45.5421257,422.940589 45.5602308,422.930018 C45.5808396,422.917985 45.6011235,422.905397 45.6210353,422.89229 C45.6371583,422.881681 45.6532274,422.870595 45.6690361,422.85917 C45.6897062,422.844226 45.709735,422.828863 45.729304,422.812956 C45.7400424,422.804236 45.7511006,422.794955 45.7620038,422.7855 C45.7837128,422.766672 45.8047609,422.747201 45.8251634,422.727077 C45.8325914,422.719754 45.8402102,422.71206 45.8477351,422.704274 C45.8689097,422.682348 45.8890147,422.660084 45.9083604,422.637158 C45.9176692,422.626131 45.9269932,422.61471 45.9361293,422.603134 C45.9538696,422.58065 45.9708143,422.557707 45.9870249,422.534218 C45.9949058,422.522796 46.0025177,422.511393 46.0099568,422.499867 C46.0226479,422.480198 46.0347304,422.460356 46.0463007,422.440183 C46.057297,422.421021 46.067979,422.40127 46.0781692,422.381227 C46.1703876,422.199653 46.2222222,421.994769 46.2222222,421.777778 C46.2222222,421.370231 46.0393731,421.00539 45.7512362,420.760818 C45.73952,420.751471 45.7277924,420.741823 45.7158995,420.732375 C45.6982448,420.71786 45.6799572,420.704119 45.6613134,420.690846 C45.646686,420.680811 45.6322162,420.670912 45.617545,420.661295 C45.5920439,420.644289 45.5654889,420.628203 45.5383492,420.613037 C45.5302483,420.608712 45.5225215,420.604489 45.5147487,420.600341 C45.4868601,420.585293 45.4578803,420.571165 45.4283362,420.558079 C45.4176205,420.553435 45.4071888,420.548971 45.3966896,420.544637 C45.372002,420.534368 45.3466706,420.524812 45.3209855,420.516018 C45.3054231,420.510732 45.2896179,420.505643 45.2736867,420.500844 C45.2445841,420.492059 45.2153403,420.48434 45.1857216,420.477606 C45.1747105,420.475114 45.1635762,420.472731 45.1523911,420.470487 C45.0672219,420.453404 44.9791017,420.444444 44.8888889,420.444444 C44.8410675,420.444444 44.7938342,420.446962 44.7473141,420.451872 Z M47.1111111,408.888889 C46.1139642,408.888889 45.1716011,409.123446 44.3361863,409.540396 C44.407061,409.755153 44.4444444,409.984322 44.4444444,410.222222 C44.4444444,411.449522 43.4495217,412.444444 42.2222222,412.444444 C41.9843218,412.444444 41.7551527,412.407061 41.5402689,412.337848 C41.123446,413.171601 40.8888889,414.113964 40.8888889,415.111111 C40.8888889,417.163092 41.8821804,418.983076 43.4141753,420.116477 C43.8063002,419.767163 44.3228828,419.555556 44.8888889,419.555556 C45.963478,419.555556 46.859921,420.31829 47.066369,421.331909 L47.1111111,421.333333 C49.9681143,421.333333 52.3753843,419.407797 53.1059608,416.783685 C52.2065153,416.500095 51.5555556,415.659401 51.5555556,414.666667 C51.5555556,413.778505 52.076597,413.012039 52.8296849,412.656264 C51.8786475,410.440962 49.6761323,408.888889 47.1111111,408.888889 Z M52.975,413.602 L52.9377691,413.631158 L52.9377691,413.631158 C52.9158367,413.648963 52.8942443,413.667668 52.8732751,413.687039 C52.8562934,413.702725 52.839686,413.718882 52.823507,413.73546 C52.8090239,413.750299 52.7948743,413.765485 52.7810813,413.780996 C52.7704218,413.792981 52.7598882,413.805264 52.7495772,413.817739 C52.7335242,413.837161 52.7180468,413.856998 52.7031293,413.877272 C52.69009,413.894986 52.6773368,413.913248 52.665037,413.931836 C52.6531657,413.949773 52.6416562,413.968115 52.6305879,413.98675 C52.6221652,414.000929 52.6139807,414.01531 52.6060592,414.029855 C52.5924364,414.05487 52.5796202,414.080309 52.5676103,414.106197 C52.5611396,414.120144 52.554892,414.134248 52.5488845,414.148478 C52.538543,414.17297 52.5288966,414.197881 52.5199895,414.22314 L52.5033236,414.273614 L52.5033236,414.273614 C52.4957854,414.298052 52.4888102,414.32328 52.4825694,414.348797 C52.4782294,414.36657 52.4743429,414.384 52.4708012,414.401555 C52.4672939,414.41891 52.4640528,414.436828 52.4611735,414.454868 C52.4569562,414.481321 52.4535415,414.507787 52.4509142,414.534483 C52.4466443,414.577775 52.4444444,414.621964 52.4444444,414.666667 C52.4444444,414.757631 52.4535537,414.846468 52.4709097,414.932315 L52.478389,414.966923 L52.478389,414.966923 C52.4858007,414.999132 52.4943871,415.03092 52.504095,415.062214 C52.5070709,415.071812 52.510208,415.081529 52.5134529,415.091197 C52.5230871,415.119894 52.5336304,415.148056 52.5450797,415.175749 C52.5512814,415.190758 52.5578529,415.205855 52.5646926,415.220804 C52.5769612,415.247598 52.5899109,415.273581 52.6036661,415.299065 C52.6090096,415.308963 52.6144341,415.318716 52.6199764,415.328392 C52.6339741,415.352846 52.6489227,415.377115 52.6646101,415.400852 C52.6753487,415.417081 52.6859736,415.432427 52.6969075,415.447536 C52.7078328,415.462647 52.7194626,415.478021 52.7314126,415.49313 C52.7472752,415.513174 52.763443,415.532461 52.7801348,415.551271 C52.7919966,415.564637 52.8040427,415.577679 52.8163419,415.590476 L52.8567833,415.6308 L52.8567833,415.6308 C52.8808168,415.653754 52.9054724,415.675626 52.9309177,415.696573 C52.9369953,415.701576 52.9430928,415.706506 52.9492343,415.711384 C52.9724974,415.729857 52.996365,415.747551 53.020825,415.764449 L53.0487768,415.783243 L53.0703007,415.797032 C53.0872253,415.807647 53.1044052,415.817893 53.1218292,415.827758 L53.1615364,415.849356 L53.175855,415.856722 C53.1916767,415.86474 53.2076798,415.872452 53.2238567,415.879851 L53.2810032,415.904381 C53.4345324,415.966059 53.6021914,416 53.7777778,416 C53.8698875,416 53.9598157,415.99066 54.046667,415.972875 L54.1744387,415.939916 L54.1744387,415.939916 L54.2168919,415.926002 L54.265,415.907 L54.211,415.926 L54.272,415.904 L54.3543554,415.869279 L54.3543554,415.869279 L54.3929632,415.849907 L54.3929632,415.849907 C54.4125459,415.839785 54.4319404,415.829064 54.4510324,415.817881 C54.4699661,415.806689 54.4885695,415.795158 54.5068609,415.78319 L54.5500554,415.753823 L54.5500554,415.753823 C54.5716667,415.738317 54.592659,415.722416 54.6131533,415.705921 C54.6215823,415.699267 54.6299366,415.692375 54.6382047,415.685384 L54.7086299,415.621284 L54.7086299,415.621284 L54.7395189,415.590285 L54.7395189,415.590285 L54.7814053,415.544481 L54.7814053,415.544481 C54.7967387,415.527067 54.8112227,415.50963 54.8252631,415.491826 C54.8378782,415.47573 54.8504251,415.459048 54.8625832,415.442069 C54.8735081,415.426911 54.8840539,415.411507 54.8942805,415.395876 C54.9068938,415.376504 54.9190027,415.356912 54.9306102,415.336993 C54.9418504,415.317787 54.9526768,415.298081 54.9630123,415.27808 C54.9690658,415.266291 54.9748392,415.254704 54.9804475,415.243022 C54.9924363,415.21813 55.0038269,415.192359 55.0144106,415.166175 C55.021754,415.147937 55.028497,415.130144 55.0348655,415.112174 C55.0560197,415.052516 55.0730438,414.990863 55.0855935,414.927598 C55.1023598,414.842942 55.1111111,414.755826 55.1111111,414.666667 C55.1111111,414.558197 55.0981585,414.452752 55.0737156,414.351794 C55.0337219,414.186429 54.9627071,414.032827 54.8672093,413.897766 C54.8338627,413.850598 54.7974736,413.80563 54.7583664,413.763205 L54.7241249,413.727409 L54.7241249,413.727409 C54.6796431,413.682597 54.6320436,413.64096 54.5816498,413.602822 C54.561636,413.587664 54.5407886,413.572794 54.5195073,413.558522 L54.4755551,413.530275 L54.4755551,413.530275 C54.4596455,413.520478 54.4431064,413.510777 54.4263447,413.501427 C54.4077273,413.491045 54.3889444,413.48115 54.3699035,413.471697 C54.3507888,413.46221 54.3315803,413.453242 54.3121295,413.444724 L54.2586198,413.422671 L54.2586198,413.422671 C54.2406545,413.41572 54.2223914,413.40911 54.2039477,413.402893 C54.1816013,413.395362 54.1590948,413.388437 54.1363431,413.3821 C54.121669,413.378011 54.1067682,413.374136 54.0917684,413.370516 C54.0658457,413.364261 54.0397484,413.358785 54.0133827,413.354084 L54.0024895,413.352189 C53.9294367,413.33979 53.8543613,413.333333 53.7777778,413.333333 C53.5231367,413.333333 53.285168,413.404716 53.0827906,413.528563 L53.0703007,413.536301 L53.0025247,413.581754 L53.0025247,413.581754 L52.975,413.602 Z M42.2222222,408.888889 C41.4858426,408.888889 40.8888889,409.485843 40.8888889,410.222222 C40.8888889,410.316373 40.8986474,410.408244 40.9172081,410.49688 C40.9199275,410.50989 40.9229492,410.523298 40.9261712,410.536627 C40.9328075,410.564037 40.940149,410.59066 40.948281,410.616936 C40.955204,410.639329 40.9628368,410.661837 40.9710449,410.684066 C40.9777044,410.702092 40.984659,410.719736 40.9919743,410.737191 C41.0007032,410.758012 41.0098722,410.778413 41.0195313,410.798533 C41.0294408,410.819208 41.0402424,410.840273 41.0515787,410.861004 C41.0593666,410.87523 41.0670685,410.88873 41.0749967,410.902079 L41.1265037,410.982154 C41.1339619,410.992892 41.1417127,411.003702 41.1496194,411.01439 C41.3438873,411.276923 41.6320871,411.465573 41.9645262,411.530673 L42.102,411.549 L42.0166599,411.537713 C42.084164,411.550215 42.1525694,411.555556 42.2222222,411.555556 C42.9586019,411.555556 43.5555556,410.958602 43.5555556,410.222222 L43.551,410.119 L43.5439328,410.045391 L43.53992,410.017393 C43.4787252,409.618475 43.2396919,409.2771 42.9061032,409.077396 C42.8929181,409.069747 42.8796738,409.062106 42.8662874,409.054689 C42.8437066,409.042008 42.8209513,409.030277 42.7978268,409.019192 C42.7782802,409.009925 42.7578948,409.00075 42.7372432,408.992081 C42.7197355,408.984659 42.7020916,408.977704 42.6842683,408.97112 C42.6617751,408.962861 42.6392768,408.955225 42.6165164,408.948182 C42.5929348,408.940853 42.5686439,408.934084 42.5440844,408.927997 L42.496394,408.917115 C42.459463,408.909373 42.4214693,408.903106 42.3829709,408.89848 C42.3767307,408.897731 42.3703558,408.89701 42.3639675,408.896335 C42.3172769,408.891406 42.2700436,408.888889 42.2222222,408.888889 Z" id="运维管理"></path>
            </g>
        </g>
    </g>
</svg>