<?xml version="1.0" encoding="UTF-8"?>
<svg width="16px" height="16px" viewBox="0 0 16 16" version="1.1" xmlns="http://www.w3.org/2000/svg" xmlns:xlink="http://www.w3.org/1999/xlink">
    <title>资产管理</title>
    <g id="页面-1" stroke="none" stroke-width="1" fill="none" fill-rule="evenodd">
        <g id="菜单" transform="translate(-40.000000, -458.000000)" fill="#73829E">
            <path d="M48,458 C52.418278,458 56,461.581722 56,466 C56,470.418278 52.418278,474 48,474 C43.581722,474 40,470.418278 40,466 C40,461.581722 43.581722,458 48,458 Z M48,458.888889 C44.0726418,458.888889 40.8888889,462.072642 40.8888889,466 C40.8888889,469.927358 44.0726418,473.111111 48,473.111111 C51.9273582,473.111111 55.1111111,469.927358 55.1111111,466 C55.1111111,462.072642 51.9273582,458.888889 48,458.888889 Z M46.8013002,462.549205 L48.0470779,464.706955 L49.2807405,462.571199 C49.3298325,462.486169 49.4385597,462.457035 49.5235895,462.506127 L49.9854697,462.772794 C50.0704995,462.821886 50.0996328,462.930613 50.0505409,463.015643 L48.9497639,464.92162 L50.2966688,464.922111 C50.3948528,464.922111 50.4744466,465.001705 50.4744466,465.099889 L50.4744466,465.633222 C50.4744466,465.731406 50.3948528,465.811 50.2966688,465.811 L48.4395417,465.810509 L48.4395417,466.663842 L50.9524306,466.664407 C51.0506145,466.664407 51.1302083,466.744001 51.1302083,466.842185 L51.1302083,467.375518 C51.1302083,467.473702 51.0506145,467.553296 50.9524306,467.553296 L48.4395417,467.552731 L48.4395616,469.515709 C48.4395616,469.613893 48.3599678,469.693487 48.2617839,469.693487 L47.7284505,469.693487 C47.6302666,469.693487 47.5506727,469.613893 47.5506727,469.515709 L47.5506528,467.552731 L45.0857639,467.553296 C44.9875799,467.553296 44.9079861,467.473702 44.9079861,467.375518 L44.9079861,466.842185 C44.9079861,466.744001 44.9875799,466.664407 45.0857639,466.664407 L47.5506528,466.663842 L47.5506528,465.810509 L45.7033854,465.811 C45.6052015,465.811 45.5256076,465.731406 45.5256076,465.633222 L45.5256076,465.099889 C45.5256076,465.001705 45.6052015,464.922111 45.7033854,464.922111 L47.1444306,464.92162 L46.0314998,462.993649 C45.9824078,462.90862 46.0115412,462.799892 46.096571,462.750801 L46.5584512,462.484134 C46.643481,462.435042 46.7522082,462.464175 46.8013002,462.549205 Z" id="资产管理"></path>
        </g>
    </g>
</svg>