<?xml version="1.0" encoding="UTF-8"?>
<svg width="54px" height="54px" viewBox="0 0 54 54" version="1.1" xmlns="http://www.w3.org/2000/svg" xmlns:xlink="http://www.w3.org/1999/xlink">
    <title>报警</title>
    <g id="页面-1" stroke="none" stroke-width="1" fill="none" fill-rule="evenodd">
        <g id="综合监控" transform="translate(-1602.000000, -123.000000)">
            <g id="报警" transform="translate(1562.000000, 92.000000)">
                <g transform="translate(40.000000, 31.000000)">
                    <circle id="椭圆形" fill="#ECA45F" cx="27" cy="27" r="27"></circle>
                    <g id="编组" transform="translate(7.714286, 7.714286)" fill="#FFFFFF" fill-rule="nonzero">
                        <path d="M37.6289728,36.0225006 C36.6892565,37.5439215 35.165353,38.3946058 33.3782055,38.3946058 L5.0591613,38.3946058 C3.27201387,38.3946058 1.7482815,37.5439215 0.80873643,36.0225006 C-0.130594625,34.5010796 -0.209139737,32.7564364 0.58996582,31.1563419 L14.7494879,2.80750621 C15.6194339,1.06598772 17.2738893,0.0425042487 19.2186834,0.0425042487 C21.164034,0.0425042487 22.8182754,1.06594492 23.6878789,2.80750621 L37.8475722,31.1563419 C38.6468918,32.7564364 38.5683467,34.5011224 37.6289728,36.0225006 Z M19.2189402,31.5464565 C20.353671,31.5464565 21.2735263,30.6266012 21.2735263,29.4918704 C21.2735263,28.3571397 20.353671,27.4372844 19.2189402,27.4372844 C18.0842095,27.4372844 17.1643542,28.3571397 17.1643542,29.4918704 C17.1643542,30.6266012 18.0842095,31.5464565 19.2189402,31.5464565 Z M22.3008193,14.0824751 C22.3008193,12.380379 20.9210364,11.0005961 19.2189402,11.0005961 C17.5168441,11.0005961 16.1370612,12.380379 16.1370612,14.0824751 L16.1370612,14.3392984 L18.1916472,25.4469042 L18.1938302,25.4469042 C18.2270032,25.9843068 18.673148,26.4099914 19.2189402,26.4099914 C19.7646897,26.4099914 20.2108773,25.9843068 20.2440075,25.4469042 L20.2462333,25.4469042 L22.3008193,14.3392984 L22.3008193,14.0824751 Z" id="形状"></path>
                    </g>
                </g>
            </g>
        </g>
    </g>
</svg>