<?xml version="1.0" encoding="UTF-8"?>
<svg width="84px" height="84px" viewBox="0 0 84 84" version="1.1" xmlns="http://www.w3.org/2000/svg" xmlns:xlink="http://www.w3.org/1999/xlink">
    <title>柴油机</title>
    <defs>
        <linearGradient x1="50%" y1="0%" x2="50%" y2="100%" id="linearGradient-1">
            <stop stop-color="#6D8FB0" offset="0%"></stop>
            <stop stop-color="#4D6D96" offset="100%"></stop>
        </linearGradient>
    </defs>
    <g id="页面-1" stroke="none" stroke-width="1" fill="none" fill-rule="evenodd">
        <g id="一次系统图" transform="translate(-566.000000, -220.000000)">
            <g id="柴油机" transform="translate(566.000000, 220.000000)">
                <rect id="矩形" stroke="#233E61" fill="#122641" x="0.5" y="0.5" width="83" height="83"></rect>
                <path d="M40.12316,12 L39.2509991,13.4319978 L38.6711753,13.4319978 L38.6711753,13.9031513 C38.823537,16.1795939 38.7536863,17.7340076 38.4616233,18.5663924 C38.183481,19.9354342 37.0341919,21.7335144 35.0137558,23.9606329 L35.5532969,24.5061791 L34.6028726,25.60841 L34.048616,25.2026245 L33.0880799,26.3755081 L33.8874031,26.1180201 L36.4300615,26.1180201 L36.4300615,27.3468405 L39.2509991,27.3468405 L39.2509991,25.60841 L38.6711753,25.60841 C38.7861591,24.9978753 39.0569024,24.5423591 39.4834054,24.2418615 C39.9099085,23.9413639 40.3343288,23.7492439 40.7566666,23.6655013 L40.7566666,20.8414257 L43.0764549,20.8414257 L43.0764549,23.6655013 C43.6629377,23.7695697 44.1203241,23.9616898 44.4486141,24.2418615 C44.7769041,24.5220332 45.0169559,24.9775494 45.1687695,25.60841 L44.4486141,25.60841 L44.4486141,27.3468405 L46.9092274,27.3468405 L46.9092274,26.1180201 L49.8967215,26.1180201 L50.973584,26.3755081 L49.7762845,25.0755472 L49.2769439,25.498813 L48.3367135,24.5061791 L48.8799541,23.9606329 C47.5015196,22.5383644 46.5383802,21.2488916 45.9905359,20.0922144 C45.4426917,18.9355372 45.2071066,16.715465 45.2837806,13.4319978 L44.5771076,13.4319978 L43.5660126,12 L51.6604446,12 L50.5026879,13.4319978 L49.8967215,13.4319978 C49.8832939,15.9131083 49.9396348,17.3360001 50.0657443,17.7006732 C50.2273134,18.3915358 51.0323912,19.4384533 52.4809779,20.8414257 L53.0988647,20.2607564 L54.1049448,21.339572 L53.4742333,21.9007285 L55.6182577,24.2418615 L59.2221589,21.0705389 L58.2695149,20.0922144 C60.4778819,18.6339014 62.5215833,18.808487 64.400619,20.6159713 C65.6898836,21.8633289 66.798205,22.9782161 67.7255832,23.9606329 C69.5234408,25.9581504 70.2554344,27.57926 69.921564,28.8239618 C69.7393329,30.033432 69.2497478,30.8903704 68.4528087,31.3947771 L67.7255832,30.69012 L63.6508682,34.3537351 L66.4098198,37.254805 C67.5052891,38.5022169 68.0530238,39.6699513 68.0530238,40.7580084 C68.0530238,41.8460655 67.3797278,43.3041617 66.0331357,45.132297 C66.6272366,45.8501523 66.924287,46.618741 66.924287,47.438063 C66.924287,48.2573851 66.2641993,49.2420241 64.944024,50.3919802 L55.6182577,58.6138736 L54.6592836,59.9587954 C54.0777335,61.8615131 53.4580929,63.0080003 52.8003619,63.3982569 C52.8106621,63.4090645 52.8165926,63.7641116 52.8181533,64.4633981 L52.8181533,65.3443581 C52.8165926,66.28953 52.8106621,67.5789414 52.8003619,69.2125923 C52.8003619,71.0708641 52.0344705,72 50.5026879,72 L47.7962681,72 L47.7962681,72 L47.7962681,69.2125923 L44.8467548,69.2125923 L44.8467548,72 L39.8201357,72 L39.8201357,69.2125923 L36.7528983,69.2125923 L36.7528983,72 L33.8874031,72 C32.0584056,71.6843258 31.1439069,70.828634 31.1439069,69.4329246 L31.1439069,63.3982569 L31.1439069,63.3982569 C29.8722351,62.1385411 29.2363993,60.7605288 29.2363993,59.26422 C29.2068039,59.2806975 26.1431015,56.5549449 20.0452923,51.0869622 C18.373589,49.4495106 17.5377373,48.1600919 17.5377373,47.2187063 C17.5377373,46.2773207 17.8259091,45.5818509 18.4022527,45.132297 L16.3945317,42.4549741 C15.4065924,40.616974 15.4065924,39.0457576 16.3945317,37.7413249 C17.382471,36.4368923 18.4458237,35.1074723 19.5845901,33.7530651 L16.0413596,30.69012 L15.4895693,31.3947771 C14.1415523,30.589927 13.7084725,29.2406149 14.1903299,27.3468405 C14.6721874,25.4530662 16.3426301,23.2094431 19.2016581,20.6159713 C21.3225542,18.8455614 23.4602759,18.6709757 25.6148231,20.0922144 C25.6304977,20.0893417 25.3206774,20.4154498 24.6853622,21.0705389 L28.291072,24.1095808 L30.3910321,21.9007285 L29.7861344,21.339572 L30.6573909,20.2607564 L31.3842875,20.8414257 L32.7885906,19.4002407 C33.6286075,18.3659523 34.048616,17.2351838 34.048616,16.0079352 L34.048616,13.4319978 L33.354521,13.4319978 L32.2060539,12 L40.12316,12 Z M41.6943556,31.6875919 L41.3798865,31.6933753 C38.6791511,31.7824769 36.6196515,32.8850287 35.2013875,35.0010308 C34.3552648,36.2024268 33.9322034,37.5579932 33.9322034,39.0677301 C33.9322034,40.5774669 34.2846836,42.0562521 34.9896441,43.5040855 L34.9896441,43.5040855 L42.0145161,39.8076839 L37.2728671,40.7779312 L37.2488893,40.4995678 C36.9692866,36.8338764 38.293748,35.0010308 41.2222733,35.0010308 C44.2240117,35.0010308 45.7248809,36.7212284 45.7248809,40.1616237 C45.4882002,41.5468054 44.7222365,42.6609594 43.42699,43.5040855 C42.1317435,44.3472117 39.389876,46.105952 35.2013875,48.7803063 C33.2844738,52.0976433 33.5406828,55.2966261 35.9700146,58.3772548 C39.6140124,62.9981978 45.8988195,59.6717731 47.1206127,58.3772548 C48.3424058,57.0827364 49.4430799,54.2406335 49.0302928,51.5104699 C48.6175057,48.7803063 46.6484583,48.0850961 46.6484583,46.3731308 C46.6484583,44.6611656 47.7687678,43.8995615 48.0507201,43.5040855 L48.0507201,43.5040855 L48.0612213,43.4873884 L48.0890529,43.4325129 C48.5600408,42.4222782 51.6769482,32.5110454 42.0145161,31.6908036 L42.0145161,31.6908036 L41.6943556,31.6875919 Z M41.7124585,49.0295236 C44.1489552,49.0295236 46.124126,51.0146705 46.124126,53.4634735 C46.124126,55.9122764 44.1489552,57.8974234 41.7124585,57.8974234 C39.2759619,57.8974234 37.3007911,55.9122764 37.3007911,53.4634735 C37.3007911,51.0146705 39.2759619,49.0295236 41.7124585,49.0295236 Z M30.8294873,33.8330695 C28.6387585,37.2118588 28.6387585,40.5591689 30.8294873,43.875 C29.5739607,41.7169306 29.7095235,38.8997766 31.2361757,35.4235379 C32.7628279,31.9472992 35.5598088,29.7652684 39.6271186,28.8774455 C35.9527599,28.8024057 33.0202161,30.4542803 30.8294873,33.8330695 Z M32.0338983,40.125 C31.5096958,40.125 31.0847458,40.544733 31.0847458,41.0625 C31.0847458,41.580267 31.5096958,42 32.0338983,42 C32.5581008,42 32.9830508,41.580267 32.9830508,41.0625 C32.9830508,40.544733 32.5581008,40.125 32.0338983,40.125 Z M51.9661017,40.125 C51.4418992,40.125 51.0169492,40.544733 51.0169492,41.0625 C51.0169492,41.580267 51.4418992,42 51.9661017,42 C52.4903042,42 52.9152542,41.580267 52.9152542,41.0625 C52.9152542,40.544733 52.4903042,40.125 51.9661017,40.125 Z M32.0338983,35.4375 C31.5096958,35.4375 31.0847458,35.857233 31.0847458,36.375 C31.0847458,36.892767 31.5096958,37.3125 32.0338983,37.3125 C32.5581008,37.3125 32.9830508,36.892767 32.9830508,36.375 C32.9830508,35.857233 32.5581008,35.4375 32.0338983,35.4375 Z M51.9661017,35.4375 C51.4418992,35.4375 51.0169492,35.857233 51.0169492,36.375 C51.0169492,36.892767 51.4418992,37.3125 51.9661017,37.3125 C52.4903042,37.3125 52.9152542,36.892767 52.9152542,36.375 C52.9152542,35.857233 52.4903042,35.4375 51.9661017,35.4375 Z M48.1694915,31.8919099 L49.5778721,33.5625 C50.0991229,33.0080416 50.2044386,32.5103575 49.8938192,32.0694477 C49.5831999,31.6285379 49.008424,31.5693586 48.1694915,31.8919099 Z M34.2019948,31.9685643 C33.7735973,32.3433166 33.855384,32.8746285 34.4473548,33.5625 L35.8305085,31.9685643 C35.1732302,31.5938119 34.6303923,31.5938119 34.2019948,31.9685643 Z M44.3728814,30.0656533 L46.2700681,30.75 C46.2881739,30.3260324 46.0864282,30.0401112 45.6648312,29.8922364 C45.2432341,29.7443616 44.8125842,29.8021672 44.3728814,30.0656533 Z M38.6779661,29.8457866 C38.2714838,29.932324 37.9550996,30.2337284 37.7288136,30.75 L39.6271186,30.0923718 C39.4008326,29.8414443 39.0844485,29.7592493 38.6779661,29.8457866 Z" id="形状结合" fill="url(#linearGradient-1)"></path>
            </g>
        </g>
    </g>
</svg>