<?xml version="1.0" encoding="UTF-8"?>
<svg width="84px" height="84px" viewBox="0 0 84 84" version="1.1" xmlns="http://www.w3.org/2000/svg" xmlns:xlink="http://www.w3.org/1999/xlink">
    <title>负载</title>
    <defs>
        <linearGradient x1="50%" y1="0%" x2="50%" y2="100%" id="linearGradient-1">
            <stop stop-color="#6D8FB0" offset="0%"></stop>
            <stop stop-color="#4D6D96" offset="100%"></stop>
        </linearGradient>
    </defs>
    <g id="页面-1" stroke="none" stroke-width="1" fill="none" fill-rule="evenodd">
        <g id="一次系统图" transform="translate(-1477.000000, -220.000000)">
            <g id="负载" transform="translate(1477.000000, 220.000000)">
                <rect id="矩形备份-9" stroke="#233E61" fill="#122641" x="0.5" y="0.5" width="83" height="83"></rect>
                <path d="M54,19 C54.5522847,19 55,19.4477153 55,20 L55,23 L64,23 C64.5522847,23 65,23.4477153 65,24 L65,31 L67,31 C67.5522847,31 68,31.4477153 68,32 L68,50 C68,50.5522847 67.5522847,51 67,51 L65,51 L65,60 C65,60.5522847 64.5522847,61 64,61 L59,61 L59,63 C59,63.5522847 58.5522847,64 58,64 L50,64 C49.4477153,64 49,63.5522847 49,63 L49,61 L36,61 L36,63 C36,63.5522847 35.5522847,64 35,64 L27,64 C26.4477153,64 26,63.5522847 26,63 L26,61 L21,61 C20.4477153,61 20,60.5522847 20,60 L20,51 L18,51 C17.4477153,51 17,50.5522847 17,50 L17,32 C17,31.4477153 17.4477153,31 18,31 L20,31 L20,24 C20,23.4477153 20.4477153,23 21,23 L30,23 L30,20 C30,19.4477153 30.4477153,19 31,19 C31.5522847,19 32,19.4477153 32,20 L32,23 L37.666,23 L37.6666667,20 C37.6666667,19.4477153 38.1143819,19 38.6666667,19 C39.2189514,19 39.6666667,19.4477153 39.6666667,20 L39.666,23 L45.333,23 L45.3333333,20 C45.3333333,19.4477153 45.7810486,19 46.3333333,19 C46.8856181,19 47.3333333,19.4477153 47.3333333,20 L47.333,23 L53,23 L53,20 C53,19.4477153 53.4477153,19 54,19 Z M45.6330409,30.2207026 L36.0734482,43.712901 C35.8561847,44.0232091 36.1579396,44.4576406 36.495905,44.4576406 L40.3704368,44.4576406 C40.6359811,44.4576406 41.6619475,44.283868 41.8309302,44.5445268 C41.9878427,44.7555364 41.6860879,45.4133897 41.6257369,45.6492239 C40.9015253,48.2309877 40.2014541,50.8127515 39.501383,53.3945153 C39.3444705,53.9654823 40.068682,54.2137288 40.3704368,53.7792974 L49.9179593,40.287099 C50.147293,39.9643785 49.8576084,39.5299471 49.519643,39.5299471 L46.8762708,39.5299471 C46.3089717,39.5299471 44.7036361,39.8154306 44.1604774,39.4678855 C44.0518456,39.0706911 44.4018812,38.3507761 44.4984428,38.003231 C44.7760572,36.9978326 45.0416015,36.0048465 45.3192159,34.9870358 L46.5020948,30.6054847 C46.6590073,30.0345177 45.9347957,29.7862712 45.6330409,30.2207026 Z M25,31 C24.4871642,31 24.0644928,31.3860402 24.0067277,31.8833789 L24,32 L24,50 C24,50.5522847 24.4477153,51 25,51 C25.5128358,51 25.9355072,50.6139598 25.9932723,50.1166211 L26,50 L26,32 C26,31.4477153 25.5522847,31 25,31 Z M60,31 C59.4871642,31 59.0644928,31.3860402 59.0067277,31.8833789 L59,32 L59,50 C59,50.5522847 59.4477153,51 60,51 C60.5128358,51 60.9355072,50.6139598 60.9932723,50.1166211 L61,50 L61,32 C61,31.4477153 60.5522847,31 60,31 Z" id="形状结合" fill="url(#linearGradient-1)"></path>
            </g>
        </g>
    </g>
</svg>