<?xml version="1.0" encoding="UTF-8"?>
<svg width="84px" height="84px" viewBox="0 0 84 84" version="1.1" xmlns="http://www.w3.org/2000/svg" xmlns:xlink="http://www.w3.org/1999/xlink">
    <title>PCS</title>
    <defs>
        <linearGradient x1="50%" y1="0%" x2="50%" y2="100%" id="linearGradient-1">
            <stop stop-color="#6D8FB0" offset="0%"></stop>
            <stop stop-color="#4D6D96" offset="100%"></stop>
        </linearGradient>
    </defs>
    <g id="页面-1" stroke="none" stroke-width="1" fill="none" fill-rule="evenodd">
        <g id="一次系统图" transform="translate(-712.000000, -486.000000)">
            <g id="PCS" transform="translate(712.000000, 486.000000)">
                <rect id="矩形备份-12" stroke="#233E61" fill="#122641" x="0.5" y="0.5" width="83" height="83"></rect>
                <path d="M44,16 L44,68 L21,68 C20.4477153,68 20,67.5522847 20,67 L20,17 C20,16.4477153 20.4477153,16 21,16 L44,16 Z M69,16 C69.5522847,16 70,16.4477153 70,17 L70,67 C70,67.5522847 69.5522847,68 69,68 L46,68 L46,16 L69,16 Z M50,44 L48,44 L48,49 L50,49 L50,44 Z M50.7573853,33.5072021 C50.3431717,33.5072021 50.0073853,33.8429886 50.0073853,34.2572021 C50.0073853,34.6714157 50.3431717,35.0072021 50.7573853,35.0072021 C51.1715988,35.0072021 51.5073853,34.6714157 51.5073853,34.2572021 C51.5073853,33.8429886 51.1715988,33.5072021 50.7573853,33.5072021 Z M62,29 L54,29 L54,35 L62,35 L62,29 Z M65,30 C64.4871642,30 64.0644928,30.3860402 64.0067277,30.8833789 L64,31 L64,33 C64,33.5522847 64.4477153,34 65,34 C65.5128358,34 65.9355072,33.6139598 65.9932723,33.1166211 L66,33 L66,31 C66,30.4477153 65.5522847,30 65,30 Z M50.75,31.2536011 C50.3357864,31.2536011 50,31.5893875 50,32.0036011 C50,32.4178146 50.3357864,32.7536011 50.75,32.7536011 C51.1642136,32.7536011 51.5,32.4178146 51.5,32.0036011 C51.5,31.5893875 51.1642136,31.2536011 50.75,31.2536011 Z M50.75,29 C50.3357864,29 50,29.3357864 50,29.75 C50,30.1642136 50.3357864,30.5 50.75,30.5 C51.1642136,30.5 51.5,30.1642136 51.5,29.75 C51.5,29.3357864 51.1642136,29 50.75,29 Z" id="形状结合" fill="url(#linearGradient-1)"></path>
            </g>
        </g>
    </g>
</svg>