<?xml version="1.0" encoding="UTF-8"?>
<svg width="84px" height="84px" viewBox="0 0 84 84" version="1.1" xmlns="http://www.w3.org/2000/svg" xmlns:xlink="http://www.w3.org/1999/xlink">
    <title>一级柜</title>
    <defs>
        <linearGradient x1="50%" y1="0%" x2="50%" y2="100%" id="linearGradient-1">
            <stop stop-color="#6D8FB0" offset="0%"></stop>
            <stop stop-color="#4D6D96" offset="100%"></stop>
        </linearGradient>
    </defs>
    <g id="页面-1" stroke="none" stroke-width="1" fill="none" fill-rule="evenodd">
        <g id="一次系统图" transform="translate(-1253.000000, -220.000000)">
            <g id="一级柜" transform="translate(1253.000000, 220.000000)">
                <rect id="矩形备份-11" stroke="#233E61" fill="#122641" x="0.5" y="0.5" width="83" height="83"></rect>
                <path d="M41,16 L41,68 L22,68 C21.4477153,68 21,67.5522847 21,67 L21,17 C21,16.4477153 21.4477153,16 22,16 L41,16 Z M62,16 C62.5522847,16 63,16.4477153 63,17 L63,67 C63,67.5522847 62.5522847,68 62,68 L43,68 L43,16 L62,16 Z M59,52 L47,52 L47,54 L59,54 L59,52 Z M48,41 L46,41 L46,47 L48,47 L48,41 Z M38,41 L36,41 L36,47 L38,47 L38,41 Z M51,30 C50.1715729,30 49.5,30.6715729 49.5,31.5 C49.5,32.3284271 50.1715729,33 51,33 C51.8284271,33 52.5,32.3284271 52.5,31.5 C52.5,30.6715729 51.8284271,30 51,30 Z M55,30 C54.1715729,30 53.5,30.6715729 53.5,31.5 C53.5,32.3284271 54.1715729,33 55,33 C55.8284271,33 56.5,32.3284271 56.5,31.5 C56.5,30.6715729 55.8284271,30 55,30 Z M26.5,26 C25.6715729,26 25,26.6715729 25,27.5 C25,28.3284271 25.6715729,29 26.5,29 C27.3284271,29 28,28.3284271 28,27.5 C28,26.6715729 27.3284271,26 26.5,26 Z M31,26 C30.1715729,26 29.5,26.6715729 29.5,27.5 C29.5,28.3284271 30.1715729,29 31,29 C31.8284271,29 32.5,28.3284271 32.5,27.5 C32.5,26.6715729 31.8284271,26 31,26 Z M35.5,26 C34.6715729,26 34,26.6715729 34,27.5 C34,28.3284271 34.6715729,29 35.5,29 C36.3284271,29 37,28.3284271 37,27.5 C37,26.6715729 36.3284271,26 35.5,26 Z M48.5,26 C47.6715729,26 47,26.6715729 47,27.5 C47,28.3284271 47.6715729,29 48.5,29 C49.3284271,29 50,28.3284271 50,27.5 C50,26.6715729 49.3284271,26 48.5,26 Z M53,26 C52.1715729,26 51.5,26.6715729 51.5,27.5 C51.5,28.3284271 52.1715729,29 53,29 C53.8284271,29 54.5,28.3284271 54.5,27.5 C54.5,26.6715729 53.8284271,26 53,26 Z M57.5,26 C56.6715729,26 56,26.6715729 56,27.5 C56,28.3284271 56.6715729,29 57.5,29 C58.3284271,29 59,28.3284271 59,27.5 C59,26.6715729 58.3284271,26 57.5,26 Z" id="形状结合" fill="url(#linearGradient-1)"></path>
            </g>
        </g>
    </g>
</svg>