<?xml version="1.0" encoding="UTF-8"?>
<svg width="20px" height="18px" viewBox="0 0 20 18" version="1.1" xmlns="http://www.w3.org/2000/svg" xmlns:xlink="http://www.w3.org/1999/xlink">
    <title>菜单隐藏</title>
    <g id="页面-1" stroke="none" stroke-width="1" fill="none" fill-rule="evenodd">
        <g id="综合监控" transform="translate(-290.000000, -31.000000)" fill="#426A9D">
            <path d="M309.8,47 C309.910457,47 310,47.0895431 310,47.2 L310,48.8 C310,48.9104569 309.910457,49 309.8,49 L290.2,49 C290.089543,49 290,48.9104569 290,48.8 L290,47.2 C290,47.0895431 290.089543,47 290.2,47 L309.8,47 Z M309.8,41.6666667 C309.910457,41.6666667 310,41.7562097 310,41.8666667 L310,43.4666667 C310,43.5771236 309.910457,43.6666667 309.8,43.6666667 L298.2,43.6666667 C298.089543,43.6666667 298,43.5771236 298,43.4666667 L298,41.8666667 C298,41.7562097 298.089543,41.6666667 298.2,41.6666667 L309.8,41.6666667 Z M294.759967,36.5751953 C294.901433,36.5751953 295.016113,36.6670473 295.016113,36.7803524 L295.016113,36.7803524 L295.016113,43.3700371 C295.016113,43.4213656 294.992091,43.4708296 294.948786,43.5086667 C294.853195,43.5921901 294.691165,43.5978325 294.586883,43.5212694 L294.586883,43.5212694 L290.099177,40.2264271 L290.03836,40.1589558 C289.994557,40.0805193 290.015751,39.9852128 290.099177,39.9239623 L290.099177,39.9239623 L294.586883,36.62912 C294.634124,36.594436 294.695882,36.5751953 294.759967,36.5751953 Z M309.8,36.3333333 C309.910457,36.3333333 310,36.4228764 310,36.5333333 L310,38.1333333 C310,38.2437903 309.910457,38.3333333 309.8,38.3333333 L298.2,38.3333333 C298.089543,38.3333333 298,38.2437903 298,38.1333333 L298,36.5333333 C298,36.4228764 298.089543,36.3333333 298.2,36.3333333 L309.8,36.3333333 Z M309.8,31 C309.910457,31 310,31.0895431 310,31.2 L310,32.8 C310,32.9104569 309.910457,33 309.8,33 L290.2,33 C290.089543,33 290,32.9104569 290,32.8 L290,31.2 C290,31.0895431 290.089543,31 290.2,31 L309.8,31 Z" id="菜单隐藏"></path>
        </g>
    </g>
</svg>