<?xml version="1.0" encoding="UTF-8"?>
<svg width="16px" height="16px" viewBox="0 0 16 16" version="1.1" xmlns="http://www.w3.org/2000/svg" xmlns:xlink="http://www.w3.org/1999/xlink">
    <title>密码</title>
    <g id="页面-1" stroke="none" stroke-width="1" fill="none" fill-rule="evenodd">
        <g id="登陆页" transform="translate(-976.000000, -516.000000)" fill="#0066FF" fill-rule="nonzero">
            <path d="M988,516 C988.552285,516 989,516.447715 989,517 L989,521 L991,521 C991.552285,521 992,521.447715 992,522 L992,531 C992,531.552285 991.552285,532 991,532 L977,532 C976.447715,532 976,531.552285 976,531 L976,522 C976,521.447715 976.447715,521 977,521 L979,521 L979,517 C979,516.447715 979.447715,516 980,516 L988,516 Z M990,523 L978,523 L978,530 L990,530 L990,523 Z M983.995117,524.353271 C984.27126,524.353271 984.495117,524.577129 984.495117,524.853271 L984.495735,525.6814 C985.076924,525.888077 985.493042,526.44299 985.493042,527.095093 C985.493042,527.92352 984.821469,528.595093 983.993042,528.595093 C983.164615,528.595093 982.493042,527.92352 982.493042,527.095093 C982.493042,526.441348 982.911259,525.885282 983.494744,525.679845 L983.495117,524.853271 C983.495117,524.577129 983.718975,524.353271 983.995117,524.353271 Z M987,518 L981,518 L981,521 L987,521 L987,518 Z" id="密码"></path>
        </g>
    </g>
</svg>