<?xml version="1.0" encoding="UTF-8"?>
<svg width="54px" height="54px" viewBox="0 0 54 54" version="1.1" xmlns="http://www.w3.org/2000/svg" xmlns:xlink="http://www.w3.org/1999/xlink">
    <title>实时功率</title>
    <g id="页面-1" stroke="none" stroke-width="1" fill="none" fill-rule="evenodd">
        <g id="综合监控" transform="translate(-336.000000, -123.000000)">
            <g id="已运行" transform="translate(295.000000, 92.000000)">
                <g id="实时功率" transform="translate(41.000000, 31.000000)">
                    <circle id="椭圆形" fill="#EC185C" cx="27" cy="27" r="27"></circle>
                    <g id="编组-7" transform="translate(6.750000, 12.535714)" fill="#FFFFFF" fill-rule="nonzero">
                        <polygon id="路径" points="23.6254406 6.55462633e-15 23.1417539 6.00598972 26.0357143 6.00598972 20.2477936 13.5 21.2153889 7.50283151 18.3214286 7.50283151 23.6254406 0"></polygon>
                        <path d="M39.5136222,20.4504083 L31.5088083,20.4504083 C31.0244465,20.4504083 30.5313708,20.4504083 30.0380687,19.9443677 L29.0519737,15.4094093 L22.6673387,26.4941918 C22.6673387,27 21.6899012,27 21.1965991,27 C20.7035233,27 20.2105041,26.4941918 20.2105041,25.9883836 L13.3415073,9.85330509 L8.42761189,16.4031292 C8.42761189,16.4031292 7.94325012,16.9089374 6.95687227,16.9089374 L0.986377849,16.9089374 C0.493302093,16.9089374 0,15.9062111 0,15.4001705 C0,14.3974442 0.493302093,13.891636 0.986377849,13.891636 L5.97077734,13.891636 L12.3551295,5.32723678 C12.8394912,5.32723678 13.3327933,4.82142857 13.8258691,4.82142857 C14.3189448,4.82142857 14.8122469,5.32723678 14.8033066,5.83304499 L21.6810174,21.4530765 L28.5586717,10.8741022 C28.5586717,10.368294 29.0519737,10.368294 29.5450495,10.368294 C30.0381253,10.368294 30.5314273,10.8741022 30.5314273,11.3801428 L32.4951861,17.9297345 L39.0292604,17.9297345 C40.0069242,17.9297345 40.5,18.4357751 40.5,18.9415833 C40.5,19.9443096 40.0069242,20.4504083 39.5136222,20.4504083 L39.5136222,20.4504083 Z" id="路径"></path>
                    </g>
                </g>
            </g>
        </g>
    </g>
</svg>