<?xml version="1.0" encoding="UTF-8"?>
<svg width="16px" height="16px" viewBox="0 0 16 16" version="1.1" xmlns="http://www.w3.org/2000/svg" xmlns:xlink="http://www.w3.org/1999/xlink">
    <title>搜索图标</title>
    <g id="页面-1" stroke="none" stroke-width="1" fill="none" fill-rule="evenodd">
        <g id="项目管理_资产管理" transform="translate(-569.000000, -197.000000)" fill="#FFFFFF" fill-rule="nonzero">
            <g id="编组-10备份" transform="translate(431.000000, 190.000000)">
                <g id="编组" transform="translate(138.000000, 7.000000)">
                    <path d="M15.7772105,14.6662291 L12.7423223,11.5602605 C13.656517,10.3141878 14.1500273,8.79747348 14.1483716,7.2390231 C14.1483716,3.24092807 10.9798097,0 7.07232924,0 C3.16732421,0.00190084005 0,3.24219529 0,7.24092394 C0,11.239019 3.16670535,14.479947 7.0741858,14.479947 C8.84783786,14.479947 10.4636807,13.8076841 11.7051133,12.7058319 L14.6973002,15.7699821 C14.840189,15.9172096 15.0345351,16 15.2372554,16 C15.4399756,16 15.6343218,15.9172096 15.7772105,15.7699821 C16.0742632,15.4639473 16.0742632,14.9697295 15.7772105,14.6662291 Z M7.0741858,12.9206266 C4.01268662,12.9206266 1.52115727,10.3735043 1.52115727,7.2390231 C1.52115727,4.10454194 4.01268664,1.55932042 7.0741858,1.55932042 C10.135685,1.55932042 12.6272144,4.10834361 12.6272144,7.24092394 C12.6272144,10.3735043 10.135685,12.9206266 7.0741858,12.9206266 Z" id="搜索图标"></path>
                </g>
            </g>
        </g>
    </g>
</svg>