<?xml version="1.0" encoding="UTF-8"?>
<svg width="190px" height="190px" viewBox="0 0 190 190" version="1.1" xmlns="http://www.w3.org/2000/svg" xmlns:xlink="http://www.w3.org/1999/xlink">
    <title>编组 14备份 4</title>
    <defs>
        <linearGradient x1="37.4287874%" y1="52.6638739%" x2="58.8100907%" y2="30.8390023%" id="linearGradient-1">
            <stop stop-color="#193C6D" stop-opacity="0" offset="0%"></stop>
            <stop stop-color="#193C6D" offset="100%"></stop>
        </linearGradient>
        <linearGradient x1="50%" y1="0%" x2="50%" y2="92.863404%" id="linearGradient-2">
            <stop stop-color="#18F6FF" offset="0%"></stop>
            <stop stop-color="#0644FC" offset="100%"></stop>
        </linearGradient>
        <linearGradient x1="50%" y1="26.1042811%" x2="50%" y2="106.161187%" id="linearGradient-3">
            <stop stop-color="#90EAFF" offset="0%"></stop>
            <stop stop-color="#134AFC" offset="100%"></stop>
        </linearGradient>
        <linearGradient x1="77.4507779%" y1="44.1675277%" x2="0%" y2="56.5368619%" id="linearGradient-4">
            <stop stop-color="#74EFFF" offset="0%"></stop>
            <stop stop-color="#53D9FF" offset="100%"></stop>
        </linearGradient>
        <linearGradient x1="97.7181714%" y1="6.97274868%" x2="2.28182855%" y2="100%" id="linearGradient-5">
            <stop stop-color="#3165C0" offset="0%"></stop>
            <stop stop-color="#1742B4" offset="100%"></stop>
        </linearGradient>
        <linearGradient x1="100%" y1="31.9114234%" x2="0%" y2="71.0199071%" id="linearGradient-6">
            <stop stop-color="#0B48A9" offset="0%"></stop>
            <stop stop-color="#0732A6" offset="100%"></stop>
        </linearGradient>
        <linearGradient x1="63.1839922%" y1="11.7282753%" x2="36.9283211%" y2="84.7378358%" id="linearGradient-7">
            <stop stop-color="#5FA9DE" offset="0%"></stop>
            <stop stop-color="#4580E4" offset="100%"></stop>
        </linearGradient>
        <linearGradient x1="56.7332355%" y1="50%" x2="24.9291159%" y2="21.8410547%" id="linearGradient-8">
            <stop stop-color="#A1FEFF" stop-opacity="0" offset="0%"></stop>
            <stop stop-color="#A1FEFF" offset="100%"></stop>
        </linearGradient>
    </defs>
    <g id="页面-1" stroke="none" stroke-width="1" fill="none" fill-rule="evenodd">
        <g id="编组-14备份-4">
            <rect id="矩形" fill="#D8D8D8" opacity="0" x="0" y="0" width="190" height="190"></rect>
            <g id="编组-12" transform="translate(54.000000, 15.000000)">
                <polygon id="路径-173" fill="url(#linearGradient-1)" opacity="0.673177083" points="11.1624048 135 42.5668945 151.174665 32.2641137 161 0.566894531 145.182639"></polygon>
                <g id="编组-24备份-2" transform="translate(11.566895, 0.000000)">
                    <polygon id="路径-344备份" fill="url(#linearGradient-2)" points="30.4545455 151 0 134.576717 0 33.6514286 30.4545455 49.8703881"></polygon>
                    <polygon id="路径-345备份" fill="url(#linearGradient-3)" points="30.4545455 151 67 117.074614 67 16.3942857 30.4545455 50.2010178"></polygon>
                    <polygon id="路径-345备份" fill="#265CD8" opacity="0.386486235" points="41.7662338 78.52 56.5584416 65.2118708 56.5584416 44.8685714 41.7662338 58.1767006"></polygon>
                    <polygon id="路径-345备份" fill="#A6DCFF" points="43.5064935 73.3428571 53.9480519 63.7883029 53.9480519 49.1828571 43.5064935 58.7374114"></polygon>
                    <polygon id="路径-344备份-3" fill="url(#linearGradient-4)" points="0 33.6514286 30.4545455 50.2010178 67 16.3942857 36.2808195 0"></polygon>
                    <polygon id="路径-344" fill="#5DAAFE" opacity="0.227841332" points="30.4577019 54.36 30.4545455 50.279832 67 16.3942857 67 47.3599485 64.5727133 44.7290623 64.5727133 22.7726028"></polygon>
                    <polygon id="路径-345" fill="#13243B" opacity="0.149297805" points="30.4545455 142.831019 30.4545455 150.137143 67 116.23532 67 63.8514286 64.4691874 66.784454 64.4691874 111.939524"></polygon>
                    <polygon id="路径-346" fill="#86A2F7" opacity="0.40499442" points="30.4545455 54.36 0 38.1945871 0 33.6514286 30.4500883 50.2010178"></polygon>
                    <polygon id="路径-347" fill="#0D253E" opacity="0.247767857" points="30.4514521 151 30.4545455 143.37093 0 127.702857 0 134.867091"></polygon>
                    <path d="M36.1105633,140.68824 C36.3509389,140.68824 36.5458019,140.883103 36.5458019,141.123479 L36.5458019,143.661904 C36.5458019,143.90228 36.3509389,144.097143 36.1105633,144.097143 C35.8701876,144.097143 35.6753247,143.90228 35.6753247,143.661904 L35.6753247,141.123479 C35.6753247,140.883103 35.8701876,140.68824 36.1105633,140.68824 Z M38.2718328,138.676595 C38.5122084,138.676595 38.7070714,138.871458 38.7070714,139.111834 L38.7070714,141.65026 C38.7070714,141.890635 38.5122084,142.085498 38.2718328,142.085498 C38.0314571,142.085498 37.8365942,141.890635 37.8365942,141.65026 L37.8365942,139.111834 C37.8365942,138.871458 38.0314571,138.676595 38.2718328,138.676595 Z M40.4654996,136.640815 C40.7058752,136.640815 40.9007382,136.835678 40.9007382,137.076054 L40.9007382,139.614479 C40.9007382,139.854855 40.7058752,140.049718 40.4654996,140.049718 C40.2251239,140.049718 40.030261,139.854855 40.030261,139.614479 L40.030261,137.076054 C40.030261,136.835678 40.2251239,136.640815 40.4654996,136.640815 Z M42.6333808,134.627968 C42.8737564,134.627968 43.0686194,134.822831 43.0686194,135.063207 L43.0686194,137.601633 C43.0686194,137.842008 42.8737564,138.036871 42.6333808,138.036871 C42.3930051,138.036871 42.1981421,137.842008 42.1981421,137.601633 L42.1981421,135.063207 C42.1981421,134.822831 42.3930051,134.627968 42.6333808,134.627968 Z M44.8167522,132.613642 C45.0571278,132.613642 45.2519908,132.808505 45.2519908,133.048881 L45.2519908,135.587306 C45.2519908,135.827682 45.0571278,136.022545 44.8167522,136.022545 C44.5763766,136.022545 44.3815136,135.827682 44.3815136,135.587306 L44.3815136,133.048881 C44.3815136,132.808505 44.5763766,132.613642 44.8167522,132.613642 Z M46.9746214,130.608748 C47.214997,130.608748 47.40986,130.803611 47.40986,131.043986 L47.40986,133.582412 C47.40986,133.822787 47.214997,134.01765 46.9746214,134.01765 C46.7342457,134.01765 46.5393828,133.822787 46.5393828,133.582412 L46.5393828,131.043986 C46.5393828,130.803611 46.7342457,130.608748 46.9746214,130.608748 Z M49.1654546,128.59063 C49.4058303,128.59063 49.6006932,128.785493 49.6006932,129.025868 L49.6006932,131.564294 C49.6006932,131.80467 49.4058303,131.999533 49.1654546,131.999533 C48.925079,131.999533 48.730216,131.80467 48.730216,131.564294 L48.730216,129.025868 C48.730216,128.785493 48.925079,128.59063 49.1654546,128.59063 Z M51.3547766,126.551613 C51.5951522,126.551613 51.7900152,126.746476 51.7900152,126.986852 L51.7900152,129.525277 C51.7900152,129.765653 51.5951522,129.960516 51.3547766,129.960516 C51.1144009,129.960516 50.919538,129.765653 50.919538,129.525277 L50.919538,126.986852 C50.919538,126.746476 51.1144009,126.551613 51.3547766,126.551613 Z M53.5202964,124.549123 C53.7606721,124.549123 53.955535,124.743986 53.955535,124.984362 L53.955535,127.522787 C53.955535,127.763163 53.7606721,127.958026 53.5202964,127.958026 C53.2799208,127.958026 53.0850578,127.763163 53.0850578,127.522787 L53.0850578,124.984362 C53.0850578,124.743986 53.2799208,124.549123 53.5202964,124.549123 Z M55.6855329,122.545246 C55.9259086,122.545246 56.1207716,122.740109 56.1207716,122.980485 L56.1207716,125.51891 C56.1207716,125.759286 55.9259086,125.954149 55.6855329,125.954149 C55.4451573,125.954149 55.2502943,125.759286 55.2502943,125.51891 L55.2502943,122.980485 C55.2502943,122.740109 55.4451573,122.545246 55.6855329,122.545246 Z M57.8709824,120.525834 C58.111358,120.525834 58.306221,120.720697 58.306221,120.961072 L58.306221,123.499498 C58.306221,123.739874 58.111358,123.934737 57.8709824,123.934737 C57.6306067,123.934737 57.4357437,123.739874 57.4357437,123.499498 L57.4357437,120.961072 C57.4357437,120.720697 57.6306067,120.525834 57.8709824,120.525834 Z M60.0381079,118.545907 C60.2784836,118.545907 60.4733465,118.74077 60.4733465,118.981146 L60.4733465,121.519571 C60.4733465,121.759947 60.2784836,121.95481 60.0381079,121.95481 C59.7977323,121.95481 59.6028693,121.759947 59.6028693,121.519571 L59.6028693,118.981146 C59.6028693,118.74077 59.7977323,118.545907 60.0381079,118.545907 Z M62.214112,116.485714 C62.4544877,116.485714 62.6493506,116.680577 62.6493506,116.920953 L62.6493506,119.459379 C62.6493506,119.699754 62.4544877,119.894617 62.214112,119.894617 C61.9737364,119.894617 61.7788734,119.699754 61.7788734,119.459379 L61.7788734,116.920953 C61.7788734,116.680577 61.9737364,116.485714 62.214112,116.485714 Z" id="形状结合" fill="url(#linearGradient-5)"></path>
                    <path d="M4.78655794,143.315092 C5.0273036,143.315092 5.22246653,143.510255 5.22246653,143.751 L5.22246653,146.249806 C5.22246653,146.490551 5.0273036,146.685714 4.78655794,146.685714 C4.54581227,146.685714 4.35064935,146.490551 4.35064935,146.249806 L4.35064935,143.751 C4.35064935,143.510255 4.54581227,143.315092 4.78655794,143.315092 Z M6.95902966,142.161904 C7.19977532,142.161904 7.39493825,142.357066 7.39493825,142.597812 L7.39493825,145.096617 C7.39493825,145.337363 7.19977532,145.532526 6.95902966,145.532526 C6.71828399,145.532526 6.52312107,145.337363 6.52312107,145.096617 L6.52312107,142.597812 C6.52312107,142.357066 6.71828399,142.161904 6.95902966,142.161904 Z M9.11446187,141.027642 C9.35520754,141.027642 9.55037046,141.222805 9.55037046,141.463551 L9.55037046,143.962356 C9.55037046,144.203102 9.35520754,144.398265 9.11446187,144.398265 C8.87371621,144.398265 8.67855329,144.203102 8.67855329,143.962356 L8.67855329,141.463551 C8.67855329,141.222805 8.87371621,141.027642 9.11446187,141.027642 Z M11.2971739,139.891472 C11.5379195,139.891472 11.7330824,140.086635 11.7330824,140.327381 L11.7330824,142.826186 C11.7330824,143.066931 11.5379195,143.262094 11.2971739,143.262094 C11.0564282,143.262094 10.8612653,143.066931 10.8612653,142.826186 L10.8612653,140.327381 C10.8612653,140.086635 11.0564282,139.891472 11.2971739,139.891472 Z M13.4646437,138.764228 C13.7053894,138.764228 13.9005523,138.959391 13.9005523,139.200137 L13.9005523,141.698942 C13.9005523,141.939688 13.7053894,142.134851 13.4646437,142.134851 C13.223898,142.134851 13.0287351,141.939688 13.0287351,141.698942 L13.0287351,139.200137 C13.0287351,138.959391 13.223898,138.764228 13.4646437,138.764228 Z M15.6685102,137.54643 C15.9092559,137.54643 16.1044188,137.741593 16.1044188,137.982339 L16.1044188,140.481144 C16.1044188,140.72189 15.9092559,140.917053 15.6685102,140.917053 C15.4277645,140.917053 15.2326016,140.72189 15.2326016,140.481144 L15.2326016,137.982339 C15.2326016,137.741593 15.4277645,137.54643 15.6685102,137.54643 Z M17.8945363,136.423255 C18.135282,136.423255 18.3304449,136.618418 18.3304449,136.859164 L18.3304449,139.357969 C18.3304449,139.598715 18.135282,139.793878 17.8945363,139.793878 C17.6537907,139.793878 17.4586277,139.598715 17.4586277,139.357969 L17.4586277,136.859164 C17.4586277,136.618418 17.6537907,136.423255 17.8945363,136.423255 Z M20.0086883,135.356563 C20.2494339,135.356563 20.4445968,135.551726 20.4445968,135.792472 L20.4445968,138.291277 C20.4445968,138.532023 20.2494339,138.727186 20.0086883,138.727186 C19.7679426,138.727186 19.5727797,138.532023 19.5727797,138.291277 L19.5727797,135.792472 C19.5727797,135.551726 19.7679426,135.356563 20.0086883,135.356563 Z M22.19425,134.199055 C22.4349957,134.199055 22.6301586,134.394218 22.6301586,134.634963 L22.6301586,137.133769 C22.6301586,137.374514 22.4349957,137.569677 22.19425,137.569677 C21.9535043,137.569677 21.7583414,137.374514 21.7583414,137.133769 L21.7583414,134.634963 C21.7583414,134.394218 21.9535043,134.199055 22.19425,134.199055 Z M24.3375973,133.119585 C24.578343,133.119585 24.7735059,133.314748 24.7735059,133.555494 L24.7735059,136.054299 C24.7735059,136.295045 24.578343,136.490208 24.3375973,136.490208 C24.0968516,136.490208 23.9016887,136.295045 23.9016887,136.054299 L23.9016887,133.555494 C23.9016887,133.314748 24.0968516,133.119585 24.3375973,133.119585 Z M26.5381174,132.017143 C26.7788631,132.017143 26.974026,132.212306 26.974026,132.453051 L26.974026,134.951857 C26.974026,135.192602 26.7788631,135.387765 26.5381174,135.387765 C26.2973717,135.387765 26.1022088,135.192602 26.1022088,134.951857 L26.1022088,132.453051 C26.1022088,132.212306 26.2973717,132.017143 26.5381174,132.017143 Z" id="形状结合备份-3" fill="url(#linearGradient-6)" transform="translate(15.662338, 139.351429) scale(-1, 1) translate(-15.662338, -139.351429) "></path>
                    <path d="M39.1545844,114.450161 L39.1545844,115.737161 L37.4155844,117.348571 L37.4155844,116.062063 L39.1545844,114.450161 Z M42.5605844,111.296161 L42.5605844,112.583161 L40.0245844,114.932161 L40.0245844,113.645161 L42.5605844,111.296161 Z M45.9665844,108.142161 L45.9665844,109.428161 L43.4305844,111.777161 L43.4305844,110.491161 L45.9665844,108.142161 Z M39.1545844,107.731726 L39.1545844,109.018726 L37.4155844,110.630137 L37.4155844,109.343628 L39.1545844,107.731726 Z M49.3735844,104.987161 L49.3735844,106.273161 L46.8365844,108.623161 L46.8365844,107.337161 L49.3735844,104.987161 Z M42.5605844,104.577726 L42.5605844,105.864726 L40.0245844,108.213726 L40.0245844,106.926726 L42.5605844,104.577726 Z M52.7795844,101.832161 L52.7795844,103.118161 L50.2425844,105.468161 L50.2425844,104.182161 L52.7795844,101.832161 Z M45.9665844,101.423726 L45.9665844,102.709726 L43.4305844,105.058726 L43.4305844,103.772726 L45.9665844,101.423726 Z M39.1545844,101.013292 L39.1545844,102.300292 L37.4155844,103.911702 L37.4155844,102.625193 L39.1545844,101.013292 Z M56.1855844,98.678161 L56.1855844,99.964161 L53.6485844,102.314161 L53.6485844,101.028161 L56.1855844,98.678161 Z M49.3735844,98.2687264 L49.3735844,99.5547264 L46.8365844,101.904726 L46.8365844,100.618726 L49.3735844,98.2687264 Z M42.5605844,97.8592918 L42.5605844,99.1462918 L40.0245844,101.495292 L40.0245844,100.208292 L42.5605844,97.8592918 Z M59.5915844,95.523161 L59.5915844,96.809161 L57.0555844,99.158161 L57.0555844,97.872161 L59.5915844,95.523161 Z M52.7795844,95.1137264 L52.7795844,96.3997264 L50.2425844,98.7497264 L50.2425844,97.4637264 L52.7795844,95.1137264 Z M45.9665844,94.7052918 L45.9665844,95.9912918 L43.4305844,98.3402918 L43.4305844,97.0542918 L45.9665844,94.7052918 Z M39.1545844,94.2948571 L39.1545844,95.5818571 L37.4155844,97.1932675 L37.4155844,95.9067588 L39.1545844,94.2948571 Z M61.7792208,93.498161 L61.7792208,94.7846698 L60.4615844,96.004161 L60.4615844,94.718161 L61.7792208,93.498161 Z M56.1855844,91.9597264 L56.1855844,93.2457264 L53.6485844,95.5957264 L53.6485844,94.3097264 L56.1855844,91.9597264 Z M49.3735844,91.5502918 L49.3735844,92.8362918 L46.8365844,95.1862918 L46.8365844,93.9002918 L49.3735844,91.5502918 Z M42.5605844,91.1408571 L42.5605844,92.4278571 L40.0245844,94.7768571 L40.0245844,93.4898571 L42.5605844,91.1408571 Z M59.5915844,88.8047264 L59.5915844,90.0907264 L57.0555844,92.4397264 L57.0555844,91.1537264 L59.5915844,88.8047264 Z M52.7795844,88.3952918 L52.7795844,89.6812918 L50.2425844,92.0312918 L50.2425844,90.7452918 L52.7795844,88.3952918 Z M45.9665844,87.9868571 L45.9665844,89.2728571 L43.4305844,91.6218571 L43.4305844,90.3358571 L45.9665844,87.9868571 Z M61.7792208,86.7797264 L61.7792208,88.0662352 L60.4615844,89.2857264 L60.4615844,87.9997264 L61.7792208,86.7797264 Z M56.1855844,85.2412918 L56.1855844,86.5272918 L53.6485844,88.8772918 L53.6485844,87.5912918 L56.1855844,85.2412918 Z M49.3735844,84.8318571 L49.3735844,86.1178571 L46.8365844,88.4678571 L46.8365844,87.1818571 L49.3735844,84.8318571 Z M59.5915844,82.0862918 L59.5915844,83.3722918 L57.0555844,85.7212918 L57.0555844,84.4352918 L59.5915844,82.0862918 Z M52.7795844,81.6768571 L52.7795844,82.9628571 L50.2425844,85.3128571 L50.2425844,84.0268571 L52.7795844,81.6768571 Z M61.7792208,80.0612918 L61.7792208,81.3478005 L60.4615844,82.5672918 L60.4615844,81.2812918 L61.7792208,80.0612918 Z M56.1855844,78.5228571 L56.1855844,79.8088571 L53.6485844,82.1588571 L53.6485844,80.8728571 L56.1855844,78.5228571 Z M59.5915844,75.3678571 L59.5915844,76.6538571 L57.0555844,79.0028571 L57.0555844,77.7168571 L59.5915844,75.3678571 Z M61.7792208,73.3428571 L61.7792208,74.6293659 L60.4615844,75.8488571 L60.4615844,74.5628571 L61.7792208,73.3428571 Z" id="形状结合" fill="url(#linearGradient-7)"></path>
                    <polygon id="路径-348" fill="url(#linearGradient-8)" opacity="0.702218192" points="53.9576458 63.8514286 43.5064935 73.5296712 44.8266848 87.1485714 65.2597403 66.6830445"></polygon>
                </g>
            </g>
        </g>
    </g>
</svg>