<?xml version="1.0" encoding="UTF-8"?>
<svg width="190px" height="190px" viewBox="0 0 190 190" version="1.1" xmlns="http://www.w3.org/2000/svg" xmlns:xlink="http://www.w3.org/1999/xlink">
    <title>设备</title>
    <defs>
        <linearGradient x1="37.4287874%" y1="53.1969148%" x2="58.8100907%" y2="27.0048884%" id="linearGradient-1">
            <stop stop-color="#193C6D" stop-opacity="0" offset="0%"></stop>
            <stop stop-color="#193C6D" offset="100%"></stop>
        </linearGradient>
        <linearGradient x1="50%" y1="1.73991713%" x2="50%" y2="100%" id="linearGradient-2">
            <stop stop-color="#06FAFF" offset="0%"></stop>
            <stop stop-color="#0148FF" offset="100%"></stop>
        </linearGradient>
        <linearGradient x1="51.6339057%" y1="35.9282509%" x2="45.8667157%" y2="112.636429%" id="linearGradient-3">
            <stop stop-color="#00E1FF" offset="0%"></stop>
            <stop stop-color="#0042FF" offset="100%"></stop>
        </linearGradient>
        <linearGradient x1="93.6100879%" y1="48.6707969%" x2="0%" y2="50%" id="linearGradient-4">
            <stop stop-color="#05E2FF" offset="0%"></stop>
            <stop stop-color="#09C8FF" offset="100%"></stop>
        </linearGradient>
        <ellipse id="path-5" cx="35.28874" cy="68.0838741" rx="13.1803023" ry="17.050906"></ellipse>
        <filter x="-17.1%" y="-13.2%" width="134.1%" height="126.4%" filterUnits="objectBoundingBox" id="filter-6">
            <feGaussianBlur stdDeviation="4.5" in="SourceAlpha" result="shadowBlurInner1"></feGaussianBlur>
            <feOffset dx="0" dy="0" in="shadowBlurInner1" result="shadowOffsetInner1"></feOffset>
            <feComposite in="shadowOffsetInner1" in2="SourceAlpha" operator="arithmetic" k2="-1" k3="1" result="shadowInnerInner1"></feComposite>
            <feColorMatrix values="0 0 0 0 0   0 0 0 0 0   0 0 0 0 0  0 0 0 0.237297858 0" type="matrix" in="shadowInnerInner1"></feColorMatrix>
        </filter>
        <linearGradient x1="24.9006352%" y1="39.8047699%" x2="101.518367%" y2="68.1697218%" id="linearGradient-7">
            <stop stop-color="#47C5FB" offset="0%"></stop>
            <stop stop-color="#50A3FB" offset="100%"></stop>
        </linearGradient>
        <linearGradient x1="80.4581125%" y1="16.2266355%" x2="16.8659277%" y2="91.5729464%" id="linearGradient-8">
            <stop stop-color="#82D9FF" offset="0%"></stop>
            <stop stop-color="#006EE4" offset="100%"></stop>
        </linearGradient>
        <radialGradient cx="23.0459609%" cy="42.3585829%" fx="23.0459609%" fy="42.3585829%" r="61.5734885%" gradientTransform="translate(0.230460,0.423586),scale(0.917616,1.000000),rotate(90.000000),translate(-0.230460,-0.423586)" id="radialGradient-9">
            <stop stop-color="#85ECFF" offset="0%"></stop>
            <stop stop-color="#6DD3FF" stop-opacity="0.294990166" offset="100%"></stop>
        </radialGradient>
        <radialGradient cx="23.0459609%" cy="42.3585829%" fx="23.0459609%" fy="42.3585829%" r="103.458314%" gradientTransform="translate(0.230460,0.423586),scale(1.000000,0.595153),rotate(90.000000),translate(-0.230460,-0.423586)" id="radialGradient-10">
            <stop stop-color="#85ECFF" offset="0%"></stop>
            <stop stop-color="#6DD3FF" stop-opacity="0.294990166" offset="100%"></stop>
        </radialGradient>
        <linearGradient x1="50%" y1="0%" x2="50%" y2="100%" id="linearGradient-11">
            <stop stop-color="#80EBFF" offset="0%"></stop>
            <stop stop-color="#4DC1FF" offset="100%"></stop>
        </linearGradient>
        <linearGradient x1="50%" y1="0%" x2="50%" y2="100%" id="linearGradient-12">
            <stop stop-color="#BCF7FF" offset="0%"></stop>
            <stop stop-color="#7AD7FF" offset="100%"></stop>
        </linearGradient>
        <linearGradient x1="36.9813712%" y1="50%" x2="50%" y2="62.165417%" id="linearGradient-13">
            <stop stop-color="#A7F5FF" offset="0%"></stop>
            <stop stop-color="#DFFAFF" offset="100%"></stop>
        </linearGradient>
        <linearGradient x1="50%" y1="0%" x2="50%" y2="100%" id="linearGradient-14">
            <stop stop-color="#94E2F5" offset="0%"></stop>
            <stop stop-color="#7DD8F7" offset="100%"></stop>
        </linearGradient>
        <polygon id="path-15" points="68.6828613 62.1710553 72.741394 58.8198082 72.741394 64.7995713 68.6828613 68.4167243"></polygon>
        <filter x="-49.3%" y="-20.8%" width="198.6%" height="141.7%" filterUnits="objectBoundingBox" id="filter-16">
            <feGaussianBlur stdDeviation="2" in="SourceAlpha" result="shadowBlurInner1"></feGaussianBlur>
            <feOffset dx="0" dy="0" in="shadowBlurInner1" result="shadowOffsetInner1"></feOffset>
            <feComposite in="shadowOffsetInner1" in2="SourceAlpha" operator="arithmetic" k2="-1" k3="1" result="shadowInnerInner1"></feComposite>
            <feColorMatrix values="0 0 0 0 0.383095524   0 0 0 0 0.742161759   0 0 0 0 0.847769475  0 0 0 0.477873689 0" type="matrix" in="shadowInnerInner1"></feColorMatrix>
        </filter>
        <linearGradient x1="50%" y1="1.73991713%" x2="50%" y2="100%" id="linearGradient-17">
            <stop stop-color="#06FAFF" offset="0%"></stop>
            <stop stop-color="#0148FF" offset="100%"></stop>
        </linearGradient>
        <linearGradient x1="40.2269804%" y1="21.7563915%" x2="64.3222407%" y2="78.5821881%" id="linearGradient-18">
            <stop stop-color="#9EF4FF" offset="0%"></stop>
            <stop stop-color="#83BAFF" offset="100%"></stop>
        </linearGradient>
        <linearGradient x1="50%" y1="63.4190382%" x2="66.391859%" y2="22.8594833%" id="linearGradient-19">
            <stop stop-color="#FFFFFF" offset="0%"></stop>
            <stop stop-color="#FFFFFF" stop-opacity="0.988909528" offset="100%"></stop>
        </linearGradient>
        <path d="M78.3105092,25.1050581 L33.1167698,67.2798334 C33.2100823,69.0534893 33.2672905,70.4534069 33.2883943,71.4795863 C33.3094982,72.5057656 33.3094982,73.8876079 33.2883943,75.6251131 L76.7178296,34.0156517 C77.548926,32.5639147 78.0619897,31.1000698 78.2570206,29.6241167 C78.4520516,28.1481637 78.4698811,26.6418108 78.3105092,25.1050581 Z" id="path-20"></path>
        <filter x="-17.7%" y="-15.8%" width="135.3%" height="131.7%" filterUnits="objectBoundingBox" id="filter-21">
            <feGaussianBlur stdDeviation="7.5" in="SourceAlpha" result="shadowBlurInner1"></feGaussianBlur>
            <feOffset dx="0" dy="1" in="shadowBlurInner1" result="shadowOffsetInner1"></feOffset>
            <feComposite in="shadowOffsetInner1" in2="SourceAlpha" operator="arithmetic" k2="-1" k3="1" result="shadowInnerInner1"></feComposite>
            <feColorMatrix values="0 0 0 0 0   0 0 0 0 0   0 0 0 0 0  0 0 0 0.266663024 0" type="matrix" in="shadowInnerInner1"></feColorMatrix>
        </filter>
        <linearGradient x1="40.5129165%" y1="21.7563915%" x2="70.9148988%" y2="62.1047143%" id="linearGradient-22">
            <stop stop-color="#A2F4FF" offset="0%"></stop>
            <stop stop-color="#89BEFF" offset="100%"></stop>
        </linearGradient>
        <linearGradient x1="45.800025%" y1="9.04138193%" x2="55.1663069%" y2="67.3868976%" id="linearGradient-23">
            <stop stop-color="#255789" stop-opacity="0.489865603" offset="0%"></stop>
            <stop stop-color="#102C51" offset="100%"></stop>
        </linearGradient>
        <linearGradient x1="42.7088151%" y1="29.7768798%" x2="60.9727044%" y2="91.4255561%" id="linearGradient-24">
            <stop stop-color="#245789" stop-opacity="0.765734266" offset="0%"></stop>
            <stop stop-color="#102C51" offset="100%"></stop>
        </linearGradient>
        <linearGradient x1="50%" y1="50%" x2="59.572574%" y2="56.3208477%" id="linearGradient-25">
            <stop stop-color="#02396A" stop-opacity="0" offset="0%"></stop>
            <stop stop-color="#013868" offset="100%"></stop>
        </linearGradient>
    </defs>
    <g id="页面-1" stroke="none" stroke-width="1" fill="none" fill-rule="evenodd">
        <g id="设备">
            <rect id="矩形" fill="#D8D8D8" opacity="0" x="0" y="0" width="190" height="190"></rect>
            <g id="编组-13" transform="translate(25.000000, 32.000000)">
                <polygon id="路径-167" fill="url(#linearGradient-1)" opacity="0.673177083" points="18.5167331 72.7566458 0 87.5300857 72.9736825 127 84.1984118 116.225483 87 101.504118 24.0992089 68"></polygon>
                <g id="编组-31" transform="translate(19.000000, 0.000000)">
                    <g id="编组-28">
                        <polygon id="路径-371" fill="url(#linearGradient-2)" points="59.0048218 103.708609 0 71.8233538 0 17.9555204 59.0048218 50.1293361"></polygon>
                        <polygon id="路径-372" fill="url(#linearGradient-3)" points="59.0048218 103.708609 79.921875 84.4418052 79.921875 30.9577938 59.0048218 50.6662819"></polygon>
                        <polygon id="路径-373" fill="url(#linearGradient-4)" points="-2.11168315e-13 17.9555204 59.0048218 50.6662819 79.921875 30.9577938 19.89082 0"></polygon>
                        <g id="椭圆形" transform="translate(35.288740, 68.083874) rotate(-34.000000) translate(-35.288740, -68.083874) ">
                            <use fill="#245BCA" fill-rule="evenodd" xlink:href="#path-5"></use>
                            <use fill="black" fill-opacity="1" filter="url(#filter-6)" xlink:href="#path-5"></use>
                        </g>
                        <path d="M36.6545105,71.2243698 C37.5072988,70.9367295 37.9152121,70.2545417 37.9152121,69.190187 L37.9152121,69.1527719 C38.7680004,69.2452147 39.435387,69.1921846 39.9179657,68.955425 C42.031604,68.2304938 44.1453907,68.4555985 45.2953561,70.8639585 C45.8514126,72.0235292 46.0366658,73.1566456 45.7771926,74.1614352 C45.5548293,75.1794215 44.9616628,75.7926954 44.0342091,75.9375749 C41.3275527,76.4393182 38.8425173,74.8588975 36.6545105,71.2243698 Z M35.0008635,65.4368786 C34.4165899,65.2150695 33.910552,65.1794898 33.4043582,65.2613649 C32.8202405,64.4916864 32.2359669,63.878164 31.6523167,63.4217203 C28.9654999,61.2665327 27.6417284,59.0807159 28.6149981,57.5322156 C29.1604656,56.6822935 29.9777317,56.2877835 31.0683549,56.3494341 C32.1585105,56.3720491 33.2097042,56.8494589 34.182974,57.8060434 C36.9862091,60.5146544 37.7654483,63.3939062 36.5194448,66.4044677 C36.0129394,65.9384526 35.5070573,65.6290462 35.0008635,65.4368786 Z M32.8196749,72.5657793 C33.0650703,75.48257 32.2940882,77.0413368 30.2958486,76.2692876 C29.2445349,75.8630971 28.3328257,75.139575 27.5618436,74.0617009 C26.8256575,72.997568 26.4753131,71.9340325 26.5453258,70.8844298 C26.6504151,67.0264009 29.5248665,67.022583 31.5931189,67.4874207 C31.7331444,68.5813153 32.2590117,69.5270317 33.1352234,70.3486063 C32.8899683,71.1444207 32.7847387,71.8837575 32.8196749,72.5657793 Z M34.0138155,66.5520154 C34.5987238,66.1614586 35.6309554,66.5768115 36.215726,67.4377134 C36.800772,68.2985787 36.800772,69.3659382 36.215726,69.7564395 C35.6312309,70.1471625 34.5987238,69.7315515 34.0138155,68.8707416 C33.4289072,68.0099317 33.4289072,66.9424248 34.0138155,66.5520154 Z" id="形状" fill="#4E7EDD" fill-rule="nonzero"></path>
                        <ellipse id="椭圆形" stroke="#FFFFFF" opacity="0.345679874" transform="translate(35.288740, 68.083874) rotate(-34.000000) translate(-35.288740, -68.083874) " cx="35.28874" cy="68.0838741" rx="10.9229329" ry="14.3648905"></ellipse>
                        <ellipse id="椭圆形" stroke="#FFFFFF" opacity="0.345679874" transform="translate(35.288740, 68.083874) rotate(-34.000000) translate(-35.288740, -68.083874) " cx="35.28874" cy="68.0838741" rx="9.1655635" ry="12.178875"></ellipse>
                        <ellipse id="椭圆形" stroke="#FFFFFF" opacity="0.345679874" transform="translate(35.288740, 68.083874) rotate(-34.000000) translate(-35.288740, -68.083874) " cx="35.28874" cy="68.0838741" rx="7.40819417" ry="9.99285952"></ellipse>
                        <ellipse id="椭圆形" stroke="#FFFFFF" opacity="0.345679874" transform="translate(35.288740, 68.083874) rotate(-34.000000) translate(-35.288740, -68.083874) " cx="35.28874" cy="68.0838741" rx="5.65080356" ry="7.36965085"></ellipse>
                        <ellipse id="椭圆形" stroke="#FFFFFF" opacity="0.345679874" transform="translate(35.288740, 68.083874) rotate(-34.000000) translate(-35.288740, -68.083874) " cx="35.28874" cy="68.0838741" rx="3.45409708" ry="4.74642976"></ellipse>
                        <polygon id="路径-374" fill="url(#linearGradient-7)" opacity="0.787946429" points="0 17.9555204 0 23.4989211 59.0048218 56.3431847 59.0048218 50.6913947"></polygon>
                        <polygon id="路径-375" fill="url(#linearGradient-8)" opacity="0.253557478" points="59.0048218 56.3431847 79.921875 36.8709812 79.921875 30.6482159 59.0048218 50.6922515"></polygon>
                        <line x1="26.5365601" y1="53.8665612" x2="44.331665" y2="82.3477315" id="路径-376" stroke="#FFFFFF" opacity="0.345679874"></line>
                        <line x1="24.6633911" y1="75.227439" x2="46.5170288" y2="60.9868538" id="路径-377" stroke="#FFFFFF" opacity="0.345679874"></line>
                        <line x1="20.9170532" y1="63.7730553" x2="49.6389771" y2="72.7508155" id="路径-378" stroke="#FFFFFF" opacity="0.345679874"></line>
                        <ellipse id="椭圆形" fill="#7BA4F8" transform="translate(35.288740, 68.083874) rotate(-34.000000) translate(-35.288740, -68.083874) " cx="35.28874" cy="68.0838741" rx="2.19670694" ry="2.62322132"></ellipse>
                        <ellipse id="椭圆形" fill="#B0CAFF" transform="translate(35.288740, 68.083874) rotate(-34.000000) translate(-35.288740, -68.083874) " cx="35.28874" cy="68.0838741" rx="1" ry="1.31160456"></ellipse>
                        <path d="M4.37072754,37.4589305 L4.37072754,50.730729 L15.2538395,56.6527627 C16.4890974,53.7892152 17.7768825,51.815204 19.1171949,50.730729 C20.4575074,49.646254 22.5143693,48.8886706 25.2877808,48.4579788 L4.37072754,37.4589305 Z" id="路径-379" fill="url(#radialGradient-9)"></path>
                        <path d="M4.37072754,54.795295 L14.3986636,59.9599682 C14.0000738,61.46444 13.8007789,63.6026589 13.8007789,66.3746251 C13.8007789,69.1465913 14.4037664,71.581566 15.6097412,73.6795493 L4.37072754,67.2446478 L4.37072754,54.795295 Z" id="路径-380" fill="url(#radialGradient-10)"></path>
                        <path d="M5.80916918,59.3322068 L12.4149038,59.2976418 C12.6535068,59.2963933 12.8479448,59.4888071 12.8491933,59.7274101 C12.8492013,59.7289229 12.8492012,59.7304358 12.8491932,59.7319486 C12.847918,59.9738097 12.652161,60.1695589 12.4102998,60.1708244 L5.80456518,60.2053894 C5.56596222,60.2066379 5.37152418,60.0142241 5.37027568,59.7756212 C5.37026776,59.7741083 5.37026779,59.7725955 5.37027577,59.7710826 C5.37155102,59.5292215 5.56730805,59.3334723 5.80916918,59.3322068 Z" id="矩形" fill="#FFFFFF" opacity="0.418178013" transform="translate(9.109735, 59.751516) rotate(27.000000) translate(-9.109735, -59.751516) "></path>
                        <path d="M5.83494479,62.8340845 L12.4406794,62.7995195 C12.6792824,62.798271 12.8737204,62.9906848 12.8749689,63.2292878 C12.8749769,63.2308006 12.8749768,63.2323135 12.8749689,63.2338263 C12.8736936,63.4756874 12.6779366,63.6714366 12.4360754,63.6727021 L5.83034079,63.7072671 C5.59173783,63.7085156 5.39729979,63.5161018 5.39605128,63.2774989 C5.39604337,63.275986 5.3960434,63.2744731 5.39605137,63.2729603 C5.39732663,63.0310992 5.59308365,62.83535 5.83494479,62.8340845 Z" id="矩形备份-47" fill="#FFFFFF" opacity="0.418178013" transform="translate(9.135510, 63.253393) rotate(27.000000) translate(-9.135510, -63.253393) "></path>
                        <path d="M5.81575285,66.5995761 L12.8614238,66.5627091 C13.1000268,66.5614606 13.2944648,66.7538744 13.2957133,66.9924773 C13.2957212,66.9939902 13.2957212,66.9955031 13.2957132,66.9970159 C13.294438,67.238877 13.098681,67.4346262 12.8568198,67.4358917 L5.81114885,67.4727587 C5.57254589,67.4740072 5.37810786,67.2815934 5.37685935,67.0429905 C5.37685143,67.0414776 5.37685146,67.0399647 5.37685944,67.0384519 C5.37813469,66.7965908 5.57389172,66.6008416 5.81575285,66.5995761 Z" id="矩形备份-48" fill="#FFFFFF" opacity="0.418178013" transform="translate(9.336286, 67.017734) rotate(27.000000) translate(-9.336286, -67.017734) "></path>
                        <polygon id="路径-381" fill="url(#linearGradient-11)" points="66.1853027 60.4883218 66.1838004 78.0136404 65.2487183 77.7046345 65.2487183 60.05812"></polygon>
                        <polygon id="路径-382" fill="url(#linearGradient-12)" points="65.8731079 78.0136404 74.9267578 69.7423372 74.9267578 52.3186715 65.8731079 60.5420332"></polygon>
                        <polygon id="路径-383" fill="url(#linearGradient-13)" points="65.908455 60.9868538 74.614563 52.9067021 73.9103068 52.6282495 65.2487183 60.5628416"></polygon>
                        <g id="路径-384">
                            <use fill="url(#linearGradient-14)" fill-rule="evenodd" xlink:href="#path-15"></use>
                            <use fill="black" fill-opacity="1" filter="url(#filter-16)" xlink:href="#path-15"></use>
                        </g>
                        <ellipse id="椭圆形" fill="#00AFDC" cx="61.5023804" cy="51.2351488" rx="1" ry="1"></ellipse>
                        <ellipse id="椭圆形备份-27" fill="#00AFDC" opacity="0.579241071" cx="77.7365112" cy="36.0658298" rx="1" ry="1"></ellipse>
                        <ellipse id="椭圆形" fill="#2D8CD9" transform="translate(54.918102, 51.320266) rotate(25.000000) translate(-54.918102, -51.320266) " cx="54.9181016" cy="51.3202659" rx="1" ry="1"></ellipse>
                        <ellipse id="椭圆形" fill="#2D8CD9" opacity="0.604422433" transform="translate(30.657093, 38.257714) rotate(25.000000) translate(-30.657093, -38.257714) " cx="30.6570929" cy="38.2577141" rx="1" ry="1"></ellipse>
                        <ellipse id="椭圆形备份-28" fill="#2D8CD9" opacity="0.339332217" transform="translate(3.308319, 22.582652) rotate(25.000000) translate(-3.308319, -22.582652) " cx="3.30831937" cy="22.5826519" rx="1" ry="1"></ellipse>
                    </g>
                    <g id="编组-24" transform="translate(39.619391, 31.858200)">
                        <ellipse id="椭圆形" stroke="#979797" cx="16.2459625" cy="62.9176146" rx="1" ry="1"></ellipse>
                        <path d="M25.9310556,83.3640523 L0,68.9889179 L0,38.4324345 C17.2873704,42.9148961 25.9310556,51.5964512 25.9310556,64.4770998 C25.9310556,77.3577484 25.9310556,83.6533992 25.9310556,83.3640523 Z" id="路径-360" fill="url(#linearGradient-17)"></path>
                        <path d="M25.8074294,83.3735878 L80.5668965,30.2333692 C80.9017104,20.5414511 79.0281712,13.3667578 74.9462789,8.70928918 C70.8643866,4.05182057 63.710514,1.14872418 53.484661,0 L0,38.4612318 C17.0210273,43.4944278 25.6235038,51.9505595 25.8074294,63.8296267 C25.8074294,69.9241573 25.8074294,76.438811 25.8074294,83.3735878 Z" id="路径-361" fill="url(#linearGradient-18)"></path>
                        <path d="M6.56086948,72.6727128 L6.56086948,40.6020075 C20.2501346,46.0105567 26.683559,54.9979618 25.8611427,67.5642228 C25.7900912,76.8096024 25.7593457,82.0793907 25.7689061,83.3735878 L6.56086948,72.6727128 Z" id="路径-363" fill="#FFFFFF" opacity="0.16889881"></path>
                        <path d="M12.8093166,43.7013973 C19.5068761,49.2178823 22.8556558,57.3566086 22.8556558,68.1175763 C22.8556558,68.1175763 23.8403166,68.8637676 25.8096382,70.3561503 C26.2765461,62.5831714 25.3968408,56.9378236 23.1705222,53.4201069 C20.7521283,49.3320461 17.2983931,46.0924763 12.8093166,43.7013973 Z" id="路径-362" fill="#FEFDFD" opacity="0.257859003"></path>
                        <polygon id="路径-364" fill="#0282FF" opacity="0.553641183" points="0 59.6908169 6.56086948 63.2275536 6.56086948 55.2210164 0 51.759811"></polygon>
                        <path d="M25.9440057,70.3561503 L80.2925456,19.4185786 C78.5104156,7.99941654 69.6688033,1.52655703 53.7677088,0 C53.6944232,-0.0152139076 35.7718536,12.7520513 0,38.3017956 C10.0616406,41.6545396 16.7971141,45.3133047 20.2064205,49.2780909 C24.7464636,53.7035202 26.658992,60.72954 25.9440057,70.3561503 Z" id="路径-365" fill="url(#linearGradient-19)" opacity="0.315452939"></path>
                        <g id="路径-366">
                            <use fill="#0664B7" fill-rule="evenodd" xlink:href="#path-20"></use>
                            <use fill="black" fill-opacity="1" filter="url(#filter-21)" xlink:href="#path-20"></use>
                        </g>
                        <path d="M33.1913751,75.9941992 L33.1913751,71.2050617 L78.4180115,28.5143869 C78.0794621,31.1421982 77.6221908,32.8494998 77.0461977,33.6362918 C76.4702045,34.4230837 61.8519303,48.5423862 33.1913751,75.9941992 Z" id="路径-367" fill="url(#linearGradient-22)"></path>
                        <ellipse id="椭圆形" stroke-opacity="0.65111451" stroke="#FFFFFF" fill="#00F44D" cx="30.9298133" cy="72.5257233" rx="1" ry="1"></ellipse>
                        <path d="M48.1130429,44.0113363 C48.3135618,42.0255374 48.4138212,40.5170586 48.4138212,39.4859001 C48.4138212,38.4547417 48.3135618,37.0609255 48.1130429,35.3044517 L57.1679855,26.654753 C57.3894667,28.3925525 57.4951556,29.8081308 57.4850524,30.9014879 C57.4749492,31.9948451 57.3692602,33.4624997 57.1679855,35.3044517 L48.1130429,44.0113363 Z" id="路径-368" stroke="url(#linearGradient-23)" opacity="0.263648624" stroke-dasharray="1"></path>
                        <path d="M48.7378876,35.2925941 C48.8796267,36.5139983 48.9504963,37.5001964 48.9504963,38.2511882 C48.9504963,39.0021801 48.8796267,40.0957255 48.7378876,41.5318244 L55.670373,34.5954863 C55.8355181,33.15512 55.9198861,32.055816 55.9234769,31.2975743 C55.9270677,30.5393326 55.8532548,29.5082905 55.7020382,28.2044479 L48.7378876,35.2925941 Z" id="路径-369" fill="url(#linearGradient-24)"></path>
                        <ellipse id="椭圆形" fill="#288CD8" cx="17.1832296" cy="61.3679197" rx="1" ry="1"></ellipse>
                        <path d="M50.4696001,36.9799739 C50.4093472,37.0940632 50.3340311,37.2170747 50.2436518,37.351384 C50.1532725,37.4809418 50.0679142,37.5916869 49.987577,37.6836195 L49.987577,37.9592105 C50.1532725,37.7636601 50.2888414,37.5716993 50.3967945,37.381049 L50.3967945,38.7423735 L50.6905273,38.4757368 L50.6905273,36.7794266 L50.4696001,36.9799739 Z M52.1220634,35.4061098 C51.8980907,35.5969333 51.719992,35.8349564 51.5904656,36.1178798 C51.4582408,36.4031022 51.3934776,36.6835767 51.3934776,36.9639991 C51.3934776,37.2252473 51.4528439,37.3783932 51.5769733,37.4212355 C51.7011027,37.4664745 51.8818999,37.389133 52.1193649,37.186814 C52.3109559,37.0235794 52.4728639,36.8281121 52.6023902,36.6075048 C52.7319166,36.3868975 52.7993782,36.188011 52.7993782,36.0154433 C52.7993782,35.8476693 52.7427105,35.7569371 52.6293749,35.7456437 C52.5160393,35.7343502 52.3649253,35.8103697 52.1760327,35.9713052 C52.0788879,36.054072 51.992537,36.1420232 51.91698,36.2399522 C51.836026,36.3424794 51.7685644,36.4502886 51.714595,36.5681733 L51.7011027,36.5796687 L51.7011027,36.5580978 C51.7011027,36.3999108 51.7361828,36.2382003 51.8117398,36.0683681 C51.8872968,35.8913456 51.9898385,35.7488548 52.1193649,35.638499 C52.3028606,35.4821617 52.4161961,35.4646938 52.4539746,35.5906937 L52.7615997,35.3285987 C52.7130273,35.0584017 52.4998485,35.0842387 52.1220634,35.4061098 Z M52.0951682,36.2659098 C52.2035082,36.1673904 52.2891724,36.1205419 52.3546803,36.1254616 C52.4151491,36.1325752 52.4479031,36.186388 52.4479031,36.2914823 C52.4479031,36.3965765 52.4151491,36.5123477 52.3496412,36.6387958 C52.2841333,36.7652439 52.2009886,36.8742909 52.0951682,36.9705192 C51.9918672,37.0644563 51.9087226,37.1090137 51.8432146,37.1064824 C51.7777067,37.1039511 51.7449528,37.0477499 51.7449528,36.9402671 C51.7449528,36.8303958 51.7751872,36.7145273 51.8381756,36.5951473 C51.8986444,36.4756701 51.9843086,36.3667204 52.0951682,36.2659098 Z M53.5023285,33.9698427 C53.4034761,34.0658588 53.3210992,34.1792376 53.2551976,34.31554 C53.1838042,34.4516158 53.1508534,34.5670345 53.1508534,34.6671306 C53.1508534,34.7644463 53.1838042,34.8158543 53.2551976,34.8160205 C53.3210992,34.821521 53.4034761,34.7776533 53.5023285,34.6816372 C53.598435,34.5882882 53.680812,34.4721289 53.7494595,34.3359398 C53.818107,34.1997508 53.8538037,34.0816649 53.8538037,33.9843492 C53.8538037,33.8842531 53.818107,33.8355122 53.7494595,33.8354593 C53.680812,33.8298456 53.598435,33.8764937 53.5023285,33.9698427 Z M53.6780661,34.2074953 C53.7245849,34.17747 53.7659349,34.1612146 53.8021162,34.1622069 C53.8357131,34.1631284 53.8538037,34.1792751 53.8538037,34.2123151 C53.8538037,34.2436162 53.8357131,34.2831159 53.8021162,34.3291461 C53.7659349,34.3751054 53.7245849,34.4139671 53.6780661,34.4439923 C53.628963,34.4756856 53.5876129,34.4902021 53.5540161,34.4892807 C53.5178348,34.4882883 53.5023285,34.4704736 53.5023285,34.4391725 C53.5023285,34.4061324 53.5178348,34.3683008 53.5540161,34.3223415 C53.5876129,34.2763114 53.628963,34.2391886 53.6780661,34.2074953 Z M54.7702266,33.1988161 C54.996637,32.9924464 55.1853123,32.8768175 55.3308618,32.856843 C55.4710206,32.8366598 55.5545768,32.9090478 55.5842258,33.066428 L55.2769546,33.3465011 C55.2446103,33.2556072 55.1853123,33.2225764 55.0963654,33.2473043 C55.0101138,33.2695755 54.899604,33.3446918 54.7648359,33.4675309 C54.5626838,33.6517895 54.4117435,33.8533988 54.3093198,34.0799377 C54.2149821,34.2837392 54.169161,34.4894198 54.169161,34.6994363 C54.169161,34.9145752 54.2149821,35.0392864 54.3066244,35.0710088 C54.4063528,35.1030443 54.5626838,35.0245804 54.772922,34.8329514 C54.9103854,34.7076555 55.0235906,34.5711753 55.1098422,34.4310901 C55.2014845,34.2784077 55.2661732,34.1144366 55.3039082,33.9417381 L55.6111794,33.661665 C55.5680537,33.9161123 55.4683253,34.1734898 55.3092989,34.4388153 C55.1610541,34.6866301 54.9831602,34.9051236 54.7756173,35.0942958 C54.4548693,35.3866529 54.2149821,35.5079818 54.0586512,35.4609481 C53.9211877,35.4223286 53.8538037,35.263487 53.8538037,34.9868799 C53.8538037,34.7153951 53.9238831,34.4286964 54.0667372,34.1294492 C54.2284589,33.7873928 54.4629554,33.4788892 54.7702266,33.1988161 Z" id="16℃" fill="#CBF2FF" fill-rule="nonzero"></path>
                        <path d="M78.0053456,25.1050581 L74.9813655,31.6137768 L78.1055891,28.5055348 C78.1055891,27.8575767 78.1055891,27.3101445 78.1055891,26.8632381 C78.1055891,26.4163318 78.0721746,25.8302717 78.0053456,25.1050581 Z" id="路径-370" fill="url(#linearGradient-25)" opacity="0.812244234"></path>
                    </g>
                </g>
            </g>
        </g>
    </g>
</svg>