<?xml version="1.0" encoding="UTF-8"?>
<svg width="190px" height="190px" viewBox="0 0 190 190" version="1.1" xmlns="http://www.w3.org/2000/svg" xmlns:xlink="http://www.w3.org/1999/xlink">
    <title>编组 22</title>
    <defs>
        <linearGradient x1="37.4287874%" y1="52.9440973%" x2="58.8100907%" y2="28.8233812%" id="linearGradient-1">
            <stop stop-color="#193C6D" stop-opacity="0" offset="0%"></stop>
            <stop stop-color="#193C6D" offset="100%"></stop>
        </linearGradient>
        <linearGradient x1="75.9964748%" y1="0%" x2="75.9964748%" y2="100%" id="linearGradient-2">
            <stop stop-color="#06FDFF" offset="0%"></stop>
            <stop stop-color="#0042FF" offset="100%"></stop>
        </linearGradient>
        <linearGradient x1="66.5558283%" y1="22.1000428%" x2="66.5558283%" y2="93.3125199%" id="linearGradient-3">
            <stop stop-color="#00E1FF" offset="0%"></stop>
            <stop stop-color="#0042FF" offset="100%"></stop>
        </linearGradient>
        <linearGradient x1="93.6100879%" y1="48.8472886%" x2="0%" y2="50%" id="linearGradient-4">
            <stop stop-color="#05E2FF" offset="0%"></stop>
            <stop stop-color="#09C8FF" offset="100%"></stop>
        </linearGradient>
        <linearGradient x1="52.5494318%" y1="22.1469577%" x2="44.3371591%" y2="93.9345641%" id="linearGradient-5">
            <stop stop-color="#06FFFF" stop-opacity="0.920290647" offset="0%"></stop>
            <stop stop-color="#632FFF" offset="100%"></stop>
        </linearGradient>
        <linearGradient x1="50%" y1="30.1987869%" x2="60.5305596%" y2="93.1848704%" id="linearGradient-6">
            <stop stop-color="#06FFFF" stop-opacity="0.971946023" offset="0%"></stop>
            <stop stop-color="#632FFF" offset="100%"></stop>
        </linearGradient>
        <linearGradient x1="78.9529052%" y1="48.0866339%" x2="11.7708093%" y2="51.6310398%" id="linearGradient-7">
            <stop stop-color="#05E2FF" offset="0%"></stop>
            <stop stop-color="#09C8FF" offset="100%"></stop>
        </linearGradient>
        <linearGradient x1="108.628177%" y1="50%" x2="3.95509499%" y2="50%" id="linearGradient-8">
            <stop stop-color="#287EE0" offset="0%"></stop>
            <stop stop-color="#1247BD" offset="100%"></stop>
        </linearGradient>
        <linearGradient x1="57.3565262%" y1="-7.50420627%" x2="50%" y2="50%" id="linearGradient-9">
            <stop stop-color="#24007C" offset="0%"></stop>
            <stop stop-color="#1D3AFE" offset="100%"></stop>
        </linearGradient>
        <linearGradient x1="11.5812918%" y1="41.6648322%" x2="100%" y2="58.3351678%" id="linearGradient-10">
            <stop stop-color="#00F7FD" offset="0%"></stop>
            <stop stop-color="#5C38FF" offset="100%"></stop>
        </linearGradient>
        <linearGradient x1="50%" y1="0%" x2="50%" y2="100%" id="linearGradient-11">
            <stop stop-color="#06FFFF" offset="0%"></stop>
            <stop stop-color="#632FFF" offset="100%"></stop>
        </linearGradient>
        <linearGradient x1="52.8708695%" y1="-7.50420627%" x2="50%" y2="50%" id="linearGradient-12">
            <stop stop-color="#24007C" offset="0%"></stop>
            <stop stop-color="#1D3AFE" offset="100%"></stop>
        </linearGradient>
        <linearGradient x1="100%" y1="30.725103%" x2="0%" y2="69.274897%" id="linearGradient-13">
            <stop stop-color="#00F7FD" offset="0%"></stop>
            <stop stop-color="#5C38FF" offset="100%"></stop>
        </linearGradient>
        <linearGradient x1="50%" y1="0%" x2="50%" y2="100%" id="linearGradient-14">
            <stop stop-color="#06FFFF" offset="0%"></stop>
            <stop stop-color="#632FFF" offset="100%"></stop>
        </linearGradient>
    </defs>
    <g id="页面-1" stroke="none" stroke-width="1" fill="none" fill-rule="evenodd">
        <g id="编组-22">
            <rect id="矩形" fill="#D8D8D8" opacity="0" x="0" y="0" width="190" height="190"></rect>
            <g id="编组-15" transform="translate(38.000000, 29.000000)">
                <polygon id="路径-3" fill="url(#linearGradient-1)" opacity="0.333170573" points="18.4804629 98.4633789 63 121.676003 45.2759497 139.463379 0 115.442771"></polygon>
                <polygon id="路径-316" fill="url(#linearGradient-2)" points="63 122.463379 18 99.0216406 18 46.4633789 63 65.6693688"></polygon>
                <polygon id="路径-317" fill="url(#linearGradient-3)" points="63 122.463379 102 85.4203356 101.95641 33.4633789 63 65.8270153"></polygon>
                <polygon id="路径-318" fill="url(#linearGradient-4)" points="63.4327685 65.4633789 102 32.884509 58.8405405 16.4633789 19 46.1313681"></polygon>
                <polygon id="路径-329" fill="url(#linearGradient-5)" points="61 47.4633789 82 30.7822684 82 7.46337891 61 23.666285"></polygon>
                <polygon id="路径-330" fill="url(#linearGradient-6)" points="61 47.4633789 40 38.2712069 40 15.4633789 61 23.7578401"></polygon>
                <polygon id="路径-331" fill="url(#linearGradient-7)" points="40 16.0805378 60.98418 24.4633789 82 7.94954516 61.2543179 0.463378906"></polygon>
                <polygon id="路径-331" stroke="url(#linearGradient-8)" points="50 14.149035 60.56956 18.4633789 71 10.3176439 60.5 6.46337891"></polygon>
                <g id="编组-20备份" transform="translate(65.000000, 26.463379)">
                    <polygon id="路径-332" fill="url(#linearGradient-9)" points="2.29816166e-14 1.07293992 2.29816166e-14 1.87444778 7.16114717 4.52648926 7.16114717 21.6022833 7.99003332 21.9033203 7.99003332 4.0390625"></polygon>
                    <polygon id="路径-333" fill="url(#linearGradient-10)" points="-6.19504448e-14 1.07293992 0.648710363 0.485060919 8.7045324 3.31268601 7.99003332 4.0390625"></polygon>
                    <polygon id="路径-334" fill="url(#linearGradient-11)" points="8.7045324 3.31268601 7.99003332 4.0390625 7.99003332 21.9033203 8.7045324 21.2241327"></polygon>
                </g>
                <g id="编组-20备份" transform="translate(72.000000, 22.463379)">
                    <polygon id="路径-332" fill="url(#linearGradient-9)" points="2.29816166e-14 1.07293992 2.29816166e-14 1.87444778 7.16114717 4.52648926 7.16114717 21.6022833 7.99003332 21.9033203 7.99003332 4.0390625"></polygon>
                    <polygon id="路径-333" fill="url(#linearGradient-10)" points="-6.19504448e-14 1.07293992 0.648710363 0.485060919 8.7045324 3.31268601 7.99003332 4.0390625"></polygon>
                    <polygon id="路径-334" fill="url(#linearGradient-11)" points="8.7045324 3.31268601 7.99003332 4.0390625 7.99003332 21.9033203 8.7045324 21.2241327"></polygon>
                </g>
                <g id="编组-20" transform="translate(47.000000, 27.463379)">
                    <polygon id="路径-335" fill="url(#linearGradient-12)" points="6.42181632 0.296301553 6.42181632 1.22973633 1.86038166 4.43277049 1.86038166 21.9931754 1.06508887 22.6514637 1.06508887 3.98720817"></polygon>
                    <polygon id="路径-336" fill="url(#linearGradient-13)" points="6.42181632 0.296301553 5.41180655 2.29816166e-14 1.59576056e-13 3.66296103 1.06508887 3.98720817"></polygon>
                    <polygon id="路径-337" fill="url(#linearGradient-14)" points="0 3.66296103 0 22.2689748 1.06508887 22.6514637 1.06508887 3.98720817"></polygon>
                </g>
                <g id="编组-21" transform="translate(38.000000, 23.463379)">
                    <polygon id="路径-335" fill="url(#linearGradient-12)" points="6.42181632 0.296301553 6.42181632 1.22973633 1.86038166 4.43277049 1.86038166 21.9931754 1.06508887 22.6514637 1.06508887 3.98720817"></polygon>
                    <polygon id="路径-336" fill="url(#linearGradient-13)" points="6.42181632 0.296301553 5.41180655 2.29816166e-14 1.62684681e-13 3.66296103 1.06508887 3.98720817"></polygon>
                    <polygon id="路径-337" fill="url(#linearGradient-14)" points="-1.2952602e-16 3.66296103 -1.2952602e-16 22.2689748 1.06508887 22.6514637 1.06508887 3.98720817"></polygon>
                </g>
            </g>
        </g>
    </g>
</svg>