<?xml version="1.0" encoding="UTF-8"?>
<svg width="190px" height="190px" viewBox="0 0 190 190" version="1.1" xmlns="http://www.w3.org/2000/svg" xmlns:xlink="http://www.w3.org/1999/xlink">
    <title>编组 13备份 3</title>
    <defs>
        <linearGradient x1="28.1916012%" y1="61.906348%" x2="58.8100907%" y2="24.2015473%" id="linearGradient-1">
            <stop stop-color="#193C6D" stop-opacity="0" offset="0%"></stop>
            <stop stop-color="#193C6D" offset="100%"></stop>
        </linearGradient>
        <linearGradient x1="50%" y1="1.73991713%" x2="50%" y2="100%" id="linearGradient-2">
            <stop stop-color="#06FAFF" offset="0%"></stop>
            <stop stop-color="#0148FF" offset="100%"></stop>
        </linearGradient>
        <linearGradient x1="50%" y1="0%" x2="50%" y2="100%" id="linearGradient-3">
            <stop stop-color="#00E1FF" offset="0%"></stop>
            <stop stop-color="#0042FF" offset="100%"></stop>
        </linearGradient>
        <linearGradient x1="50%" y1="4.71598307%" x2="50%" y2="100%" id="linearGradient-4">
            <stop stop-color="#328EFB" offset="0%"></stop>
            <stop stop-color="#072D94" offset="100%"></stop>
        </linearGradient>
        <linearGradient x1="50%" y1="4.71598307%" x2="50%" y2="100%" id="linearGradient-5">
            <stop stop-color="#67ACFE" offset="0%"></stop>
            <stop stop-color="#0738BB" offset="100%"></stop>
        </linearGradient>
        <linearGradient x1="50%" y1="4.71598307%" x2="50%" y2="100%" id="linearGradient-6">
            <stop stop-color="#80B8FA" offset="0%"></stop>
            <stop stop-color="#1D6CDF" offset="100%"></stop>
        </linearGradient>
        <linearGradient x1="93.6100879%" y1="48.0251063%" x2="0%" y2="50%" id="linearGradient-7">
            <stop stop-color="#05E2FF" offset="0%"></stop>
            <stop stop-color="#09C8FF" offset="100%"></stop>
        </linearGradient>
        <linearGradient x1="29.2875392%" y1="19.2546439%" x2="55.3733623%" y2="57.4705264%" id="linearGradient-8">
            <stop stop-color="#4ACAE4" stop-opacity="0" offset="0%"></stop>
            <stop stop-color="#4ACAE4" offset="100%"></stop>
        </linearGradient>
        <linearGradient x1="100%" y1="10.3163702%" x2="100%" y2="100%" id="linearGradient-9">
            <stop stop-color="#E9FBFF" offset="0%"></stop>
            <stop stop-color="#5879FF" offset="100%"></stop>
        </linearGradient>
        <linearGradient x1="100%" y1="30.2166498%" x2="17.7708356%" y2="30.2166498%" id="linearGradient-10">
            <stop stop-color="#000000" stop-opacity="0" offset="0%"></stop>
            <stop stop-color="#000000" stop-opacity="0.0905539773" offset="100%"></stop>
        </linearGradient>
        <linearGradient x1="32.5498883%" y1="19.2546439%" x2="54.5270223%" y2="57.4705264%" id="linearGradient-11">
            <stop stop-color="#4ACAE4" stop-opacity="0" offset="0%"></stop>
            <stop stop-color="#4ACAE4" offset="100%"></stop>
        </linearGradient>
        <linearGradient x1="50%" y1="0%" x2="50%" y2="100%" id="linearGradient-12">
            <stop stop-color="#FFFFFF" stop-opacity="0" offset="0%"></stop>
            <stop stop-color="#FFFFFF" offset="100%"></stop>
        </linearGradient>
        <linearGradient x1="50%" y1="0%" x2="50%" y2="100%" id="linearGradient-13">
            <stop stop-color="#FFFFFF" stop-opacity="0" offset="0%"></stop>
            <stop stop-color="#FFFFFF" offset="100%"></stop>
        </linearGradient>
        <linearGradient x1="50%" y1="121.125001%" x2="50%" y2="20.5392131%" id="linearGradient-14">
            <stop stop-color="#FFFFFF" stop-opacity="0" offset="0%"></stop>
            <stop stop-color="#FFFFFF" offset="100%"></stop>
        </linearGradient>
        <linearGradient x1="50%" y1="121.125001%" x2="50%" y2="20.5392131%" id="linearGradient-15">
            <stop stop-color="#FFFFFF" stop-opacity="0" offset="0%"></stop>
            <stop stop-color="#FFFFFF" offset="100%"></stop>
        </linearGradient>
    </defs>
    <g id="页面-1" stroke="none" stroke-width="1" fill="none" fill-rule="evenodd">
        <g id="编组-13备份-3">
            <rect id="矩形" fill="#D8D8D8" opacity="0" x="0" y="0" width="190" height="190"></rect>
            <g id="编组-16" transform="translate(27.000000, 29.000000)">
                <polygon id="路径-170" fill="url(#linearGradient-1)" opacity="0.51390439" points="6.65002804 109.965299 -1.00897068e-12 116.470797 53.1604038 145 71 128.444341 64.7313779 101.01644 30.4356129 94"></polygon>
                <g id="编组-27" transform="translate(8.000000, 0.000000)">
                    <polygon id="路径-341" fill="url(#linearGradient-2)" points="0 110.272715 23.9110539 123 24.1269841 61.6566593 0 51.6217617"></polygon>
                    <polygon id="路径-342备份" fill="url(#linearGradient-3)" points="23.7031621 123 80 68.6429206 80 7.01036269 23.7031621 61.0562292"></polygon>
                    <polygon id="路径-342备份" fill="url(#linearGradient-4)" points="25.3968254 119.176166 42.5396825 102.79889 42.5396825 45.2487047 25.4608666 61.7253949"></polygon>
                    <polygon id="路径-342备份-2" fill="url(#linearGradient-5)" points="46.3492063 99.4196891 63.4920635 82.958387 63.4920635 24.8549223 46.4132475 41.4161487"></polygon>
                    <polygon id="路径-342备份-2" fill="url(#linearGradient-6)" points="66.6666667 80.3005181 78.7301587 68.7104851 78.7301587 10.1968912 66.7311589 21.7729879"></polygon>
                    <polygon id="路径-343" fill="url(#linearGradient-7)" points="23.6222072 61.8186528 0 51.7343518 56.7009666 0 80 7.4793544"></polygon>
                    <polygon id="路径-349" fill="#57E3FF" points="24.7619048 69.7088045 41.9047619 53.5336788 41.9047619 62.3352743 24.7619048 78.388601"></polygon>
                    <polygon id="路径-350" fill="url(#linearGradient-8)" points="41.9047619 53.4918882 36.1448012 50.984456 24.7619048 62.1378841 24.7619048 70.1036269"></polygon>
                    <ellipse id="椭圆形" fill="#4964A4" opacity="0.356212798" cx="1.58730159" cy="53.8523316" rx="1" ry="1"></ellipse>
                    <ellipse id="椭圆形" fill="#4964A4" opacity="0.356212798" cx="21.9047619" cy="62.1373057" rx="1" ry="1"></ellipse>
                    <ellipse id="椭圆形" fill="#0055CD" cx="1.58730159" cy="108.660622" rx="1" ry="1"></ellipse>
                    <ellipse id="椭圆形" fill="#013AB0" cx="21.9047619" cy="119.494819" rx="1" ry="1"></ellipse>
                    <g id="编组-25" transform="translate(38.730159, 58.632124)">
                        <path d="M0.437828521,0.490660089 L0.437828521,5.21196956 C0.437828521,5.22358663 0.435708658,5.22480592 0.28108957,5.22480592 C0.125849497,5.22480592 2.55344864e-06,5.33180523 2.55344864e-06,5.46379556 C2.55344864e-06,5.59578589 0.125849497,5.7027852 0.28108957,5.7027852 C0.710238438,5.7027852 1.00000255,5.53612049 1.00000255,5.21196956 L1.00000255,0.459658292 C1.00000255,0.147226824 0.70789162,0 0.28108957,0 C0.125849497,0 2.55344864e-06,0.106999305 2.55344864e-06,0.238989637 C2.55344864e-06,0.370979969 0.125849497,0.477979275 0.28108957,0.477979275 C0.352992091,0.477979275 0.405642394,0.483429107 0.437828521,0.490660089 Z" id="路径-351" fill="url(#linearGradient-9)" fill-rule="nonzero"></path>
                        <path d="M-3.55271368e-15,0.238989637 C0.017091546,0.398724492 0.146893829,0.482614642 0.38940685,0.490660089 C0.390790314,0.493797833 0.390790314,2.06756766 0.38940685,5.21196956 C0.139488231,5.20712676 0.00968594709,5.29106875 -3.55271368e-15,5.46379556 C-3.55271368e-15,5.56111849 0.0531421272,5.6407817 0.159426382,5.7027852 L0.634035757,5.46379556 L0.634035757,0.378555851 C0.501927797,0.273527327 0.396255171,0.212292067 0.317017878,0.194850072 C0.237780586,0.177408076 0.13210796,0.192121265 -3.55271368e-15,0.238989637 Z" id="路径-352" fill="url(#linearGradient-10)" opacity="0.496140253"></path>
                    </g>
                    <g id="编组-25" transform="translate(29.206349, 66.917098)">
                        <path d="M0.437828521,0.490660089 L0.437828521,5.21196956 C0.437828521,5.22358663 0.435708658,5.22480592 0.28108957,5.22480592 C0.125849497,5.22480592 2.55344864e-06,5.33180523 2.55344864e-06,5.46379556 C2.55344864e-06,5.59578589 0.125849497,5.7027852 0.28108957,5.7027852 C0.710238438,5.7027852 1.00000255,5.53612049 1.00000255,5.21196956 L1.00000255,0.459658292 C1.00000255,0.147226824 0.70789162,0 0.28108957,0 C0.125849497,0 2.55344864e-06,0.106999305 2.55344864e-06,0.238989637 C2.55344864e-06,0.370979969 0.125849497,0.477979275 0.28108957,0.477979275 C0.352992091,0.477979275 0.405642394,0.483429107 0.437828521,0.490660089 Z" id="路径-351" fill="url(#linearGradient-9)" fill-rule="nonzero"></path>
                        <path d="M-3.55271368e-15,0.238989637 C0.017091546,0.398724492 0.146893829,0.482614642 0.38940685,0.490660089 C0.390790314,0.493797833 0.390790314,2.06756766 0.38940685,5.21196956 C0.139488231,5.20712676 0.00968594709,5.29106875 -3.55271368e-15,5.46379556 C-3.55271368e-15,5.56111849 0.0531421272,5.6407817 0.159426382,5.7027852 L0.634035757,5.46379556 L0.634035757,0.378555851 C0.501927797,0.273527327 0.396255171,0.212292067 0.317017878,0.194850072 C0.237780586,0.177408076 0.13210796,0.192121265 -3.55271368e-15,0.238989637 Z" id="路径-352" fill="url(#linearGradient-10)" opacity="0.496140253"></path>
                    </g>
                    <polygon id="路径-349" fill="#57E3FF" points="24.7619048 86.9160584 41.9047619 70.7409326 41.9047619 79.5425282 24.7619048 95.5958549"></polygon>
                    <polygon id="路径-350" fill="url(#linearGradient-8)" points="41.9047619 70.0618364 36.1448012 67.5544041 24.7619048 78.7078323 24.7619048 86.6735751"></polygon>
                    <g id="编组-25" transform="translate(38.730159, 75.202073)">
                        <path d="M0.437828521,0.490660089 L0.437828521,5.21196956 C0.437828521,5.22358663 0.435708658,5.22480592 0.28108957,5.22480592 C0.125849497,5.22480592 2.55344864e-06,5.33180523 2.55344864e-06,5.46379556 C2.55344864e-06,5.59578589 0.125849497,5.7027852 0.28108957,5.7027852 C0.710238438,5.7027852 1.00000255,5.53612049 1.00000255,5.21196956 L1.00000255,0.459658292 C1.00000255,0.147226824 0.70789162,0 0.28108957,0 C0.125849497,0 2.55344864e-06,0.106999305 2.55344864e-06,0.238989637 C2.55344864e-06,0.370979969 0.125849497,0.477979275 0.28108957,0.477979275 C0.352992091,0.477979275 0.405642394,0.483429107 0.437828521,0.490660089 Z" id="路径-351" fill="url(#linearGradient-9)" fill-rule="nonzero"></path>
                        <path d="M-3.55271368e-15,0.238989637 C0.017091546,0.398724492 0.146893829,0.482614642 0.38940685,0.490660089 C0.390790314,0.493797833 0.390790314,2.06756766 0.38940685,5.21196956 C0.139488231,5.20712676 0.00968594709,5.29106875 -3.55271368e-15,5.46379556 C-3.55271368e-15,5.56111849 0.0531421272,5.6407817 0.159426382,5.7027852 L0.634035757,5.46379556 L0.634035757,0.378555851 C0.501927797,0.273527327 0.396255171,0.212292067 0.317017878,0.194850072 C0.237780586,0.177408076 0.13210796,0.192121265 -3.55271368e-15,0.238989637 Z" id="路径-352" fill="url(#linearGradient-10)" opacity="0.496140253"></path>
                    </g>
                    <g id="编组-25" transform="translate(29.206349, 83.487047)">
                        <path d="M0.437828521,0.490660089 L0.437828521,5.21196956 C0.437828521,5.22358663 0.435708658,5.22480592 0.28108957,5.22480592 C0.125849497,5.22480592 2.55344864e-06,5.33180523 2.55344864e-06,5.46379556 C2.55344864e-06,5.59578589 0.125849497,5.7027852 0.28108957,5.7027852 C0.710238438,5.7027852 1.00000255,5.53612049 1.00000255,5.21196956 L1.00000255,0.459658292 C1.00000255,0.147226824 0.70789162,0 0.28108957,0 C0.125849497,0 2.55344864e-06,0.106999305 2.55344864e-06,0.238989637 C2.55344864e-06,0.370979969 0.125849497,0.477979275 0.28108957,0.477979275 C0.352992091,0.477979275 0.405642394,0.483429107 0.437828521,0.490660089 Z" id="路径-351" fill="url(#linearGradient-9)" fill-rule="nonzero"></path>
                        <path d="M-3.55271368e-15,0.238989637 C0.017091546,0.398724492 0.146893829,0.482614642 0.38940685,0.490660089 C0.390790314,0.493797833 0.390790314,2.06756766 0.38940685,5.21196956 C0.139488231,5.20712676 0.00968594709,5.29106875 -3.55271368e-15,5.46379556 C-3.55271368e-15,5.56111849 0.0531421272,5.6407817 0.159426382,5.7027852 L0.634035757,5.46379556 L0.634035757,0.378555851 C0.501927797,0.273527327 0.396255171,0.212292067 0.317017878,0.194850072 C0.237780586,0.177408076 0.13210796,0.192121265 -3.55271368e-15,0.238989637 Z" id="路径-352" fill="url(#linearGradient-10)" opacity="0.496140253"></path>
                    </g>
                    <polygon id="路径-349" fill="#57E3FF" points="24.7619048 103.486007 41.9047619 87.3108808 41.9047619 96.1124764 24.7619048 112.165803"></polygon>
                    <polygon id="路径-349备份" fill="#57E3FF" points="45.7142857 83.0922242 62.8571429 66.9170984 62.8571429 75.718694 45.7142857 91.7720207"></polygon>
                    <polygon id="路径-350" fill="url(#linearGradient-8)" points="41.9047619 87.2690903 36.1448012 84.761658 24.7619048 95.9150862 24.7619048 103.880829"></polygon>
                    <polygon id="路径-350备份" fill="url(#linearGradient-8)" points="62.8571429 66.8753079 57.0971822 64.3678756 45.7142857 75.5213038 45.7142857 83.4870466"></polygon>
                    <g id="编组-25" transform="translate(38.730159, 91.772021)">
                        <path d="M0.437828521,0.490660089 L0.437828521,5.21196956 C0.437828521,5.22358663 0.435708658,5.22480592 0.28108957,5.22480592 C0.125849497,5.22480592 2.55344864e-06,5.33180523 2.55344864e-06,5.46379556 C2.55344864e-06,5.59578589 0.125849497,5.7027852 0.28108957,5.7027852 C0.710238438,5.7027852 1.00000255,5.53612049 1.00000255,5.21196956 L1.00000255,0.459658292 C1.00000255,0.147226824 0.70789162,0 0.28108957,0 C0.125849497,0 2.55344864e-06,0.106999305 2.55344864e-06,0.238989637 C2.55344864e-06,0.370979969 0.125849497,0.477979275 0.28108957,0.477979275 C0.352992091,0.477979275 0.405642394,0.483429107 0.437828521,0.490660089 Z" id="路径-351" fill="url(#linearGradient-9)" fill-rule="nonzero"></path>
                        <path d="M-3.55271368e-15,0.238989637 C0.017091546,0.398724492 0.146893829,0.482614642 0.38940685,0.490660089 C0.390790314,0.493797833 0.390790314,2.06756766 0.38940685,5.21196956 C0.139488231,5.20712676 0.00968594709,5.29106875 -3.55271368e-15,5.46379556 C-3.55271368e-15,5.56111849 0.0531421272,5.6407817 0.159426382,5.7027852 L0.634035757,5.46379556 L0.634035757,0.378555851 C0.501927797,0.273527327 0.396255171,0.212292067 0.317017878,0.194850072 C0.237780586,0.177408076 0.13210796,0.192121265 -3.55271368e-15,0.238989637 Z" id="路径-352" fill="url(#linearGradient-10)" opacity="0.496140253"></path>
                    </g>
                    <g id="编组-25备份" transform="translate(59.682540, 72.652850)">
                        <path d="M0.437828521,0.490660089 L0.437828521,5.21196956 C0.437828521,5.22358663 0.435708658,5.22480592 0.28108957,5.22480592 C0.125849497,5.22480592 2.55344864e-06,5.33180523 2.55344864e-06,5.46379556 C2.55344864e-06,5.59578589 0.125849497,5.7027852 0.28108957,5.7027852 C0.710238438,5.7027852 1.00000255,5.53612049 1.00000255,5.21196956 L1.00000255,0.459658292 C1.00000255,0.147226824 0.70789162,0 0.28108957,0 C0.125849497,0 2.55344864e-06,0.106999305 2.55344864e-06,0.238989637 C2.55344864e-06,0.370979969 0.125849497,0.477979275 0.28108957,0.477979275 C0.352992091,0.477979275 0.405642394,0.483429107 0.437828521,0.490660089 Z" id="路径-351" fill="url(#linearGradient-9)" fill-rule="nonzero"></path>
                        <path d="M-3.55271368e-15,0.238989637 C0.017091546,0.398724492 0.146893829,0.482614642 0.38940685,0.490660089 C0.390790314,0.493797833 0.390790314,2.06756766 0.38940685,5.21196956 C0.139488231,5.20712676 0.00968594709,5.29106875 -3.55271368e-15,5.46379556 C-3.55271368e-15,5.56111849 0.0531421272,5.6407817 0.159426382,5.7027852 L0.634035757,5.46379556 L0.634035757,0.378555851 C0.501927797,0.273527327 0.396255171,0.212292067 0.317017878,0.194850072 C0.237780586,0.177408076 0.13210796,0.192121265 -3.55271368e-15,0.238989637 Z" id="路径-352" fill="url(#linearGradient-10)" opacity="0.496140253"></path>
                    </g>
                    <g id="编组-25" transform="translate(29.206349, 100.694301)">
                        <path d="M0.437828521,0.490660089 L0.437828521,5.21196956 C0.437828521,5.22358663 0.435708658,5.22480592 0.28108957,5.22480592 C0.125849497,5.22480592 2.55344864e-06,5.33180523 2.55344864e-06,5.46379556 C2.55344864e-06,5.59578589 0.125849497,5.7027852 0.28108957,5.7027852 C0.710238438,5.7027852 1.00000255,5.53612049 1.00000255,5.21196956 L1.00000255,0.459658292 C1.00000255,0.147226824 0.70789162,0 0.28108957,0 C0.125849497,0 2.55344864e-06,0.106999305 2.55344864e-06,0.238989637 C2.55344864e-06,0.370979969 0.125849497,0.477979275 0.28108957,0.477979275 C0.352992091,0.477979275 0.405642394,0.483429107 0.437828521,0.490660089 Z" id="路径-351" fill="url(#linearGradient-9)" fill-rule="nonzero"></path>
                        <path d="M-3.55271368e-15,0.238989637 C0.017091546,0.398724492 0.146893829,0.482614642 0.38940685,0.490660089 C0.390790314,0.493797833 0.390790314,2.06756766 0.38940685,5.21196956 C0.139488231,5.20712676 0.00968594709,5.29106875 -3.55271368e-15,5.46379556 C-3.55271368e-15,5.56111849 0.0531421272,5.6407817 0.159426382,5.7027852 L0.634035757,5.46379556 L0.634035757,0.378555851 C0.501927797,0.273527327 0.396255171,0.212292067 0.317017878,0.194850072 C0.237780586,0.177408076 0.13210796,0.192121265 -3.55271368e-15,0.238989637 Z" id="路径-352" fill="url(#linearGradient-10)" opacity="0.496140253"></path>
                    </g>
                    <g id="编组-25备份-2" transform="translate(50.158730, 80.937824)">
                        <path d="M0.437828521,0.490660089 L0.437828521,5.21196956 C0.437828521,5.22358663 0.435708658,5.22480592 0.28108957,5.22480592 C0.125849497,5.22480592 2.55344864e-06,5.33180523 2.55344864e-06,5.46379556 C2.55344864e-06,5.59578589 0.125849497,5.7027852 0.28108957,5.7027852 C0.710238438,5.7027852 1.00000255,5.53612049 1.00000255,5.21196956 L1.00000255,0.459658292 C1.00000255,0.147226824 0.70789162,0 0.28108957,0 C0.125849497,0 2.55344864e-06,0.106999305 2.55344864e-06,0.238989637 C2.55344864e-06,0.370979969 0.125849497,0.477979275 0.28108957,0.477979275 C0.352992091,0.477979275 0.405642394,0.483429107 0.437828521,0.490660089 Z" id="路径-351" fill="url(#linearGradient-9)" fill-rule="nonzero"></path>
                        <path d="M-3.55271368e-15,0.238989637 C0.017091546,0.398724492 0.146893829,0.482614642 0.38940685,0.490660089 C0.390790314,0.493797833 0.390790314,2.06756766 0.38940685,5.21196956 C0.139488231,5.20712676 0.00968594709,5.29106875 -3.55271368e-15,5.46379556 C-3.55271368e-15,5.56111849 0.0531421272,5.6407817 0.159426382,5.7027852 L0.634035757,5.46379556 L0.634035757,0.378555851 C0.501927797,0.273527327 0.396255171,0.212292067 0.317017878,0.194850072 C0.237780586,0.177408076 0.13210796,0.192121265 -3.55271368e-15,0.238989637 Z" id="路径-352" fill="url(#linearGradient-10)" opacity="0.496140253"></path>
                    </g>
                    <polygon id="路径-349备份" fill="#57E3FF" points="45.7142857 66.522276 62.8571429 50.3471503 62.8571429 59.1487458 45.7142857 75.2020725"></polygon>
                    <polygon id="路径-350备份" fill="url(#linearGradient-8)" points="62.8571429 50.3053597 57.0971822 47.7979275 45.7142857 58.9513556 45.7142857 66.9170984"></polygon>
                    <g id="编组-25备份" transform="translate(59.682540, 55.445596)">
                        <path d="M0.437828521,0.490660089 L0.437828521,5.21196956 C0.437828521,5.22358663 0.435708658,5.22480592 0.28108957,5.22480592 C0.125849497,5.22480592 2.55344864e-06,5.33180523 2.55344864e-06,5.46379556 C2.55344864e-06,5.59578589 0.125849497,5.7027852 0.28108957,5.7027852 C0.710238438,5.7027852 1.00000255,5.53612049 1.00000255,5.21196956 L1.00000255,0.459658292 C1.00000255,0.147226824 0.70789162,0 0.28108957,0 C0.125849497,0 2.55344864e-06,0.106999305 2.55344864e-06,0.238989637 C2.55344864e-06,0.370979969 0.125849497,0.477979275 0.28108957,0.477979275 C0.352992091,0.477979275 0.405642394,0.483429107 0.437828521,0.490660089 Z" id="路径-351" fill="url(#linearGradient-9)" fill-rule="nonzero"></path>
                        <path d="M-3.55271368e-15,0.238989637 C0.017091546,0.398724492 0.146893829,0.482614642 0.38940685,0.490660089 C0.390790314,0.493797833 0.390790314,2.06756766 0.38940685,5.21196956 C0.139488231,5.20712676 0.00968594709,5.29106875 -3.55271368e-15,5.46379556 C-3.55271368e-15,5.56111849 0.0531421272,5.6407817 0.159426382,5.7027852 L0.634035757,5.46379556 L0.634035757,0.378555851 C0.501927797,0.273527327 0.396255171,0.212292067 0.317017878,0.194850072 C0.237780586,0.177408076 0.13210796,0.192121265 -3.55271368e-15,0.238989637 Z" id="路径-352" fill="url(#linearGradient-10)" opacity="0.496140253"></path>
                    </g>
                    <g id="编组-25备份-2" transform="translate(50.158730, 63.093264)">
                        <path d="M0.437828521,0.490660089 L0.437828521,5.21196956 C0.437828521,5.22358663 0.435708658,5.22480592 0.28108957,5.22480592 C0.125849497,5.22480592 2.55344864e-06,5.33180523 2.55344864e-06,5.46379556 C2.55344864e-06,5.59578589 0.125849497,5.7027852 0.28108957,5.7027852 C0.710238438,5.7027852 1.00000255,5.53612049 1.00000255,5.21196956 L1.00000255,0.459658292 C1.00000255,0.147226824 0.70789162,0 0.28108957,0 C0.125849497,0 2.55344864e-06,0.106999305 2.55344864e-06,0.238989637 C2.55344864e-06,0.370979969 0.125849497,0.477979275 0.28108957,0.477979275 C0.352992091,0.477979275 0.405642394,0.483429107 0.437828521,0.490660089 Z" id="路径-351" fill="url(#linearGradient-9)" fill-rule="nonzero"></path>
                        <path d="M-3.55271368e-15,0.238989637 C0.017091546,0.398724492 0.146893829,0.482614642 0.38940685,0.490660089 C0.390790314,0.493797833 0.390790314,2.06756766 0.38940685,5.21196956 C0.139488231,5.20712676 0.00968594709,5.29106875 -3.55271368e-15,5.46379556 C-3.55271368e-15,5.56111849 0.0531421272,5.6407817 0.159426382,5.7027852 L0.634035757,5.46379556 L0.634035757,0.378555851 C0.501927797,0.273527327 0.396255171,0.212292067 0.317017878,0.194850072 C0.237780586,0.177408076 0.13210796,0.192121265 -3.55271368e-15,0.238989637 Z" id="路径-352" fill="url(#linearGradient-10)" opacity="0.496140253"></path>
                    </g>
                    <polygon id="路径-349备份" fill="#57E3FF" points="45.7142857 49.9523279 62.8571429 33.7772021 62.8571429 42.5787976 45.7142857 58.6321244"></polygon>
                    <polygon id="路径-350备份" fill="url(#linearGradient-8)" points="62.8571429 33.7354115 57.0971822 31.2279793 45.7142857 42.3814075 45.7142857 50.3471503"></polygon>
                    <g id="编组-25备份" transform="translate(59.682540, 38.238342)">
                        <path d="M0.437828521,0.490660089 L0.437828521,5.21196956 C0.437828521,5.22358663 0.435708658,5.22480592 0.28108957,5.22480592 C0.125849497,5.22480592 2.55344864e-06,5.33180523 2.55344864e-06,5.46379556 C2.55344864e-06,5.59578589 0.125849497,5.7027852 0.28108957,5.7027852 C0.710238438,5.7027852 1.00000255,5.53612049 1.00000255,5.21196956 L1.00000255,0.459658292 C1.00000255,0.147226824 0.70789162,0 0.28108957,0 C0.125849497,0 2.55344864e-06,0.106999305 2.55344864e-06,0.238989637 C2.55344864e-06,0.370979969 0.125849497,0.477979275 0.28108957,0.477979275 C0.352992091,0.477979275 0.405642394,0.483429107 0.437828521,0.490660089 Z" id="路径-351" fill="url(#linearGradient-9)" fill-rule="nonzero"></path>
                        <path d="M-3.55271368e-15,0.238989637 C0.017091546,0.398724492 0.146893829,0.482614642 0.38940685,0.490660089 C0.390790314,0.493797833 0.390790314,2.06756766 0.38940685,5.21196956 C0.139488231,5.20712676 0.00968594709,5.29106875 -3.55271368e-15,5.46379556 C-3.55271368e-15,5.56111849 0.0531421272,5.6407817 0.159426382,5.7027852 L0.634035757,5.46379556 L0.634035757,0.378555851 C0.501927797,0.273527327 0.396255171,0.212292067 0.317017878,0.194850072 C0.237780586,0.177408076 0.13210796,0.192121265 -3.55271368e-15,0.238989637 Z" id="路径-352" fill="url(#linearGradient-10)" opacity="0.496140253"></path>
                    </g>
                    <g id="编组-25备份-2" transform="translate(50.158730, 47.160622)">
                        <path d="M0.437828521,0.490660089 L0.437828521,5.21196956 C0.437828521,5.22358663 0.435708658,5.22480592 0.28108957,5.22480592 C0.125849497,5.22480592 2.55344864e-06,5.33180523 2.55344864e-06,5.46379556 C2.55344864e-06,5.59578589 0.125849497,5.7027852 0.28108957,5.7027852 C0.710238438,5.7027852 1.00000255,5.53612049 1.00000255,5.21196956 L1.00000255,0.459658292 C1.00000255,0.147226824 0.70789162,0 0.28108957,0 C0.125849497,0 2.55344864e-06,0.106999305 2.55344864e-06,0.238989637 C2.55344864e-06,0.370979969 0.125849497,0.477979275 0.28108957,0.477979275 C0.352992091,0.477979275 0.405642394,0.483429107 0.437828521,0.490660089 Z" id="路径-351" fill="url(#linearGradient-9)" fill-rule="nonzero"></path>
                        <path d="M-3.55271368e-15,0.238989637 C0.017091546,0.398724492 0.146893829,0.482614642 0.38940685,0.490660089 C0.390790314,0.493797833 0.390790314,2.06756766 0.38940685,5.21196956 C0.139488231,5.20712676 0.00968594709,5.29106875 -3.55271368e-15,5.46379556 C-3.55271368e-15,5.56111849 0.0531421272,5.6407817 0.159426382,5.7027852 L0.634035757,5.46379556 L0.634035757,0.378555851 C0.501927797,0.273527327 0.396255171,0.212292067 0.317017878,0.194850072 C0.237780586,0.177408076 0.13210796,0.192121265 -3.55271368e-15,0.238989637 Z" id="路径-352" fill="url(#linearGradient-10)" opacity="0.496140253"></path>
                    </g>
                    <polygon id="路径-353" fill="#57E3FF" points="66.6779899 30.6276019 78.7301587 19.119171 78.7301587 28.0150802 66.6666667 39.5129534"></polygon>
                    <g id="编组-25备份" transform="translate(69.206349, 29.316062)">
                        <path d="M0.437828521,0.490660089 L0.437828521,5.21196956 C0.437828521,5.22358663 0.435708658,5.22480592 0.28108957,5.22480592 C0.125849497,5.22480592 2.55344864e-06,5.33180523 2.55344864e-06,5.46379556 C2.55344864e-06,5.59578589 0.125849497,5.7027852 0.28108957,5.7027852 C0.710238438,5.7027852 1.00000255,5.53612049 1.00000255,5.21196956 L1.00000255,0.459658292 C1.00000255,0.147226824 0.70789162,0 0.28108957,0 C0.125849497,0 2.55344864e-06,0.106999305 2.55344864e-06,0.238989637 C2.55344864e-06,0.370979969 0.125849497,0.477979275 0.28108957,0.477979275 C0.352992091,0.477979275 0.405642394,0.483429107 0.437828521,0.490660089 Z" id="路径-351" fill="url(#linearGradient-9)" fill-rule="nonzero"></path>
                        <path d="M-3.55271368e-15,0.238989637 C0.017091546,0.398724492 0.146893829,0.482614642 0.38940685,0.490660089 C0.390790314,0.493797833 0.390790314,2.06756766 0.38940685,5.21196956 C0.139488231,5.20712676 0.00968594709,5.29106875 -3.55271368e-15,5.46379556 C-3.55271368e-15,5.56111849 0.0531421272,5.6407817 0.159426382,5.7027852 L0.634035757,5.46379556 L0.634035757,0.378555851 C0.501927797,0.273527327 0.396255171,0.212292067 0.317017878,0.194850072 C0.237780586,0.177408076 0.13210796,0.192121265 -3.55271368e-15,0.238989637 Z" id="路径-352" fill="url(#linearGradient-10)" opacity="0.496140253"></path>
                    </g>
                    <g id="编组-25备份-3" transform="translate(75.555556, 23.580311)">
                        <path d="M0.437828521,0.490660089 L0.437828521,5.21196956 C0.437828521,5.22358663 0.435708658,5.22480592 0.28108957,5.22480592 C0.125849497,5.22480592 2.55344864e-06,5.33180523 2.55344864e-06,5.46379556 C2.55344864e-06,5.59578589 0.125849497,5.7027852 0.28108957,5.7027852 C0.710238438,5.7027852 1.00000255,5.53612049 1.00000255,5.21196956 L1.00000255,0.459658292 C1.00000255,0.147226824 0.70789162,0 0.28108957,0 C0.125849497,0 2.55344864e-06,0.106999305 2.55344864e-06,0.238989637 C2.55344864e-06,0.370979969 0.125849497,0.477979275 0.28108957,0.477979275 C0.352992091,0.477979275 0.405642394,0.483429107 0.437828521,0.490660089 Z" id="路径-351" fill="url(#linearGradient-9)" fill-rule="nonzero"></path>
                        <path d="M-3.55271368e-15,0.238989637 C0.017091546,0.398724492 0.146893829,0.482614642 0.38940685,0.490660089 C0.390790314,0.493797833 0.390790314,2.06756766 0.38940685,5.21196956 C0.139488231,5.20712676 0.00968594709,5.29106875 -3.55271368e-15,5.46379556 C-3.55271368e-15,5.56111849 0.0531421272,5.6407817 0.159426382,5.7027852 L0.634035757,5.46379556 L0.634035757,0.378555851 C0.501927797,0.273527327 0.396255171,0.212292067 0.317017878,0.194850072 C0.237780586,0.177408076 0.13210796,0.192121265 -3.55271368e-15,0.238989637 Z" id="路径-352" fill="url(#linearGradient-10)" opacity="0.496140253"></path>
                    </g>
                    <polygon id="路径-354" fill="url(#linearGradient-11)" points="66.6666667 30.5906736 78.7301587 19.4107511 73.5994533 15.9326425 66.7198857 22.2085101"></polygon>
                    <polygon id="路径-353" fill="#57E3FF" points="66.6779899 47.8348558 78.7301587 36.3264249 78.7301587 45.222334 66.6666667 56.7202073"></polygon>
                    <g id="编组-25备份" transform="translate(69.206349, 46.523316)">
                        <path d="M0.437828521,0.490660089 L0.437828521,5.21196956 C0.437828521,5.22358663 0.435708658,5.22480592 0.28108957,5.22480592 C0.125849497,5.22480592 2.55344864e-06,5.33180523 2.55344864e-06,5.46379556 C2.55344864e-06,5.59578589 0.125849497,5.7027852 0.28108957,5.7027852 C0.710238438,5.7027852 1.00000255,5.53612049 1.00000255,5.21196956 L1.00000255,0.459658292 C1.00000255,0.147226824 0.70789162,0 0.28108957,0 C0.125849497,0 2.55344864e-06,0.106999305 2.55344864e-06,0.238989637 C2.55344864e-06,0.370979969 0.125849497,0.477979275 0.28108957,0.477979275 C0.352992091,0.477979275 0.405642394,0.483429107 0.437828521,0.490660089 Z" id="路径-351" fill="url(#linearGradient-9)" fill-rule="nonzero"></path>
                        <path d="M-3.55271368e-15,0.238989637 C0.017091546,0.398724492 0.146893829,0.482614642 0.38940685,0.490660089 C0.390790314,0.493797833 0.390790314,2.06756766 0.38940685,5.21196956 C0.139488231,5.20712676 0.00968594709,5.29106875 -3.55271368e-15,5.46379556 C-3.55271368e-15,5.56111849 0.0531421272,5.6407817 0.159426382,5.7027852 L0.634035757,5.46379556 L0.634035757,0.378555851 C0.501927797,0.273527327 0.396255171,0.212292067 0.317017878,0.194850072 C0.237780586,0.177408076 0.13210796,0.192121265 -3.55271368e-15,0.238989637 Z" id="路径-352" fill="url(#linearGradient-10)" opacity="0.496140253"></path>
                    </g>
                    <g id="编组-25备份-3" transform="translate(75.555556, 40.787565)">
                        <path d="M0.437828521,0.490660089 L0.437828521,5.21196956 C0.437828521,5.22358663 0.435708658,5.22480592 0.28108957,5.22480592 C0.125849497,5.22480592 2.55344864e-06,5.33180523 2.55344864e-06,5.46379556 C2.55344864e-06,5.59578589 0.125849497,5.7027852 0.28108957,5.7027852 C0.710238438,5.7027852 1.00000255,5.53612049 1.00000255,5.21196956 L1.00000255,0.459658292 C1.00000255,0.147226824 0.70789162,0 0.28108957,0 C0.125849497,0 2.55344864e-06,0.106999305 2.55344864e-06,0.238989637 C2.55344864e-06,0.370979969 0.125849497,0.477979275 0.28108957,0.477979275 C0.352992091,0.477979275 0.405642394,0.483429107 0.437828521,0.490660089 Z" id="路径-351" fill="url(#linearGradient-9)" fill-rule="nonzero"></path>
                        <path d="M-3.55271368e-15,0.238989637 C0.017091546,0.398724492 0.146893829,0.482614642 0.38940685,0.490660089 C0.390790314,0.493797833 0.390790314,2.06756766 0.38940685,5.21196956 C0.139488231,5.20712676 0.00968594709,5.29106875 -3.55271368e-15,5.46379556 C-3.55271368e-15,5.56111849 0.0531421272,5.6407817 0.159426382,5.7027852 L0.634035757,5.46379556 L0.634035757,0.378555851 C0.501927797,0.273527327 0.396255171,0.212292067 0.317017878,0.194850072 C0.237780586,0.177408076 0.13210796,0.192121265 -3.55271368e-15,0.238989637 Z" id="路径-352" fill="url(#linearGradient-10)" opacity="0.496140253"></path>
                    </g>
                    <polygon id="路径-354" fill="url(#linearGradient-11)" points="66.6666667 47.7979275 78.7301587 36.6180049 73.5994533 33.1398964 66.7198857 39.415764"></polygon>
                    <polygon id="路径-353" fill="#57E3FF" points="66.6779899 65.0421096 78.7301587 53.5336788 78.7301587 62.4295879 66.6666667 73.9274611"></polygon>
                    <g id="编组-25备份" transform="translate(69.206349, 64.367876)">
                        <path d="M0.437828521,0.490660089 L0.437828521,5.21196956 C0.437828521,5.22358663 0.435708658,5.22480592 0.28108957,5.22480592 C0.125849497,5.22480592 2.55344864e-06,5.33180523 2.55344864e-06,5.46379556 C2.55344864e-06,5.59578589 0.125849497,5.7027852 0.28108957,5.7027852 C0.710238438,5.7027852 1.00000255,5.53612049 1.00000255,5.21196956 L1.00000255,0.459658292 C1.00000255,0.147226824 0.70789162,0 0.28108957,0 C0.125849497,0 2.55344864e-06,0.106999305 2.55344864e-06,0.238989637 C2.55344864e-06,0.370979969 0.125849497,0.477979275 0.28108957,0.477979275 C0.352992091,0.477979275 0.405642394,0.483429107 0.437828521,0.490660089 Z" id="路径-351" fill="url(#linearGradient-9)" fill-rule="nonzero"></path>
                        <path d="M-3.55271368e-15,0.238989637 C0.017091546,0.398724492 0.146893829,0.482614642 0.38940685,0.490660089 C0.390790314,0.493797833 0.390790314,2.06756766 0.38940685,5.21196956 C0.139488231,5.20712676 0.00968594709,5.29106875 -3.55271368e-15,5.46379556 C-3.55271368e-15,5.56111849 0.0531421272,5.6407817 0.159426382,5.7027852 L0.634035757,5.46379556 L0.634035757,0.378555851 C0.501927797,0.273527327 0.396255171,0.212292067 0.317017878,0.194850072 C0.237780586,0.177408076 0.13210796,0.192121265 -3.55271368e-15,0.238989637 Z" id="路径-352" fill="url(#linearGradient-10)" opacity="0.496140253"></path>
                    </g>
                    <g id="编组-25备份-3" transform="translate(75.555556, 58.632124)">
                        <path d="M0.437828521,0.490660089 L0.437828521,5.21196956 C0.437828521,5.22358663 0.435708658,5.22480592 0.28108957,5.22480592 C0.125849497,5.22480592 2.55344864e-06,5.33180523 2.55344864e-06,5.46379556 C2.55344864e-06,5.59578589 0.125849497,5.7027852 0.28108957,5.7027852 C0.710238438,5.7027852 1.00000255,5.53612049 1.00000255,5.21196956 L1.00000255,0.459658292 C1.00000255,0.147226824 0.70789162,0 0.28108957,0 C0.125849497,0 2.55344864e-06,0.106999305 2.55344864e-06,0.238989637 C2.55344864e-06,0.370979969 0.125849497,0.477979275 0.28108957,0.477979275 C0.352992091,0.477979275 0.405642394,0.483429107 0.437828521,0.490660089 Z" id="路径-351" fill="url(#linearGradient-9)" fill-rule="nonzero"></path>
                        <path d="M-3.55271368e-15,0.238989637 C0.017091546,0.398724492 0.146893829,0.482614642 0.38940685,0.490660089 C0.390790314,0.493797833 0.390790314,2.06756766 0.38940685,5.21196956 C0.139488231,5.20712676 0.00968594709,5.29106875 -3.55271368e-15,5.46379556 C-3.55271368e-15,5.56111849 0.0531421272,5.6407817 0.159426382,5.7027852 L0.634035757,5.46379556 L0.634035757,0.378555851 C0.501927797,0.273527327 0.396255171,0.212292067 0.317017878,0.194850072 C0.237780586,0.177408076 0.13210796,0.192121265 -3.55271368e-15,0.238989637 Z" id="路径-352" fill="url(#linearGradient-10)" opacity="0.496140253"></path>
                    </g>
                    <polygon id="路径-354" fill="url(#linearGradient-11)" points="66.6666667 65.642487 78.7301587 54.4625645 73.5994533 50.984456 66.7198857 57.2603236"></polygon>
                    <polygon id="路径-355" fill="url(#linearGradient-12)" opacity="0.187895275" transform="translate(33.968254, 85.398964) scale(1, -1) translate(-33.968254, -85.398964) " points="25.3968254 103.243523 42.5396825 86.905344 42.5396825 67.5544041 25.4080694 81.1498274"></polygon>
                    <polygon id="路径-355" fill="url(#linearGradient-13)" opacity="0.186755952" transform="translate(33.968254, 71.378238) scale(1, -1) translate(-33.968254, -71.378238) " points="25.3968254 80.3005181 42.5396825 63.6477481 42.5396825 62.4559585 25.4080694 78.979223"></polygon>
                    <polygon id="路径-355" fill="url(#linearGradient-12)" opacity="0.187895275" transform="translate(54.920635, 65.642487) scale(1, -1) translate(-54.920635, -65.642487) " points="46.3492063 83.4870466 63.4920635 67.1488673 63.4920635 47.7979275 46.3604504 61.3933507"></polygon>
                    <polygon id="路径-355" fill="url(#linearGradient-13)" opacity="0.186755952" transform="translate(54.920635, 51.621762) scale(1, -1) translate(-54.920635, -51.621762) " points="46.3492063 60.5440415 63.4920635 43.8912715 63.4920635 42.6994819 46.3604504 59.2227464"></polygon>
                    <polygon id="路径-356" fill="url(#linearGradient-14)" opacity="0.187895275" points="66.031746 44.611399 66.031746 59.3856288 78.0952381 68.8290155 78.0952381 55.8692931"></polygon>
                    <polygon id="路径-356" fill="url(#linearGradient-15)" opacity="0.186755952" points="66.031746 39.5129534 66.031746 40.2687405 78.0952381 51.6217617 78.0952381 50.8955869"></polygon>
                    <g id="编组-26" transform="translate(43.809524, 71.378238)">
                        <polygon id="路径-357" fill="#103861" points="0.424804687 0.653587606 -9.99200722e-15 0.463159116 -9.99200722e-15 4.24255126 0.424804687 4.41687186"></polygon>
                        <polygon id="路径-358" fill="#2B6BAC" points="0.414398193 0.656181491 0.931549072 0.169003851 0.931549072 3.93518294 0.405792236 4.41946575"></polygon>
                        <polygon id="路径-359" fill="#649AD1" points="0 0.463159116 0.424804688 0.653587606 0.931549072 0.169003851 0.518585205 1.88737914e-13"></polygon>
                    </g>
                    <g id="编组-26" transform="translate(64.761905, 51.621762)">
                        <polygon id="路径-357" fill="#103861" points="0.424804687 0.653587606 -9.99200722e-15 0.463159116 -9.99200722e-15 4.24255126 0.424804687 4.41687186"></polygon>
                        <polygon id="路径-358" fill="#2B6BAC" points="0.414398193 0.656181491 0.931549072 0.169003851 0.931549072 3.93518294 0.405792236 4.41946575"></polygon>
                        <polygon id="路径-359" fill="#649AD1" points="0 0.463159116 0.424804688 0.653587606 0.931549072 0.169003851 0.518585205 1.88737914e-13"></polygon>
                    </g>
                </g>
                <g id="编组-27备份" transform="translate(47.000000, 6.000000)">
                    <polygon id="路径-341" fill="url(#linearGradient-2)" points="0 110.272715 23.9110539 123 24.1269841 61.6566593 0 51.6217617"></polygon>
                    <polygon id="路径-342备份" fill="url(#linearGradient-3)" points="23.7031621 123 80 68.6429206 80 7.01036269 23.7031621 61.0562292"></polygon>
                    <polygon id="路径-342备份" fill="url(#linearGradient-4)" points="25.3968254 119.176166 42.5396825 102.79889 42.5396825 45.2487047 25.4608666 61.7253949"></polygon>
                    <polygon id="路径-342备份-2" fill="url(#linearGradient-5)" points="46.3492063 99.4196891 63.4920635 82.958387 63.4920635 24.8549223 46.4132475 41.4161487"></polygon>
                    <polygon id="路径-342备份-2" fill="url(#linearGradient-6)" points="66.6666667 80.3005181 78.7301587 68.7104851 78.7301587 10.1968912 66.7311589 21.7729879"></polygon>
                    <polygon id="路径-343" fill="url(#linearGradient-7)" points="23.6222072 61.8186528 0 51.7343518 56.7009666 0 80 7.4793544"></polygon>
                    <polygon id="路径-349" fill="#57E3FF" points="24.7619048 69.7088045 41.9047619 53.5336788 41.9047619 62.3352743 24.7619048 78.388601"></polygon>
                    <polygon id="路径-350" fill="url(#linearGradient-8)" points="41.9047619 53.4918882 36.1448012 50.984456 24.7619048 62.1378841 24.7619048 70.1036269"></polygon>
                    <ellipse id="椭圆形" fill="#4964A4" opacity="0.356212798" cx="1.58730159" cy="53.8523316" rx="1" ry="1"></ellipse>
                    <ellipse id="椭圆形" fill="#4964A4" opacity="0.356212798" cx="21.9047619" cy="62.1373057" rx="1" ry="1"></ellipse>
                    <ellipse id="椭圆形" fill="#0055CD" cx="1.58730159" cy="108.660622" rx="1" ry="1"></ellipse>
                    <ellipse id="椭圆形" fill="#013AB0" cx="21.9047619" cy="119.494819" rx="1" ry="1"></ellipse>
                    <g id="编组-25" transform="translate(38.730159, 58.632124)">
                        <path d="M0.437828521,0.490660089 L0.437828521,5.21196956 C0.437828521,5.22358663 0.435708658,5.22480592 0.28108957,5.22480592 C0.125849497,5.22480592 2.55344864e-06,5.33180523 2.55344864e-06,5.46379556 C2.55344864e-06,5.59578589 0.125849497,5.7027852 0.28108957,5.7027852 C0.710238438,5.7027852 1.00000255,5.53612049 1.00000255,5.21196956 L1.00000255,0.459658292 C1.00000255,0.147226824 0.70789162,0 0.28108957,0 C0.125849497,0 2.55344864e-06,0.106999305 2.55344864e-06,0.238989637 C2.55344864e-06,0.370979969 0.125849497,0.477979275 0.28108957,0.477979275 C0.352992091,0.477979275 0.405642394,0.483429107 0.437828521,0.490660089 Z" id="路径-351" fill="url(#linearGradient-9)" fill-rule="nonzero"></path>
                        <path d="M-3.55271368e-15,0.238989637 C0.017091546,0.398724492 0.146893829,0.482614642 0.38940685,0.490660089 C0.390790314,0.493797833 0.390790314,2.06756766 0.38940685,5.21196956 C0.139488231,5.20712676 0.00968594709,5.29106875 -3.55271368e-15,5.46379556 C-3.55271368e-15,5.56111849 0.0531421272,5.6407817 0.159426382,5.7027852 L0.634035757,5.46379556 L0.634035757,0.378555851 C0.501927797,0.273527327 0.396255171,0.212292067 0.317017878,0.194850072 C0.237780586,0.177408076 0.13210796,0.192121265 -3.55271368e-15,0.238989637 Z" id="路径-352" fill="url(#linearGradient-10)" opacity="0.496140253"></path>
                    </g>
                    <g id="编组-25" transform="translate(29.206349, 66.917098)">
                        <path d="M0.437828521,0.490660089 L0.437828521,5.21196956 C0.437828521,5.22358663 0.435708658,5.22480592 0.28108957,5.22480592 C0.125849497,5.22480592 2.55344864e-06,5.33180523 2.55344864e-06,5.46379556 C2.55344864e-06,5.59578589 0.125849497,5.7027852 0.28108957,5.7027852 C0.710238438,5.7027852 1.00000255,5.53612049 1.00000255,5.21196956 L1.00000255,0.459658292 C1.00000255,0.147226824 0.70789162,0 0.28108957,0 C0.125849497,0 2.55344864e-06,0.106999305 2.55344864e-06,0.238989637 C2.55344864e-06,0.370979969 0.125849497,0.477979275 0.28108957,0.477979275 C0.352992091,0.477979275 0.405642394,0.483429107 0.437828521,0.490660089 Z" id="路径-351" fill="url(#linearGradient-9)" fill-rule="nonzero"></path>
                        <path d="M-3.55271368e-15,0.238989637 C0.017091546,0.398724492 0.146893829,0.482614642 0.38940685,0.490660089 C0.390790314,0.493797833 0.390790314,2.06756766 0.38940685,5.21196956 C0.139488231,5.20712676 0.00968594709,5.29106875 -3.55271368e-15,5.46379556 C-3.55271368e-15,5.56111849 0.0531421272,5.6407817 0.159426382,5.7027852 L0.634035757,5.46379556 L0.634035757,0.378555851 C0.501927797,0.273527327 0.396255171,0.212292067 0.317017878,0.194850072 C0.237780586,0.177408076 0.13210796,0.192121265 -3.55271368e-15,0.238989637 Z" id="路径-352" fill="url(#linearGradient-10)" opacity="0.496140253"></path>
                    </g>
                    <polygon id="路径-349" fill="#57E3FF" points="24.7619048 86.9160584 41.9047619 70.7409326 41.9047619 79.5425282 24.7619048 95.5958549"></polygon>
                    <polygon id="路径-350" fill="url(#linearGradient-8)" points="41.9047619 70.0618364 36.1448012 67.5544041 24.7619048 78.7078323 24.7619048 86.6735751"></polygon>
                    <g id="编组-25" transform="translate(38.730159, 75.202073)">
                        <path d="M0.437828521,0.490660089 L0.437828521,5.21196956 C0.437828521,5.22358663 0.435708658,5.22480592 0.28108957,5.22480592 C0.125849497,5.22480592 2.55344864e-06,5.33180523 2.55344864e-06,5.46379556 C2.55344864e-06,5.59578589 0.125849497,5.7027852 0.28108957,5.7027852 C0.710238438,5.7027852 1.00000255,5.53612049 1.00000255,5.21196956 L1.00000255,0.459658292 C1.00000255,0.147226824 0.70789162,0 0.28108957,0 C0.125849497,0 2.55344864e-06,0.106999305 2.55344864e-06,0.238989637 C2.55344864e-06,0.370979969 0.125849497,0.477979275 0.28108957,0.477979275 C0.352992091,0.477979275 0.405642394,0.483429107 0.437828521,0.490660089 Z" id="路径-351" fill="url(#linearGradient-9)" fill-rule="nonzero"></path>
                        <path d="M-3.55271368e-15,0.238989637 C0.017091546,0.398724492 0.146893829,0.482614642 0.38940685,0.490660089 C0.390790314,0.493797833 0.390790314,2.06756766 0.38940685,5.21196956 C0.139488231,5.20712676 0.00968594709,5.29106875 -3.55271368e-15,5.46379556 C-3.55271368e-15,5.56111849 0.0531421272,5.6407817 0.159426382,5.7027852 L0.634035757,5.46379556 L0.634035757,0.378555851 C0.501927797,0.273527327 0.396255171,0.212292067 0.317017878,0.194850072 C0.237780586,0.177408076 0.13210796,0.192121265 -3.55271368e-15,0.238989637 Z" id="路径-352" fill="url(#linearGradient-10)" opacity="0.496140253"></path>
                    </g>
                    <g id="编组-25" transform="translate(29.206349, 83.487047)">
                        <path d="M0.437828521,0.490660089 L0.437828521,5.21196956 C0.437828521,5.22358663 0.435708658,5.22480592 0.28108957,5.22480592 C0.125849497,5.22480592 2.55344864e-06,5.33180523 2.55344864e-06,5.46379556 C2.55344864e-06,5.59578589 0.125849497,5.7027852 0.28108957,5.7027852 C0.710238438,5.7027852 1.00000255,5.53612049 1.00000255,5.21196956 L1.00000255,0.459658292 C1.00000255,0.147226824 0.70789162,0 0.28108957,0 C0.125849497,0 2.55344864e-06,0.106999305 2.55344864e-06,0.238989637 C2.55344864e-06,0.370979969 0.125849497,0.477979275 0.28108957,0.477979275 C0.352992091,0.477979275 0.405642394,0.483429107 0.437828521,0.490660089 Z" id="路径-351" fill="url(#linearGradient-9)" fill-rule="nonzero"></path>
                        <path d="M-3.55271368e-15,0.238989637 C0.017091546,0.398724492 0.146893829,0.482614642 0.38940685,0.490660089 C0.390790314,0.493797833 0.390790314,2.06756766 0.38940685,5.21196956 C0.139488231,5.20712676 0.00968594709,5.29106875 -3.55271368e-15,5.46379556 C-3.55271368e-15,5.56111849 0.0531421272,5.6407817 0.159426382,5.7027852 L0.634035757,5.46379556 L0.634035757,0.378555851 C0.501927797,0.273527327 0.396255171,0.212292067 0.317017878,0.194850072 C0.237780586,0.177408076 0.13210796,0.192121265 -3.55271368e-15,0.238989637 Z" id="路径-352" fill="url(#linearGradient-10)" opacity="0.496140253"></path>
                    </g>
                    <polygon id="路径-349" fill="#57E3FF" points="24.7619048 103.486007 41.9047619 87.3108808 41.9047619 96.1124764 24.7619048 112.165803"></polygon>
                    <polygon id="路径-349备份" fill="#57E3FF" points="45.7142857 83.0922242 62.8571429 66.9170984 62.8571429 75.718694 45.7142857 91.7720207"></polygon>
                    <polygon id="路径-350" fill="url(#linearGradient-8)" points="41.9047619 87.2690903 36.1448012 84.761658 24.7619048 95.9150862 24.7619048 103.880829"></polygon>
                    <polygon id="路径-350备份" fill="url(#linearGradient-8)" points="62.8571429 66.8753079 57.0971822 64.3678756 45.7142857 75.5213038 45.7142857 83.4870466"></polygon>
                    <g id="编组-25" transform="translate(38.730159, 91.772021)">
                        <path d="M0.437828521,0.490660089 L0.437828521,5.21196956 C0.437828521,5.22358663 0.435708658,5.22480592 0.28108957,5.22480592 C0.125849497,5.22480592 2.55344864e-06,5.33180523 2.55344864e-06,5.46379556 C2.55344864e-06,5.59578589 0.125849497,5.7027852 0.28108957,5.7027852 C0.710238438,5.7027852 1.00000255,5.53612049 1.00000255,5.21196956 L1.00000255,0.459658292 C1.00000255,0.147226824 0.70789162,0 0.28108957,0 C0.125849497,0 2.55344864e-06,0.106999305 2.55344864e-06,0.238989637 C2.55344864e-06,0.370979969 0.125849497,0.477979275 0.28108957,0.477979275 C0.352992091,0.477979275 0.405642394,0.483429107 0.437828521,0.490660089 Z" id="路径-351" fill="url(#linearGradient-9)" fill-rule="nonzero"></path>
                        <path d="M-3.55271368e-15,0.238989637 C0.017091546,0.398724492 0.146893829,0.482614642 0.38940685,0.490660089 C0.390790314,0.493797833 0.390790314,2.06756766 0.38940685,5.21196956 C0.139488231,5.20712676 0.00968594709,5.29106875 -3.55271368e-15,5.46379556 C-3.55271368e-15,5.56111849 0.0531421272,5.6407817 0.159426382,5.7027852 L0.634035757,5.46379556 L0.634035757,0.378555851 C0.501927797,0.273527327 0.396255171,0.212292067 0.317017878,0.194850072 C0.237780586,0.177408076 0.13210796,0.192121265 -3.55271368e-15,0.238989637 Z" id="路径-352" fill="url(#linearGradient-10)" opacity="0.496140253"></path>
                    </g>
                    <g id="编组-25备份" transform="translate(59.682540, 72.652850)">
                        <path d="M0.437828521,0.490660089 L0.437828521,5.21196956 C0.437828521,5.22358663 0.435708658,5.22480592 0.28108957,5.22480592 C0.125849497,5.22480592 2.55344864e-06,5.33180523 2.55344864e-06,5.46379556 C2.55344864e-06,5.59578589 0.125849497,5.7027852 0.28108957,5.7027852 C0.710238438,5.7027852 1.00000255,5.53612049 1.00000255,5.21196956 L1.00000255,0.459658292 C1.00000255,0.147226824 0.70789162,0 0.28108957,0 C0.125849497,0 2.55344864e-06,0.106999305 2.55344864e-06,0.238989637 C2.55344864e-06,0.370979969 0.125849497,0.477979275 0.28108957,0.477979275 C0.352992091,0.477979275 0.405642394,0.483429107 0.437828521,0.490660089 Z" id="路径-351" fill="url(#linearGradient-9)" fill-rule="nonzero"></path>
                        <path d="M-3.55271368e-15,0.238989637 C0.017091546,0.398724492 0.146893829,0.482614642 0.38940685,0.490660089 C0.390790314,0.493797833 0.390790314,2.06756766 0.38940685,5.21196956 C0.139488231,5.20712676 0.00968594709,5.29106875 -3.55271368e-15,5.46379556 C-3.55271368e-15,5.56111849 0.0531421272,5.6407817 0.159426382,5.7027852 L0.634035757,5.46379556 L0.634035757,0.378555851 C0.501927797,0.273527327 0.396255171,0.212292067 0.317017878,0.194850072 C0.237780586,0.177408076 0.13210796,0.192121265 -3.55271368e-15,0.238989637 Z" id="路径-352" fill="url(#linearGradient-10)" opacity="0.496140253"></path>
                    </g>
                    <g id="编组-25" transform="translate(29.206349, 100.694301)">
                        <path d="M0.437828521,0.490660089 L0.437828521,5.21196956 C0.437828521,5.22358663 0.435708658,5.22480592 0.28108957,5.22480592 C0.125849497,5.22480592 2.55344864e-06,5.33180523 2.55344864e-06,5.46379556 C2.55344864e-06,5.59578589 0.125849497,5.7027852 0.28108957,5.7027852 C0.710238438,5.7027852 1.00000255,5.53612049 1.00000255,5.21196956 L1.00000255,0.459658292 C1.00000255,0.147226824 0.70789162,0 0.28108957,0 C0.125849497,0 2.55344864e-06,0.106999305 2.55344864e-06,0.238989637 C2.55344864e-06,0.370979969 0.125849497,0.477979275 0.28108957,0.477979275 C0.352992091,0.477979275 0.405642394,0.483429107 0.437828521,0.490660089 Z" id="路径-351" fill="url(#linearGradient-9)" fill-rule="nonzero"></path>
                        <path d="M-3.55271368e-15,0.238989637 C0.017091546,0.398724492 0.146893829,0.482614642 0.38940685,0.490660089 C0.390790314,0.493797833 0.390790314,2.06756766 0.38940685,5.21196956 C0.139488231,5.20712676 0.00968594709,5.29106875 -3.55271368e-15,5.46379556 C-3.55271368e-15,5.56111849 0.0531421272,5.6407817 0.159426382,5.7027852 L0.634035757,5.46379556 L0.634035757,0.378555851 C0.501927797,0.273527327 0.396255171,0.212292067 0.317017878,0.194850072 C0.237780586,0.177408076 0.13210796,0.192121265 -3.55271368e-15,0.238989637 Z" id="路径-352" fill="url(#linearGradient-10)" opacity="0.496140253"></path>
                    </g>
                    <g id="编组-25备份-2" transform="translate(50.158730, 80.937824)">
                        <path d="M0.437828521,0.490660089 L0.437828521,5.21196956 C0.437828521,5.22358663 0.435708658,5.22480592 0.28108957,5.22480592 C0.125849497,5.22480592 2.55344864e-06,5.33180523 2.55344864e-06,5.46379556 C2.55344864e-06,5.59578589 0.125849497,5.7027852 0.28108957,5.7027852 C0.710238438,5.7027852 1.00000255,5.53612049 1.00000255,5.21196956 L1.00000255,0.459658292 C1.00000255,0.147226824 0.70789162,0 0.28108957,0 C0.125849497,0 2.55344864e-06,0.106999305 2.55344864e-06,0.238989637 C2.55344864e-06,0.370979969 0.125849497,0.477979275 0.28108957,0.477979275 C0.352992091,0.477979275 0.405642394,0.483429107 0.437828521,0.490660089 Z" id="路径-351" fill="url(#linearGradient-9)" fill-rule="nonzero"></path>
                        <path d="M-3.55271368e-15,0.238989637 C0.017091546,0.398724492 0.146893829,0.482614642 0.38940685,0.490660089 C0.390790314,0.493797833 0.390790314,2.06756766 0.38940685,5.21196956 C0.139488231,5.20712676 0.00968594709,5.29106875 -3.55271368e-15,5.46379556 C-3.55271368e-15,5.56111849 0.0531421272,5.6407817 0.159426382,5.7027852 L0.634035757,5.46379556 L0.634035757,0.378555851 C0.501927797,0.273527327 0.396255171,0.212292067 0.317017878,0.194850072 C0.237780586,0.177408076 0.13210796,0.192121265 -3.55271368e-15,0.238989637 Z" id="路径-352" fill="url(#linearGradient-10)" opacity="0.496140253"></path>
                    </g>
                    <polygon id="路径-349备份" fill="#57E3FF" points="45.7142857 66.522276 62.8571429 50.3471503 62.8571429 59.1487458 45.7142857 75.2020725"></polygon>
                    <polygon id="路径-350备份" fill="url(#linearGradient-8)" points="62.8571429 50.3053597 57.0971822 47.7979275 45.7142857 58.9513556 45.7142857 66.9170984"></polygon>
                    <g id="编组-25备份" transform="translate(59.682540, 55.445596)">
                        <path d="M0.437828521,0.490660089 L0.437828521,5.21196956 C0.437828521,5.22358663 0.435708658,5.22480592 0.28108957,5.22480592 C0.125849497,5.22480592 2.55344864e-06,5.33180523 2.55344864e-06,5.46379556 C2.55344864e-06,5.59578589 0.125849497,5.7027852 0.28108957,5.7027852 C0.710238438,5.7027852 1.00000255,5.53612049 1.00000255,5.21196956 L1.00000255,0.459658292 C1.00000255,0.147226824 0.70789162,0 0.28108957,0 C0.125849497,0 2.55344864e-06,0.106999305 2.55344864e-06,0.238989637 C2.55344864e-06,0.370979969 0.125849497,0.477979275 0.28108957,0.477979275 C0.352992091,0.477979275 0.405642394,0.483429107 0.437828521,0.490660089 Z" id="路径-351" fill="url(#linearGradient-9)" fill-rule="nonzero"></path>
                        <path d="M-3.55271368e-15,0.238989637 C0.017091546,0.398724492 0.146893829,0.482614642 0.38940685,0.490660089 C0.390790314,0.493797833 0.390790314,2.06756766 0.38940685,5.21196956 C0.139488231,5.20712676 0.00968594709,5.29106875 -3.55271368e-15,5.46379556 C-3.55271368e-15,5.56111849 0.0531421272,5.6407817 0.159426382,5.7027852 L0.634035757,5.46379556 L0.634035757,0.378555851 C0.501927797,0.273527327 0.396255171,0.212292067 0.317017878,0.194850072 C0.237780586,0.177408076 0.13210796,0.192121265 -3.55271368e-15,0.238989637 Z" id="路径-352" fill="url(#linearGradient-10)" opacity="0.496140253"></path>
                    </g>
                    <g id="编组-25备份-2" transform="translate(50.158730, 63.093264)">
                        <path d="M0.437828521,0.490660089 L0.437828521,5.21196956 C0.437828521,5.22358663 0.435708658,5.22480592 0.28108957,5.22480592 C0.125849497,5.22480592 2.55344864e-06,5.33180523 2.55344864e-06,5.46379556 C2.55344864e-06,5.59578589 0.125849497,5.7027852 0.28108957,5.7027852 C0.710238438,5.7027852 1.00000255,5.53612049 1.00000255,5.21196956 L1.00000255,0.459658292 C1.00000255,0.147226824 0.70789162,0 0.28108957,0 C0.125849497,0 2.55344864e-06,0.106999305 2.55344864e-06,0.238989637 C2.55344864e-06,0.370979969 0.125849497,0.477979275 0.28108957,0.477979275 C0.352992091,0.477979275 0.405642394,0.483429107 0.437828521,0.490660089 Z" id="路径-351" fill="url(#linearGradient-9)" fill-rule="nonzero"></path>
                        <path d="M-3.55271368e-15,0.238989637 C0.017091546,0.398724492 0.146893829,0.482614642 0.38940685,0.490660089 C0.390790314,0.493797833 0.390790314,2.06756766 0.38940685,5.21196956 C0.139488231,5.20712676 0.00968594709,5.29106875 -3.55271368e-15,5.46379556 C-3.55271368e-15,5.56111849 0.0531421272,5.6407817 0.159426382,5.7027852 L0.634035757,5.46379556 L0.634035757,0.378555851 C0.501927797,0.273527327 0.396255171,0.212292067 0.317017878,0.194850072 C0.237780586,0.177408076 0.13210796,0.192121265 -3.55271368e-15,0.238989637 Z" id="路径-352" fill="url(#linearGradient-10)" opacity="0.496140253"></path>
                    </g>
                    <polygon id="路径-349备份" fill="#57E3FF" points="45.7142857 49.9523279 62.8571429 33.7772021 62.8571429 42.5787976 45.7142857 58.6321244"></polygon>
                    <polygon id="路径-350备份" fill="url(#linearGradient-8)" points="62.8571429 33.7354115 57.0971822 31.2279793 45.7142857 42.3814075 45.7142857 50.3471503"></polygon>
                    <g id="编组-25备份" transform="translate(59.682540, 38.238342)">
                        <path d="M0.437828521,0.490660089 L0.437828521,5.21196956 C0.437828521,5.22358663 0.435708658,5.22480592 0.28108957,5.22480592 C0.125849497,5.22480592 2.55344864e-06,5.33180523 2.55344864e-06,5.46379556 C2.55344864e-06,5.59578589 0.125849497,5.7027852 0.28108957,5.7027852 C0.710238438,5.7027852 1.00000255,5.53612049 1.00000255,5.21196956 L1.00000255,0.459658292 C1.00000255,0.147226824 0.70789162,0 0.28108957,0 C0.125849497,0 2.55344864e-06,0.106999305 2.55344864e-06,0.238989637 C2.55344864e-06,0.370979969 0.125849497,0.477979275 0.28108957,0.477979275 C0.352992091,0.477979275 0.405642394,0.483429107 0.437828521,0.490660089 Z" id="路径-351" fill="url(#linearGradient-9)" fill-rule="nonzero"></path>
                        <path d="M-3.55271368e-15,0.238989637 C0.017091546,0.398724492 0.146893829,0.482614642 0.38940685,0.490660089 C0.390790314,0.493797833 0.390790314,2.06756766 0.38940685,5.21196956 C0.139488231,5.20712676 0.00968594709,5.29106875 -3.55271368e-15,5.46379556 C-3.55271368e-15,5.56111849 0.0531421272,5.6407817 0.159426382,5.7027852 L0.634035757,5.46379556 L0.634035757,0.378555851 C0.501927797,0.273527327 0.396255171,0.212292067 0.317017878,0.194850072 C0.237780586,0.177408076 0.13210796,0.192121265 -3.55271368e-15,0.238989637 Z" id="路径-352" fill="url(#linearGradient-10)" opacity="0.496140253"></path>
                    </g>
                    <g id="编组-25备份-2" transform="translate(50.158730, 47.160622)">
                        <path d="M0.437828521,0.490660089 L0.437828521,5.21196956 C0.437828521,5.22358663 0.435708658,5.22480592 0.28108957,5.22480592 C0.125849497,5.22480592 2.55344864e-06,5.33180523 2.55344864e-06,5.46379556 C2.55344864e-06,5.59578589 0.125849497,5.7027852 0.28108957,5.7027852 C0.710238438,5.7027852 1.00000255,5.53612049 1.00000255,5.21196956 L1.00000255,0.459658292 C1.00000255,0.147226824 0.70789162,0 0.28108957,0 C0.125849497,0 2.55344864e-06,0.106999305 2.55344864e-06,0.238989637 C2.55344864e-06,0.370979969 0.125849497,0.477979275 0.28108957,0.477979275 C0.352992091,0.477979275 0.405642394,0.483429107 0.437828521,0.490660089 Z" id="路径-351" fill="url(#linearGradient-9)" fill-rule="nonzero"></path>
                        <path d="M-3.55271368e-15,0.238989637 C0.017091546,0.398724492 0.146893829,0.482614642 0.38940685,0.490660089 C0.390790314,0.493797833 0.390790314,2.06756766 0.38940685,5.21196956 C0.139488231,5.20712676 0.00968594709,5.29106875 -3.55271368e-15,5.46379556 C-3.55271368e-15,5.56111849 0.0531421272,5.6407817 0.159426382,5.7027852 L0.634035757,5.46379556 L0.634035757,0.378555851 C0.501927797,0.273527327 0.396255171,0.212292067 0.317017878,0.194850072 C0.237780586,0.177408076 0.13210796,0.192121265 -3.55271368e-15,0.238989637 Z" id="路径-352" fill="url(#linearGradient-10)" opacity="0.496140253"></path>
                    </g>
                    <polygon id="路径-353" fill="#57E3FF" points="66.6779899 30.6276019 78.7301587 19.119171 78.7301587 28.0150802 66.6666667 39.5129534"></polygon>
                    <g id="编组-25备份" transform="translate(69.206349, 29.316062)">
                        <path d="M0.437828521,0.490660089 L0.437828521,5.21196956 C0.437828521,5.22358663 0.435708658,5.22480592 0.28108957,5.22480592 C0.125849497,5.22480592 2.55344864e-06,5.33180523 2.55344864e-06,5.46379556 C2.55344864e-06,5.59578589 0.125849497,5.7027852 0.28108957,5.7027852 C0.710238438,5.7027852 1.00000255,5.53612049 1.00000255,5.21196956 L1.00000255,0.459658292 C1.00000255,0.147226824 0.70789162,0 0.28108957,0 C0.125849497,0 2.55344864e-06,0.106999305 2.55344864e-06,0.238989637 C2.55344864e-06,0.370979969 0.125849497,0.477979275 0.28108957,0.477979275 C0.352992091,0.477979275 0.405642394,0.483429107 0.437828521,0.490660089 Z" id="路径-351" fill="url(#linearGradient-9)" fill-rule="nonzero"></path>
                        <path d="M-3.55271368e-15,0.238989637 C0.017091546,0.398724492 0.146893829,0.482614642 0.38940685,0.490660089 C0.390790314,0.493797833 0.390790314,2.06756766 0.38940685,5.21196956 C0.139488231,5.20712676 0.00968594709,5.29106875 -3.55271368e-15,5.46379556 C-3.55271368e-15,5.56111849 0.0531421272,5.6407817 0.159426382,5.7027852 L0.634035757,5.46379556 L0.634035757,0.378555851 C0.501927797,0.273527327 0.396255171,0.212292067 0.317017878,0.194850072 C0.237780586,0.177408076 0.13210796,0.192121265 -3.55271368e-15,0.238989637 Z" id="路径-352" fill="url(#linearGradient-10)" opacity="0.496140253"></path>
                    </g>
                    <g id="编组-25备份-3" transform="translate(75.555556, 23.580311)">
                        <path d="M0.437828521,0.490660089 L0.437828521,5.21196956 C0.437828521,5.22358663 0.435708658,5.22480592 0.28108957,5.22480592 C0.125849497,5.22480592 2.55344864e-06,5.33180523 2.55344864e-06,5.46379556 C2.55344864e-06,5.59578589 0.125849497,5.7027852 0.28108957,5.7027852 C0.710238438,5.7027852 1.00000255,5.53612049 1.00000255,5.21196956 L1.00000255,0.459658292 C1.00000255,0.147226824 0.70789162,0 0.28108957,0 C0.125849497,0 2.55344864e-06,0.106999305 2.55344864e-06,0.238989637 C2.55344864e-06,0.370979969 0.125849497,0.477979275 0.28108957,0.477979275 C0.352992091,0.477979275 0.405642394,0.483429107 0.437828521,0.490660089 Z" id="路径-351" fill="url(#linearGradient-9)" fill-rule="nonzero"></path>
                        <path d="M-3.55271368e-15,0.238989637 C0.017091546,0.398724492 0.146893829,0.482614642 0.38940685,0.490660089 C0.390790314,0.493797833 0.390790314,2.06756766 0.38940685,5.21196956 C0.139488231,5.20712676 0.00968594709,5.29106875 -3.55271368e-15,5.46379556 C-3.55271368e-15,5.56111849 0.0531421272,5.6407817 0.159426382,5.7027852 L0.634035757,5.46379556 L0.634035757,0.378555851 C0.501927797,0.273527327 0.396255171,0.212292067 0.317017878,0.194850072 C0.237780586,0.177408076 0.13210796,0.192121265 -3.55271368e-15,0.238989637 Z" id="路径-352" fill="url(#linearGradient-10)" opacity="0.496140253"></path>
                    </g>
                    <polygon id="路径-354" fill="url(#linearGradient-11)" points="66.6666667 30.5906736 78.7301587 19.4107511 73.5994533 15.9326425 66.7198857 22.2085101"></polygon>
                    <polygon id="路径-353" fill="#57E3FF" points="66.6779899 47.8348558 78.7301587 36.3264249 78.7301587 45.222334 66.6666667 56.7202073"></polygon>
                    <g id="编组-25备份" transform="translate(69.206349, 46.523316)">
                        <path d="M0.437828521,0.490660089 L0.437828521,5.21196956 C0.437828521,5.22358663 0.435708658,5.22480592 0.28108957,5.22480592 C0.125849497,5.22480592 2.55344864e-06,5.33180523 2.55344864e-06,5.46379556 C2.55344864e-06,5.59578589 0.125849497,5.7027852 0.28108957,5.7027852 C0.710238438,5.7027852 1.00000255,5.53612049 1.00000255,5.21196956 L1.00000255,0.459658292 C1.00000255,0.147226824 0.70789162,0 0.28108957,0 C0.125849497,0 2.55344864e-06,0.106999305 2.55344864e-06,0.238989637 C2.55344864e-06,0.370979969 0.125849497,0.477979275 0.28108957,0.477979275 C0.352992091,0.477979275 0.405642394,0.483429107 0.437828521,0.490660089 Z" id="路径-351" fill="url(#linearGradient-9)" fill-rule="nonzero"></path>
                        <path d="M-3.55271368e-15,0.238989637 C0.017091546,0.398724492 0.146893829,0.482614642 0.38940685,0.490660089 C0.390790314,0.493797833 0.390790314,2.06756766 0.38940685,5.21196956 C0.139488231,5.20712676 0.00968594709,5.29106875 -3.55271368e-15,5.46379556 C-3.55271368e-15,5.56111849 0.0531421272,5.6407817 0.159426382,5.7027852 L0.634035757,5.46379556 L0.634035757,0.378555851 C0.501927797,0.273527327 0.396255171,0.212292067 0.317017878,0.194850072 C0.237780586,0.177408076 0.13210796,0.192121265 -3.55271368e-15,0.238989637 Z" id="路径-352" fill="url(#linearGradient-10)" opacity="0.496140253"></path>
                    </g>
                    <g id="编组-25备份-3" transform="translate(75.555556, 40.787565)">
                        <path d="M0.437828521,0.490660089 L0.437828521,5.21196956 C0.437828521,5.22358663 0.435708658,5.22480592 0.28108957,5.22480592 C0.125849497,5.22480592 2.55344864e-06,5.33180523 2.55344864e-06,5.46379556 C2.55344864e-06,5.59578589 0.125849497,5.7027852 0.28108957,5.7027852 C0.710238438,5.7027852 1.00000255,5.53612049 1.00000255,5.21196956 L1.00000255,0.459658292 C1.00000255,0.147226824 0.70789162,0 0.28108957,0 C0.125849497,0 2.55344864e-06,0.106999305 2.55344864e-06,0.238989637 C2.55344864e-06,0.370979969 0.125849497,0.477979275 0.28108957,0.477979275 C0.352992091,0.477979275 0.405642394,0.483429107 0.437828521,0.490660089 Z" id="路径-351" fill="url(#linearGradient-9)" fill-rule="nonzero"></path>
                        <path d="M-3.55271368e-15,0.238989637 C0.017091546,0.398724492 0.146893829,0.482614642 0.38940685,0.490660089 C0.390790314,0.493797833 0.390790314,2.06756766 0.38940685,5.21196956 C0.139488231,5.20712676 0.00968594709,5.29106875 -3.55271368e-15,5.46379556 C-3.55271368e-15,5.56111849 0.0531421272,5.6407817 0.159426382,5.7027852 L0.634035757,5.46379556 L0.634035757,0.378555851 C0.501927797,0.273527327 0.396255171,0.212292067 0.317017878,0.194850072 C0.237780586,0.177408076 0.13210796,0.192121265 -3.55271368e-15,0.238989637 Z" id="路径-352" fill="url(#linearGradient-10)" opacity="0.496140253"></path>
                    </g>
                    <polygon id="路径-354" fill="url(#linearGradient-11)" points="66.6666667 47.7979275 78.7301587 36.6180049 73.5994533 33.1398964 66.7198857 39.415764"></polygon>
                    <polygon id="路径-353" fill="#57E3FF" points="66.6779899 65.0421096 78.7301587 53.5336788 78.7301587 62.4295879 66.6666667 73.9274611"></polygon>
                    <g id="编组-25备份" transform="translate(69.206349, 64.367876)">
                        <path d="M0.437828521,0.490660089 L0.437828521,5.21196956 C0.437828521,5.22358663 0.435708658,5.22480592 0.28108957,5.22480592 C0.125849497,5.22480592 2.55344864e-06,5.33180523 2.55344864e-06,5.46379556 C2.55344864e-06,5.59578589 0.125849497,5.7027852 0.28108957,5.7027852 C0.710238438,5.7027852 1.00000255,5.53612049 1.00000255,5.21196956 L1.00000255,0.459658292 C1.00000255,0.147226824 0.70789162,0 0.28108957,0 C0.125849497,0 2.55344864e-06,0.106999305 2.55344864e-06,0.238989637 C2.55344864e-06,0.370979969 0.125849497,0.477979275 0.28108957,0.477979275 C0.352992091,0.477979275 0.405642394,0.483429107 0.437828521,0.490660089 Z" id="路径-351" fill="url(#linearGradient-9)" fill-rule="nonzero"></path>
                        <path d="M-3.55271368e-15,0.238989637 C0.017091546,0.398724492 0.146893829,0.482614642 0.38940685,0.490660089 C0.390790314,0.493797833 0.390790314,2.06756766 0.38940685,5.21196956 C0.139488231,5.20712676 0.00968594709,5.29106875 -3.55271368e-15,5.46379556 C-3.55271368e-15,5.56111849 0.0531421272,5.6407817 0.159426382,5.7027852 L0.634035757,5.46379556 L0.634035757,0.378555851 C0.501927797,0.273527327 0.396255171,0.212292067 0.317017878,0.194850072 C0.237780586,0.177408076 0.13210796,0.192121265 -3.55271368e-15,0.238989637 Z" id="路径-352" fill="url(#linearGradient-10)" opacity="0.496140253"></path>
                    </g>
                    <g id="编组-25备份-3" transform="translate(75.555556, 58.632124)">
                        <path d="M0.437828521,0.490660089 L0.437828521,5.21196956 C0.437828521,5.22358663 0.435708658,5.22480592 0.28108957,5.22480592 C0.125849497,5.22480592 2.55344864e-06,5.33180523 2.55344864e-06,5.46379556 C2.55344864e-06,5.59578589 0.125849497,5.7027852 0.28108957,5.7027852 C0.710238438,5.7027852 1.00000255,5.53612049 1.00000255,5.21196956 L1.00000255,0.459658292 C1.00000255,0.147226824 0.70789162,0 0.28108957,0 C0.125849497,0 2.55344864e-06,0.106999305 2.55344864e-06,0.238989637 C2.55344864e-06,0.370979969 0.125849497,0.477979275 0.28108957,0.477979275 C0.352992091,0.477979275 0.405642394,0.483429107 0.437828521,0.490660089 Z" id="路径-351" fill="url(#linearGradient-9)" fill-rule="nonzero"></path>
                        <path d="M-3.55271368e-15,0.238989637 C0.017091546,0.398724492 0.146893829,0.482614642 0.38940685,0.490660089 C0.390790314,0.493797833 0.390790314,2.06756766 0.38940685,5.21196956 C0.139488231,5.20712676 0.00968594709,5.29106875 -3.55271368e-15,5.46379556 C-3.55271368e-15,5.56111849 0.0531421272,5.6407817 0.159426382,5.7027852 L0.634035757,5.46379556 L0.634035757,0.378555851 C0.501927797,0.273527327 0.396255171,0.212292067 0.317017878,0.194850072 C0.237780586,0.177408076 0.13210796,0.192121265 -3.55271368e-15,0.238989637 Z" id="路径-352" fill="url(#linearGradient-10)" opacity="0.496140253"></path>
                    </g>
                    <polygon id="路径-354" fill="url(#linearGradient-11)" points="66.6666667 65.642487 78.7301587 54.4625645 73.5994533 50.984456 66.7198857 57.2603236"></polygon>
                    <polygon id="路径-355" fill="url(#linearGradient-12)" opacity="0.187895275" transform="translate(33.968254, 85.398964) scale(1, -1) translate(-33.968254, -85.398964) " points="25.3968254 103.243523 42.5396825 86.905344 42.5396825 67.5544041 25.4080694 81.1498274"></polygon>
                    <polygon id="路径-355" fill="url(#linearGradient-13)" opacity="0.186755952" transform="translate(33.968254, 71.378238) scale(1, -1) translate(-33.968254, -71.378238) " points="25.3968254 80.3005181 42.5396825 63.6477481 42.5396825 62.4559585 25.4080694 78.979223"></polygon>
                    <polygon id="路径-355" fill="url(#linearGradient-12)" opacity="0.187895275" transform="translate(54.920635, 65.642487) scale(1, -1) translate(-54.920635, -65.642487) " points="46.3492063 83.4870466 63.4920635 67.1488673 63.4920635 47.7979275 46.3604504 61.3933507"></polygon>
                    <polygon id="路径-355" fill="url(#linearGradient-13)" opacity="0.186755952" transform="translate(54.920635, 51.621762) scale(1, -1) translate(-54.920635, -51.621762) " points="46.3492063 60.5440415 63.4920635 43.8912715 63.4920635 42.6994819 46.3604504 59.2227464"></polygon>
                    <polygon id="路径-356" fill="url(#linearGradient-14)" opacity="0.187895275" points="66.031746 44.611399 66.031746 59.3856288 78.0952381 68.8290155 78.0952381 55.8692931"></polygon>
                    <polygon id="路径-356" fill="url(#linearGradient-15)" opacity="0.186755952" points="66.031746 39.5129534 66.031746 40.2687405 78.0952381 51.6217617 78.0952381 50.8955869"></polygon>
                    <g id="编组-26" transform="translate(43.809524, 71.378238)">
                        <polygon id="路径-357" fill="#103861" points="0.424804687 0.653587606 -9.99200722e-15 0.463159116 -9.99200722e-15 4.24255126 0.424804687 4.41687186"></polygon>
                        <polygon id="路径-358" fill="#2B6BAC" points="0.414398193 0.656181491 0.931549072 0.169003851 0.931549072 3.93518294 0.405792236 4.41946575"></polygon>
                        <polygon id="路径-359" fill="#649AD1" points="0 0.463159116 0.424804688 0.653587606 0.931549072 0.169003851 0.518585205 1.88737914e-13"></polygon>
                    </g>
                    <g id="编组-26" transform="translate(64.761905, 51.621762)">
                        <polygon id="路径-357" fill="#103861" points="0.424804687 0.653587606 -9.99200722e-15 0.463159116 -9.99200722e-15 4.24255126 0.424804687 4.41687186"></polygon>
                        <polygon id="路径-358" fill="#2B6BAC" points="0.414398193 0.656181491 0.931549072 0.169003851 0.931549072 3.93518294 0.405792236 4.41946575"></polygon>
                        <polygon id="路径-359" fill="#649AD1" points="0 0.463159116 0.424804688 0.653587606 0.931549072 0.169003851 0.518585205 1.88737914e-13"></polygon>
                    </g>
                </g>
            </g>
        </g>
    </g>
</svg>