<?xml version="1.0" encoding="UTF-8"?>
<svg width="40px" height="40px" viewBox="0 0 40 40" version="1.1" xmlns="http://www.w3.org/2000/svg" xmlns:xlink="http://www.w3.org/1999/xlink">
    <title>缩小</title>
    <g id="页面-1" stroke="none" stroke-width="1" fill="none" fill-rule="evenodd">
        <g id="一次系统图" transform="translate(-1820.000000, -100.000000)">
            <g id="缩小" transform="translate(1820.000000, 100.000000)">
                <rect id="矩形" fill="#304983" x="0" y="0" width="40" height="40" rx="2"></rect>
                <g id="编组" transform="translate(7.804878, 7.804878)" fill="#FFFFFF" fill-rule="nonzero">
                    <path d="M1.03063124,14.1620771 C1.59983316,14.1620771 2.06126248,14.6200715 2.06126248,15.1850362 L2.061,21.7330771 L8.85330952,15.0525961 C9.10385578,14.7848304 9.48341711,14.6736182 9.84208894,14.7628818 C10.2007608,14.8521455 10.4808749,15.1275329 10.5718025,15.4802821 C10.6627302,15.8330313 10.5498518,16.2064264 10.2777477,16.452998 L4.299,22.3440771 L9.27424675,22.3443258 C9.64245584,22.3443258 9.98269508,22.5393007 10.1667996,22.8558053 C10.3509042,23.1723099 10.3509042,23.5622598 10.1667996,23.8787644 C10.0031511,24.1601019 9.71613697,24.3454158 9.39577138,24.3831234 L9.27424675,24.389532 L1.03063124,24.389532 C0.461429323,24.389532 0,23.9315377 0,23.366573 L0,15.1850362 C0,14.6200715 0.461429323,14.1620771 1.03063124,14.1620771 Z" id="路径" transform="translate(5.301371, 19.275805) rotate(-180.000000) translate(-5.301371, -19.275805) "></path>
                    <path d="M24.3587159,9.09494702e-13 C24.914885,9.09494702e-13 25.3658537,0.443575577 25.3658537,0.991318998 L25.3658537,8.91980144 C25.3665032,9.41432761 24.9982667,9.8267683 24.5127119,9.90028769 L24.3979756,9.911 L24.281859,9.90514096 C23.7806224,9.84787731 23.3915567,9.4288752 23.3915567,8.92049129 L23.3909756,3.447 L16.8713666,9.91891535 C16.672002,10.1167777 16.4024907,10.227434 16.1211651,10.2281668 C15.6921913,10.2278041 15.3056388,9.97112472 15.1416246,9.57773043 C14.9776104,9.18433615 15.068405,8.73162892 15.371702,8.43055106 L21.8679756,1.982 L16.2967181,1.982638 C15.7401049,1.982638 15.2888807,1.53880936 15.2888807,0.991318998 C15.2888807,0.443828633 15.7401049,9.09494702e-13 16.2967181,9.09494702e-13 L24.3587159,9.09494702e-13 Z" id="路径" transform="translate(20.213415, 5.114083) rotate(-180.000000) translate(-20.213415, -5.114083) "></path>
                </g>
            </g>
        </g>
    </g>
</svg>