<?xml version="1.0" encoding="UTF-8"?>
<svg width="54px" height="54px" viewBox="0 0 54 54" version="1.1" xmlns="http://www.w3.org/2000/svg" xmlns:xlink="http://www.w3.org/1999/xlink">
    <title>总发电量</title>
    <g id="页面-1" stroke="none" stroke-width="1" fill="none" fill-rule="evenodd">
        <g id="综合监控" transform="translate(-970.000000, -123.000000)">
            <g id="报警" transform="translate(930.000000, 92.000000)">
                <g id="总发电量" transform="translate(40.000000, 31.000000)">
                    <circle id="椭圆形" fill="#4687EB" cx="27" cy="27" r="27"></circle>
                    <g id="编组" transform="translate(10.607143, 7.714286)" fill="#FFFFFF" fill-rule="nonzero">
                        <path d="M32.6817191,13.2494991 C32.4681592,12.7349044 31.9700198,12.4009861 31.4190292,12.4030792 L20.8289315,12.4030792 L23.1903942,1.67818824 C23.3189821,1.07853613 23.0425568,0.464683792 22.5112579,0.170043075 C21.979959,-0.124597641 21.3206066,-0.0296965233 20.8913257,0.403201204 L0.40381191,21.0687053 C0.0104566914,21.462499 -0.108131726,22.0585119 0.103916717,22.5759471 C0.315965159,23.0933823 0.816353579,23.429028 1.3693361,23.4247528 L11.711972,23.4247528 L6.91396184,36.7253319 C6.76095244,37.1484297 6.82250474,37.6206532 7.0786763,37.9890059 C7.33484787,38.3573587 7.75305507,38.5749883 8.19780234,38.5714286 C8.54995959,38.5714286 8.90105928,38.4331716 9.16544158,38.16746 L32.3866684,14.7505553 C32.7758392,14.3562736 32.893225,13.764851 32.6817191,13.2505706 L32.6817191,13.2494991 Z" id="路径"></path>
                    </g>
                </g>
            </g>
        </g>
    </g>
</svg>