<?xml version="1.0" encoding="UTF-8"?>
<svg width="12px" height="12px" viewBox="0 0 12 12" version="1.1" xmlns="http://www.w3.org/2000/svg" xmlns:xlink="http://www.w3.org/1999/xlink">
    <title>关闭</title>
    <g id="页面-1" stroke="none" stroke-width="1" fill="none" fill-rule="evenodd">
        <g id="添加流转信息_资产登记1_资产管理" transform="translate(-1170.000000, -338.000000)" fill="#FFFFFF">
            <path d="M1176,337 C1176.55228,337 1177,337.447715 1177,338 L1176.999,343 L1182,343 C1182.55228,343 1183,343.447715 1183,344 C1183,344.552285 1182.55228,345 1182,345 L1176.999,345 L1177,350 C1177,350.552285 1176.55228,351 1176,351 C1175.44772,351 1175,350.552285 1175,350 L1174.999,344.999 L1170,345 C1169.44772,345 1169,344.552285 1169,344 C1169,343.447715 1169.44772,343 1170,343 L1174.999,342.999 L1175,338 C1175,337.447715 1175.44772,337 1176,337 Z" id="关闭" transform="translate(1176.000000, 344.000000) rotate(-315.000000) translate(-1176.000000, -344.000000) "></path>
        </g>
    </g>
</svg>