<?xml version="1.0" encoding="UTF-8"?>
<svg width="20px" height="10px" viewBox="0 0 20 10" version="1.1" xmlns="http://www.w3.org/2000/svg" xmlns:xlink="http://www.w3.org/1999/xlink">
    <title>密码隐藏</title>
    <g id="页面-1" stroke="none" stroke-width="1" fill="none" fill-rule="evenodd">
        <g id="登陆页" transform="translate(-1284.000000, -522.000000)" fill="#B3C9E2" fill-rule="nonzero">
            <g id="密码隐藏" transform="translate(1284.000000, 522.000000)">
                <path d="M19.8595207,1.2320075 C20.0739812,0.891125256 20.0033354,0.434826181 19.7157059,0.166414957 C19.3927536,-0.0993121504 18.9663555,-0.0241570106 18.7140489,0.319409354 C18.678726,0.356986924 14.709944,5.33869918 9.99433467,5.33869918 C5.42001697,5.33869918 1.27462038,0.319409354 1.2367744,0.281831784 C0.989513986,-0.0214728929 0.525269941,-0.0617345805 0.240163535,0.206676644 C-0.0474659226,0.472403751 -0.0827888474,0.966280395 0.166994642,1.26958507 C0.237640474,1.38231778 1.09548273,2.41033276 2.45541503,3.55108045 L0.631238688,5.56684872 C0.346132292,5.8701534 0.381455207,6.36403004 0.666561604,6.63244126 C0.737207435,6.78543566 0.916345084,6.8605908 1.09548273,6.8605908 C1.27462038,6.8605908 1.45375803,6.78543566 1.59504969,6.63244126 L3.5605177,4.46636271 C4.48900579,5.15081133 5.59663154,5.79768237 6.8127491,6.25398145 L6.06339865,8.95419832 C5.95490683,9.37291983 6.17189047,9.79164133 6.56296562,9.90437405 L6.77742619,9.90437405 C7.0978555,9.90437405 7.38548497,9.67622451 7.4561308,9.33534226 L8.20548124,6.63512538 C8.7782171,6.75054221 9.38375282,6.82569735 9.9918116,6.82569735 C10.5998704,6.82569735 11.2079292,6.75054221 11.778142,6.63512538 L12.5274924,9.29776469 C12.5981382,9.64133105 12.9210906,9.86679647 13.206197,9.86679647 C13.2768428,9.86679647 13.3500117,9.86679647 13.3853347,9.8292189 C13.7789329,9.71648619 13.9933934,9.29776469 13.8849016,8.87904318 L13.1355512,6.21640388 C14.3516687,5.7601048 15.4592945,5.11323376 16.3877826,4.42878514 L18.3179277,6.55728612 C18.4617424,6.71028052 18.6408801,6.78543566 18.8174946,6.78543566 C18.9966323,6.78543566 19.1757699,6.71028052 19.3170616,6.55728612 C19.602168,6.25398145 19.602168,5.79768237 19.3523845,5.49169358 L17.5307312,3.47592531 C19.0016784,2.33517763 19.8595207,1.23200751 19.8595207,1.2320075 L19.8595207,1.2320075 Z" id="路径"></path>
            </g>
        </g>
    </g>
</svg>