<?xml version="1.0" encoding="UTF-8"?>
<svg width="55px" height="54px" viewBox="0 0 55 54" version="1.1" xmlns="http://www.w3.org/2000/svg" xmlns:xlink="http://www.w3.org/1999/xlink">
    <title>已运行</title>
    <g id="页面-1" stroke="none" stroke-width="1" fill="none" fill-rule="evenodd">
        <g id="综合监控" transform="translate(-1285.000000, -123.000000)">
            <g id="已运行" transform="translate(1245.500000, 92.000000)">
                <g transform="translate(40.000000, 31.000000)">
                    <circle id="椭圆形" fill="#20D77B" cx="27" cy="27" r="27"></circle>
                    <g id="编组-5" transform="translate(27.482143, 27.000000) rotate(-330.000000) translate(-27.482143, -27.000000) translate(13.500000, 4.821429)" fill="#FFFFFF">
                        <path d="M18.5107441,32.9882175 C18.237877,35.8028487 17.9378526,37.69767 17.6106709,38.6726816 C16.2223456,42.8099328 14.3714237,44.3571457 13.9681261,44.3571457 C13.5648284,44.3571457 11.7329123,42.7720351 10.337696,38.6726816 C10.0030843,37.6895424 9.68323641,35.794721 9.37815245,32.9882175 C11.4793266,33.9145335 13.0093501,34.3776915 13.9682231,34.3776915 C14.927096,34.3776915 16.4412697,33.9145335 18.5107441,32.9882175 Z M13.9572687,2.84035707e-06 C19.2922317,2.95011645 22.3364289,6.73976047 23.0898603,11.3689349 C23.8432917,15.9981093 22.7017177,22.4405007 19.6651385,30.6961089 L8.24939891,30.6961089 C5.04578267,22.4405007 3.90420872,15.9981093 4.82467704,11.3689349 C5.74514536,6.73976047 8.78934258,2.95011645 13.9572687,2.84035707e-06 Z M25.2622362,22.7378631 L27.2583812,29.2401862 L22.8028575,30.5967907 L25.2622362,22.7378631 Z M2.25452628,22.7378631 L4.71390496,30.5967907 L0.258381218,29.2401862 L2.25452628,22.7378631 Z M13.9472353,9.10736197 C12.3710506,9.10736197 11.0933004,10.3798726 11.0933004,11.949594 C11.0933004,13.5193154 12.3710506,14.7918261 13.9472353,14.7918261 C15.52342,14.7918261 16.8011702,13.5193154 16.8011702,11.949594 C16.8011702,10.3798726 15.52342,9.10736197 13.9472353,9.10736197 Z" id="形状结合"></path>
                    </g>
                </g>
            </g>
        </g>
    </g>
</svg>