<?xml version="1.0" encoding="UTF-8"?>
<svg width="40px" height="40px" viewBox="0 0 40 40" version="1.1" xmlns="http://www.w3.org/2000/svg" xmlns:xlink="http://www.w3.org/1999/xlink">
    <title>放大</title>
    <g id="页面-1" stroke="none" stroke-width="1" fill="none" fill-rule="evenodd">
        <g id="项目监控" transform="translate(-1309.000000, -101.000000)">
            <g id="放大" transform="translate(1309.000000, 101.000000)">
                <rect id="矩形" fill="#304983" x="0" y="0" width="40" height="40" rx="2"></rect>
                <g id="编组" transform="translate(7.804878, 7.804878)" fill="#FFFFFF" fill-rule="nonzero">
                    <path d="M9.27424675,24.389532 L1.03063124,24.389532 C0.461429323,24.389532 0,23.9315377 0,23.366573 L0,15.1850362 C0,14.6200715 0.461429323,14.1620771 1.03063124,14.1620771 C1.59983316,14.1620771 2.06126248,14.6200715 2.06126248,15.1850362 L2.06126248,22.3443258 L9.27424675,22.3443258 C9.64245584,22.3443258 9.98269508,22.5393007 10.1667996,22.8558053 C10.3509042,23.1723099 10.3509042,23.5622598 10.1667996,23.8787644 C9.98269508,24.195269 9.64245584,24.3902439 9.27424675,24.3902439 L9.27424675,24.389532 Z" id="路径"></path>
                    <path d="M2.59237397,23.6033955 C2.18491843,23.6029846 1.81775623,23.3613561 1.66196934,22.9910291 C1.50618244,22.620702 1.59242259,22.19454 1.88050554,21.9111163 L8.85330952,15.0525961 C9.10385578,14.7848304 9.48341711,14.6736182 9.84208894,14.7628818 C10.2007608,14.8521455 10.4808749,15.1275329 10.5718025,15.4802821 C10.6627302,15.8330313 10.5498518,16.2064264 10.2777477,16.452998 L3.30424242,23.3253153 C3.113394,23.5065191 2.85761251,23.6064112 2.59237397,23.6033955 L2.59237397,23.6033955 Z M24.3993941,9.91181029 C23.8427809,9.91181029 23.3915567,9.46798165 23.3915567,8.92049129 L23.3915567,1.982638 L16.2967181,1.982638 C15.7401049,1.982638 15.2888807,1.53880936 15.2888807,0.991318998 C15.2888807,0.443828633 15.7401049,0 16.2967181,0 L24.3587159,0 C24.914885,0 25.3658528,0.443575577 25.3658528,0.991318998 L25.3658528,8.91980144 C25.3665533,9.45236809 24.9394322,9.889735 24.3986927,9.91112044 L24.3993941,9.91181029 Z" id="形状"></path>
                    <path d="M16.1211651,10.2281668 C15.6921913,10.2278041 15.3056388,9.97112472 15.1416246,9.57773043 C14.9776104,9.18433615 15.068405,8.73162892 15.371702,8.43055106 L22.7275164,1.13089744 C22.9907135,0.844015364 23.3915364,0.7240061 23.7706809,0.818566513 C24.1498254,0.913126926 24.4458666,1.20693738 24.541145,1.58322491 C24.6364233,1.95951244 24.5155029,2.35731508 24.2264427,2.61852888 L16.8713666,9.91891535 C16.672002,10.1167777 16.4024907,10.227434 16.1211651,10.2281668 L16.1211651,10.2281668 Z" id="路径"></path>
                </g>
            </g>
        </g>
    </g>
</svg>