<?xml version="1.0" encoding="UTF-8"?>
<svg width="40px" height="40px" viewBox="0 0 40 40" version="1.1" xmlns="http://www.w3.org/2000/svg" xmlns:xlink="http://www.w3.org/1999/xlink">
    <title>头像</title>
    <defs>
        <polygon id="path-1" points="0 0 18.5610202 0 18.5610202 7.84888389 0 7.84888389"></polygon>
    </defs>
    <g id="页面-1" stroke="none" stroke-width="1" fill="none" fill-rule="evenodd">
        <g id="项目监控" transform="translate(-1541.000000, -13.000000)">
            <g id="头像" transform="translate(1541.000000, 13.000000)">
                <circle id="椭圆形" fill="#00D57D" cx="20" cy="20" r="20"></circle>
                <g id="编组备份-7" transform="translate(4.000000, 15.000000)">
                    <polygon id="Fill-1" fill="#FFFFFF" points="10.2545317 3 9 9 10.9090909 9 11.5636501 6.02802285 13.4182231 9 14.7273415 9 15 7.71024206 12.0545867 3"></polygon>
                    <polygon id="Fill-2" fill="#FFFFFF" points="14.2844072 3 14 4.48627262 15.2484918 7 16 3"></polygon>
                    <polygon id="Fill-3" fill="#FFFFFF" points="16.3447926 3 16 4.45796572 16.6322164 6.86913246 16.2298376 9 17.954018 9 18.298883 7.03734024 21 3 19.1608646 3 17.954018 5.07475116 17.3218016 3"></polygon>
                    <polygon id="Fill-4" fill="#FFFFFF" points="20 9 21.845272 9 22.2618762 7.09345662 25 3 23.0357411 3 21.7857036 5.07475116 21.3690244 3.33641557 20 5.29907533 20.4166792 6.92524884"></polygon>
                    <g id="编组">
                        <path d="M30.4705835,3.15114564 C30.7407486,3.5085349 30.8993541,3.89013893 30.9315009,4.29256174 C31.1652624,7.21649463 24.669556,10.1273604 16.4231706,10.7942262 C15.4041615,10.8766154 14.4062165,10.9207631 13.4390239,10.9295483 C14.2730789,10.9756893 15.1281982,10.9999779 15.999978,10.9999779 C24.8365284,10.9999779 31.999978,8.53752819 31.999978,5.49997785 C31.999978,4.65969597 31.4508404,3.86348792 30.4705835,3.15114564" id="Fill-5" fill="#FFFFFF"></path>
                        <g>
                            <mask id="mask-2" fill="white">
                                <use xlink:href="#path-1"></use>
                            </mask>
                            <g id="Clip-8"></g>
                            <path d="M15.5768734,0.205803356 C16.5958826,0.123414094 17.5938275,0.079266443 18.5610202,0.0704812081 C17.7270385,0.0243402685 16.8718459,-2.2147651e-05 15.9999927,-2.2147651e-05 C7.1634422,-2.2147651e-05 -7.33944954e-06,2.46242752 -7.33944954e-06,5.49997785 C-7.33944954e-06,6.34033356 0.549130275,7.13646779 1.52946055,7.84888389 C1.25929541,7.49149463 1.10061651,7.1098906 1.06846972,6.70739396 C0.834781651,3.78346107 7.33048807,0.872595302 15.5768734,0.205803356" id="Fill-7" fill="#FFFFFF" mask="url(#mask-2)"></path>
                        </g>
                    </g>
                </g>
            </g>
        </g>
    </g>
</svg>