<?xml version="1.0" encoding="UTF-8"?>
<svg width="84px" height="84px" viewBox="0 0 84 84" version="1.1" xmlns="http://www.w3.org/2000/svg" xmlns:xlink="http://www.w3.org/1999/xlink">
    <title>空调</title>
    <defs>
        <linearGradient x1="50%" y1="0%" x2="50%" y2="100%" id="linearGradient-1">
            <stop stop-color="#6D8FB0" offset="0%"></stop>
            <stop stop-color="#4D6D96" offset="100%"></stop>
        </linearGradient>
    </defs>
    <g id="页面-1" stroke="none" stroke-width="1" fill="none" fill-rule="evenodd">
        <g id="一次系统图" transform="translate(-946.000000, -486.000000)">
            <g id="空调" transform="translate(946.000000, 486.000000)">
                <rect id="矩形备份-8" stroke="#233E61" fill="#122641" x="0.5" y="0.5" width="83" height="83"></rect>
                <path d="M64,52 C65.6568542,52 67,53.3431458 67,55 C67,56.6568542 65.6568542,58 64,58 L19,58 C17.3431458,58 16,56.6568542 16,55 C16,53.3431458 17.3431458,52 19,52 L64,52 Z M59,54 L25,54 C24.4477153,54 24,54.4477153 24,55 C24,55.5128358 24.3860402,55.9355072 24.8833789,55.9932723 L25,56 L59,56 C59.5522847,56 60,55.5522847 60,55 C60,54.4477153 59.5522847,54 59,54 Z M67,26 C69.7614237,26 72,28.2385763 72,31 L72,50 C72,52.427005 70.2707924,54.450132 67.9772044,54.9045537 C67.9921874,54.7711504 68,54.6364876 68,54.5 C68,52.6314366 66.5357224,51.1048736 64.6920352,51.0051789 L64.5,51 L18.5,51 C16.5670034,51 15,52.5670034 15,54.5 C15,54.6364876 15.0078126,54.7711504 15.0230149,54.9035658 C12.7292076,54.450132 11,52.427005 11,50 L11,31 C11,28.2385763 13.2385763,26 16,26 L67,26 Z M64,46 L19,46 C18.4477153,46 18,46.4477153 18,47 C18,47.5128358 18.3860402,47.9355072 18.8833789,47.9932723 L19,48 L64,48 C64.5522847,48 65,47.5522847 65,47 C65,46.4477153 64.5522847,46 64,46 Z M15.5,31 C15.2545401,31 15.0503916,31.1768752 15.0080557,31.4101244 L15,31.5 L15,38.5 C15,38.7761424 15.2238576,39 15.5,39 C15.7454599,39 15.9496084,38.8231248 15.9919443,38.5898756 L16,38.5 L16,31.5 C16,31.2238576 15.7761424,31 15.5,31 Z M17.5,31 C17.2545401,31 17.0503916,31.1768752 17.0080557,31.4101244 L17,31.5 L17,38.5 C17,38.7761424 17.2238576,39 17.5,39 C17.7454599,39 17.9496084,38.8231248 17.9919443,38.5898756 L18,38.5 L18,31.5 C18,31.2238576 17.7761424,31 17.5,31 Z" id="形状结合" fill="url(#linearGradient-1)"></path>
            </g>
        </g>
    </g>
</svg>