<?xml version="1.0" encoding="UTF-8"?>
<svg width="84px" height="84px" viewBox="0 0 84 84" version="1.1" xmlns="http://www.w3.org/2000/svg" xmlns:xlink="http://www.w3.org/1999/xlink">
    <title>电池</title>
    <defs>
        <linearGradient x1="50%" y1="0%" x2="50%" y2="100%" id="linearGradient-1">
            <stop stop-color="#6D8FB0" offset="0%"></stop>
            <stop stop-color="#4D6D96" offset="100%"></stop>
        </linearGradient>
    </defs>
    <g id="页面-1" stroke="none" stroke-width="1" fill="none" fill-rule="evenodd">
        <g id="一次系统图" transform="translate(-712.000000, -739.000000)">
            <g id="电池" transform="translate(712.000000, 739.000000)">
                <rect id="矩形备份-7" stroke="#233E61" fill="#122641" x="0.5" y="0.5" width="83" height="83"></rect>
                <path d="M31.038338,18 L31.038338,22.2067279 L33.2941574,22.2067279 L33.2941574,23.8892665 L51.4999767,23.8892665 L51.4999767,22.2067279 L53.7793529,22.2067279 L53.7793529,18 L60.8909451,18 L60.8909451,22.2067279 L63.1864525,22.2067279 L63.1864525,23.8892665 L70,23.8892665 L70,30.8191608 L68.0299348,30.8191608 L68.0299348,63.2328706 L69.0165037,63.2328706 L69.0165037,66 L15.9983473,66 L15.9983473,63.2328706 L16.9283287,63.2328706 L16.9283287,30.8191608 L15,30.8191608 L15,23.8892665 L21.7392924,23.8892665 L21.7392924,22.2067279 L23.95696,22.2067279 L23.95696,18 L31.038338,18 Z M56.2689922,40.1538462 L54.3387597,40.1538462 L54.3387597,44.7097258 L49.8333333,44.7097258 L49.8333333,46.6237175 L54.3387597,46.6237175 L54.3387597,51.2307692 L56.2689922,51.2307692 L56.2689922,46.6237175 L60.8333333,46.6237175 L60.8333333,44.7097258 L56.2689922,44.7097258 L56.2689922,40.1538462 Z M36.0833333,45.6923077 L25.0833333,45.6923077 L25.0833333,47.5384615 L36.0833333,47.5384615 L36.0833333,45.6923077 Z" id="形状结合" fill="url(#linearGradient-1)"></path>
            </g>
        </g>
    </g>
</svg>