<?xml version="1.0" encoding="UTF-8"?>
<svg width="55px" height="54px" viewBox="0 0 55 54" version="1.1" xmlns="http://www.w3.org/2000/svg" xmlns:xlink="http://www.w3.org/1999/xlink">
    <title>当日发电量</title>
    <g id="页面-1" stroke="none" stroke-width="1" fill="none" fill-rule="evenodd">
        <g id="综合监控" transform="translate(-652.000000, -123.000000)">
            <g id="已运行" transform="translate(612.500000, 92.000000)">
                <g id="当日发电量" transform="translate(40.000000, 31.000000)">
                    <circle id="椭圆形" fill="#20D7C2" cx="27" cy="27" r="27"></circle>
                    <g id="编组" transform="translate(14.464286, 5.785714)" fill="#FFFFFF" fill-rule="nonzero">
                        <path d="M18.8535795,33.610809 L7.18206801,33.610809 C6.69948005,33.610809 6.3070268,33.9119454 6.3070268,34.2842697 L6.3070268,34.7325607 C6.3070268,35.1050091 6.69961358,35.4063317 7.18206801,35.4063317 L18.8535795,35.4063938 C19.3364345,35.4063317 19.7284872,35.1050091 19.7284872,34.7325607 L19.7284872,34.2842076 C19.7284872,33.9117592 19.3363678,33.610809 18.8535795,33.610809 Z M18.8535795,35.6409972 L7.18206801,35.6409972 C6.69954681,35.6409972 6.30696003,35.9427542 6.30716033,36.3152026 L6.30696003,36.7634937 C6.30696003,37.1352593 6.69954681,37.4365199 7.18200125,37.4365199 L18.8535127,37.4365199 C19.3363678,37.4365199 19.7284872,37.1351973 19.7284872,36.7633075 L19.7284872,36.3152026 C19.7284872,35.9427542 19.3363678,35.6409972 18.8535795,35.6409972 Z M18.8535795,37.6725507 L7.18206801,37.6727369 C6.69954681,37.6727369 6.3070268,37.9730665 6.3070268,38.3457631 L6.3070268,38.7943645 C6.3070268,39.1661302 6.69948005,39.4672666 7.18206801,39.4672045 L18.8535795,39.4672045 C19.3364345,39.4672045 19.728554,39.1660681 19.728554,38.7943025 L19.728554,38.3457631 C19.728554,37.9731906 19.3363678,37.6725507 18.8535795,37.6725507 L18.8535795,37.6725507 Z M8.64091515,39.7024906 L17.3945321,39.7024906 C17.3945321,41.0492878 15.0603099,41.9464285 13.0179907,41.9464285 C10.9754712,41.9466147 8.64091515,41.0494119 8.64091515,39.7024906 Z M13.0172562,0.482142857 C5.82891218,0.482142857 0,5.89918458 0,12.5827742 C0,14.7825843 0.665394532,16.8281024 1.73546057,18.6247423 C4.93223864,23.9781059 5.77877057,26.9845048 6.30008309,29.8945797 C6.7372031,32.3337101 7.34370961,32.8999856 9.32540488,32.8999856 L12.5037554,32.8999856 C12.4806542,32.8431967 12.4643632,32.7829322 12.4643632,32.7184473 L12.4643632,26.6509087 C10.4329269,26.4511235 8.84535404,24.8496761 8.84535404,22.9100399 L8.84535404,18.7354651 L9.91602098,18.7354651 L9.91602098,15.2978429 C9.91602098,14.8862939 10.2746904,14.5521393 10.7178194,14.5521393 C11.1612822,14.5521393 11.5198849,14.886356 11.5198849,15.2978429 L11.5198849,18.7354651 L14.5157627,18.7354651 L14.5157627,15.2978429 C14.5157627,14.8862939 14.8740982,14.5521393 15.3175611,14.5521393 C15.7610239,14.5521393 16.1193595,14.886356 16.1193595,15.2978429 L16.1193595,18.7354651 L17.1903602,18.7354651 L17.1903602,22.9100399 C17.1903602,24.8497382 15.6029209,26.4511235 13.5714846,26.6505984 L13.5714846,32.7183852 C13.5714846,32.7829942 13.5551936,32.8431967 13.5320924,32.8999856 L16.7094414,32.8999856 C18.692472,32.8999856 19.2977768,32.3320965 19.7347632,29.8945177 C20.2560757,26.9844427 21.1027412,23.9775473 24.2999199,18.6244319 C25.371121,16.8291575 26.0357143,14.7824602 26.0357143,12.5824639 C26.0357143,5.89918458 20.2064683,0.482142857 13.0172562,0.482142857 L13.0172562,0.482142857 Z" id="形状"></path>
                    </g>
                </g>
            </g>
        </g>
    </g>
</svg>