<?xml version="1.0" encoding="UTF-8"?>
<svg width="21px" height="13px" viewBox="0 0 21 13" version="1.1" xmlns="http://www.w3.org/2000/svg" xmlns:xlink="http://www.w3.org/1999/xlink">
    <title>密码显示</title>
    <g id="页面-1" stroke="none" stroke-width="1" fill="none" fill-rule="evenodd">
        <g id="登陆页" transform="translate(-1314.000000, -520.000000)" fill="#B3C9E2" fill-rule="nonzero">
            <g id="密码显示" transform="translate(1314.500000, 520.500000)">
                <path d="M9.41306555,9.69230769 C9.33476174,9.69230769 9.2546509,9.67727667 9.17755176,9.6442084 C7.94215843,9.12052738 7.14285714,7.91323518 7.14285714,6.56946125 C7.14285714,4.72846089 8.63846008,3.23076923 10.4767928,3.23076923 C12.3145232,3.23076923 13.8095238,4.72846089 13.8095238,6.56946125 C13.8095238,7.89279298 13.0487721,9.09707897 11.8706008,9.63699352 C11.5676252,9.77588021 11.209837,9.64360716 11.0712995,9.34178411 C10.932762,9.04056231 11.0652761,8.68342507 11.3676493,8.54453838 C12.119366,8.2000272 12.6048497,7.42502737 12.6048497,6.56946125 C12.6048497,5.39162986 11.6501454,4.43325149 10.4767928,4.43325149 C9.30283786,4.43325149 8.34753128,5.39162986 8.34753128,6.56946125 C8.34753128,7.42983731 8.85831311,8.20243217 9.64918169,8.53792472 C9.95516891,8.66779281 10.0979228,9.02072135 9.96781799,9.32615185 C9.87023939,9.55462348 9.64737467,9.69230769 9.41306555,9.69230769" id="路径"></path>
                <path d="M10.0003158,11.5384615 C6.01545563,11.5384615 2.65336801,8.83938316 1.00358916,7.23038901 C0.663780185,6.89875951 0.476190476,6.46197919 0.476190476,6.0003111 C0.476190476,5.53802082 0.663780185,5.10124051 1.00358916,4.769611 C2.65336801,3.16061684 6.01545563,0.461538462 10.0003158,0.461538462 C13.985176,0.461538462 17.3472636,3.16061684 18.9964108,4.769611 C19.3362198,5.10124051 19.5238095,5.53802082 19.5238095,6.0003111 C19.5238095,6.46197919 19.3362198,6.89875951 18.9964108,7.23038901 C18.6894459,7.5302866 18.4178513,7.78974158 17.9567723,8.1717688 C17.689599,8.39264774 17.2910498,8.35904926 17.0668265,8.09586112 C16.8426031,7.83267297 16.8767103,7.44006844 17.1438835,7.21918951 C17.5695921,6.86640541 17.8115008,6.63494917 18.1077283,6.34625106 C18.2062602,6.24981097 18.2605792,6.12723872 18.2605792,6.0003111 C18.2605792,5.87338349 18.2062602,5.75018904 18.1077283,5.65437113 C16.8906058,4.46722463 13.6649471,1.70592683 10.0003158,1.70592683 C6.33568453,1.70592683 3.10939417,4.46722463 1.89290333,5.65437113 C1.79437137,5.75018904 1.73942084,5.87338349 1.73942084,6.0003111 C1.73942084,6.12723872 1.79437137,6.24981097 1.89290333,6.34562888 C3.10939417,7.53339757 6.33568453,10.2940732 10.0003158,10.2940732 C11.8856871,10.2940732 13.5348344,9.75338642 15.3469383,8.54135215 C15.6362181,8.34722756 16.0290827,8.42189087 16.2242518,8.70623361 C16.4206841,8.99057635 16.3455219,9.37695894 16.0568738,9.57046134 C14.0502324,10.9131564 12.1250693,11.5384615 10.0003158,11.5384615" id="路径"></path>
            </g>
        </g>
    </g>
</svg>