<?xml version="1.0" encoding="UTF-8"?>
<svg width="190px" height="190px" viewBox="0 0 190 190" version="1.1" xmlns="http://www.w3.org/2000/svg" xmlns:xlink="http://www.w3.org/1999/xlink">
    <title>PCS</title>
    <defs>
        <linearGradient x1="50%" y1="0%" x2="50%" y2="92.863404%" id="linearGradient-1">
            <stop stop-color="#18F6FF" offset="0%"></stop>
            <stop stop-color="#0644FC" offset="100%"></stop>
        </linearGradient>
        <linearGradient x1="50%" y1="26.1042811%" x2="50%" y2="106.161187%" id="linearGradient-2">
            <stop stop-color="#90EAFF" offset="0%"></stop>
            <stop stop-color="#134AFC" offset="100%"></stop>
        </linearGradient>
        <linearGradient x1="76.946281%" y1="18.2560152%" x2="24.3379509%" y2="91.8581998%" id="linearGradient-3">
            <stop stop-color="#6EAEFE" offset="0%"></stop>
            <stop stop-color="#265CD8" offset="100%"></stop>
        </linearGradient>
        <linearGradient x1="95.4838722%" y1="18.2560152%" x2="6.68384216%" y2="91.8581998%" id="linearGradient-4">
            <stop stop-color="#B1D4FF" offset="0%"></stop>
            <stop stop-color="#789CEE" offset="100%"></stop>
        </linearGradient>
        <linearGradient x1="50.172623%" y1="32.0680681%" x2="49.8481799%" y2="87.962415%" id="linearGradient-5">
            <stop stop-color="#89CCF6" offset="0%"></stop>
            <stop stop-color="#1E67AA" offset="100%"></stop>
        </linearGradient>
        <polygon id="path-6" points="53.9014085 36.8603525 56.4084507 34.5519409 56.4084507 126.613054 53.9014085 128.947791"></polygon>
        <filter x="-19.9%" y="-1.6%" width="179.8%" height="102.1%" filterUnits="objectBoundingBox" id="filter-7">
            <feOffset dx="1" dy="-1" in="SourceAlpha" result="shadowOffsetOuter1"></feOffset>
            <feColorMatrix values="0 0 0 0 1   0 0 0 0 1   0 0 0 0 1  0 0 0 0.115002185 0" type="matrix" in="shadowOffsetOuter1"></feColorMatrix>
        </filter>
        <linearGradient x1="77.4507779%" y1="43.7101477%" x2="0%" y2="57.0494799%" id="linearGradient-8">
            <stop stop-color="#74EFFF" offset="0%"></stop>
            <stop stop-color="#53D9FF" offset="100%"></stop>
        </linearGradient>
        <linearGradient x1="56.9446643%" y1="50%" x2="24.1418708%" y2="21.8410547%" id="linearGradient-9">
            <stop stop-color="#A1FEFF" stop-opacity="0" offset="0%"></stop>
            <stop stop-color="#A1FEFF" offset="100%"></stop>
        </linearGradient>
        <linearGradient x1="37.4287874%" y1="52.7896867%" x2="58.8100907%" y2="29.9340426%" id="linearGradient-10">
            <stop stop-color="#193C6D" stop-opacity="0" offset="0%"></stop>
            <stop stop-color="#193C6D" offset="100%"></stop>
        </linearGradient>
    </defs>
    <g id="页面-1" stroke="none" stroke-width="1" fill="none" fill-rule="evenodd">
        <g id="PCS">
            <rect id="矩形" fill="#D8D8D8" opacity="0" x="0" y="0" width="190" height="190"></rect>
            <g id="编组-14" transform="translate(51.000000, 14.000000)">
                <g id="编组-14备份-5">
                    <g id="编组-24备份-2" transform="translate(10.028169, 0.000000)">
                        <polygon id="路径-344备份" fill="url(#linearGradient-1)" points="28.2241437 152.969231 0.00166356805 137.994708 0 46.0050201 28.2241437 60.7578022"></polygon>
                        <polygon id="路径-345备份" fill="url(#linearGradient-2)" points="28.2241437 152.969231 77.7183099 107.00735 77.7183099 15.0461538 28.2241437 60.7578022"></polygon>
                        <polygon id="路径-345备份" fill="url(#linearGradient-3)" opacity="0.678873698" points="28.2241437 99.4871254 77.7183099 53.7182467 77.7183099 35.1367205 28.2241437 80.9055993"></polygon>
                        <polygon id="路径-345备份-2" fill="#1743B4" opacity="0.29859561" points="35.0985915 139.581174 48.749608 127.147583 48.749608 99.4871254 35.0985915 111.920716"></polygon>
                        <polygon id="路径-345备份-3" fill="#1743B4" opacity="0.29859561" points="62.6760563 115.353846 73.9577465 104.855408 73.9577465 81.5 62.6760563 91.9984378"></polygon>
                        <polygon id="路径-345备份" fill="url(#linearGradient-4)" opacity="0.678873698" points="28.2241437 80.9055993 77.7183099 35.1367205 77.7183099 31.3751821 28.2241437 77.1440608"></polygon>
                        <g id="矩形">
                            <use fill="black" fill-opacity="1" filter="url(#filter-7)" xlink:href="#path-6"></use>
                            <use fill="url(#linearGradient-5)" fill-rule="evenodd" xlink:href="#path-6"></use>
                        </g>
                        <polygon id="路径-344备份-3" fill="url(#linearGradient-8)" points="0 46.0050201 28.2241437 60.7578022 77.7183099 15.0461538 49.5563704 0.285716263"></polygon>
                        <polygon id="路径-5" fill="#407EA6" points="64.8909878 51.3931284 64.8909878 61.0631648 72.4121145 53.6981835 72.4121145 43.5093187"></polygon>
                        <polygon id="路径-5备份" fill="#407EA6" points="60.1690141 79.3530406 60.1690141 86.5153846 61.4225352 84.4723745 61.4225352 76.791202"></polygon>
                        <polygon id="路径-5" fill="#A6DCFF" points="66.2306579 52.089563 66.2306579 57.7390644 71.1250825 52.5863873 71.1250825 46.7682166"></polygon>
                        <polygon id="路径-348" fill="url(#linearGradient-9)" opacity="0.702218192" points="71.1250825 52.5863873 66.2395329 57.7298312 66.9694274 63.2010705 76.3051913 53.9262517"></polygon>
                    </g>
                    <polygon id="路径-173" fill="url(#linearGradient-10)" opacity="0.673177083" points="10.0298326 137.994708 38.1485407 152.815103 28.9237167 161.817785 0.542906855 147.324777"></polygon>
                </g>
                <path d="M84.5,50.2 C84.7761424,50.2 85,50.6029437 85,51.1 C85,51.5970563 84.7761424,52 84.5,52 C84.2238576,52 84,51.5970563 84,51.1 C84,50.6029437 84.2238576,50.2 84.5,50.2 Z M84.5,46.6 C84.7761424,46.6 85,47.0029437 85,47.5 C85,47.9970563 84.7761424,48.4 84.5,48.4 C84.2238576,48.4 84,47.9970563 84,47.5 C84,47.0029437 84.2238576,46.6 84.5,46.6 Z M84.5,43 C84.7761424,43 85,43.4029437 85,43.9 C85,44.3970563 84.7761424,44.8 84.5,44.8 C84.2238576,44.8 84,44.3970563 84,43.9 C84,43.4029437 84.2238576,43 84.5,43 Z" id="形状结合" fill="#A7DBFF"></path>
                <ellipse id="椭圆形" fill="#ABD7FF" cx="71.5" cy="58" rx="1.5" ry="3"></ellipse>
            </g>
        </g>
    </g>
</svg>