<?xml version="1.0" encoding="UTF-8"?>
<svg width="190px" height="190px" viewBox="0 0 190 190" version="1.1" xmlns="http://www.w3.org/2000/svg" xmlns:xlink="http://www.w3.org/1999/xlink">
    <title>柴油机</title>
    <defs>
        <linearGradient x1="37.4287874%" y1="52.348505%" x2="58.9782395%" y2="33.1074219%" id="linearGradient-1">
            <stop stop-color="#193C6D" stop-opacity="0" offset="0%"></stop>
            <stop stop-color="#193C6D" offset="100%"></stop>
        </linearGradient>
        <linearGradient x1="57.5860273%" y1="39.6109164%" x2="36.1824913%" y2="61.6437768%" id="linearGradient-2">
            <stop stop-color="#1099C0" offset="0%"></stop>
            <stop stop-color="#0763BB" offset="100%"></stop>
        </linearGradient>
        <linearGradient x1="50%" y1="0%" x2="50%" y2="92.863404%" id="linearGradient-3">
            <stop stop-color="#18F6FF" offset="0%"></stop>
            <stop stop-color="#0644FC" offset="100%"></stop>
        </linearGradient>
        <linearGradient x1="55.6287356%" y1="27.8488709%" x2="46.9358992%" y2="103.432115%" id="linearGradient-4">
            <stop stop-color="#5ED9F5" offset="0%"></stop>
            <stop stop-color="#134AFC" offset="100%"></stop>
        </linearGradient>
        <linearGradient x1="77.4507779%" y1="42.8303657%" x2="0%" y2="58.0355135%" id="linearGradient-5">
            <stop stop-color="#74EFFF" offset="0%"></stop>
            <stop stop-color="#53D9FF" offset="100%"></stop>
        </linearGradient>
        <radialGradient cx="50%" cy="50%" fx="50%" fy="50%" r="71.7529297%" gradientTransform="translate(0.500000,0.500000),scale(0.746410,1.000000),rotate(90.000000),translate(-0.500000,-0.500000)" id="radialGradient-6">
            <stop stop-color="#2976DA" offset="0%"></stop>
            <stop stop-color="#073775" offset="100%"></stop>
        </radialGradient>
        <linearGradient x1="50%" y1="0%" x2="50%" y2="100%" id="linearGradient-7">
            <stop stop-color="#87CBFF" offset="0%"></stop>
            <stop stop-color="#375DBE" offset="100%"></stop>
        </linearGradient>
        <linearGradient x1="53.4312264%" y1="13.7633016%" x2="50.5739289%" y2="88.8372768%" id="linearGradient-8">
            <stop stop-color="#6FE4FF" offset="0%"></stop>
            <stop stop-color="#5F96F3" offset="100%"></stop>
        </linearGradient>
        <linearGradient x1="28.8645691%" y1="42.8992211%" x2="50%" y2="79.1714927%" id="linearGradient-9">
            <stop stop-color="#95F1FF" offset="0%"></stop>
            <stop stop-color="#73EDFF" offset="100%"></stop>
        </linearGradient>
        <linearGradient x1="57.0568798%" y1="39.6109164%" x2="37.1463026%" y2="61.6437768%" id="linearGradient-10">
            <stop stop-color="#1099C0" offset="0%"></stop>
            <stop stop-color="#0763BB" offset="100%"></stop>
        </linearGradient>
        <linearGradient x1="50%" y1="0%" x2="50%" y2="100%" id="linearGradient-11">
            <stop stop-color="#73BBFF" offset="0%"></stop>
            <stop stop-color="#4693DC" offset="100%"></stop>
        </linearGradient>
        <linearGradient x1="50%" y1="31.5967753%" x2="50%" y2="100%" id="linearGradient-12">
            <stop stop-color="#2E5FF1" offset="0%"></stop>
            <stop stop-color="#0C2879" offset="100%"></stop>
        </linearGradient>
        <linearGradient x1="70.1316952%" y1="35.745615%" x2="33.3654541%" y2="66.007735%" id="linearGradient-13">
            <stop stop-color="#2445A3" offset="0%"></stop>
            <stop stop-color="#4571F3" offset="100%"></stop>
        </linearGradient>
        <linearGradient x1="50%" y1="26.1042811%" x2="50%" y2="106.161187%" id="linearGradient-14">
            <stop stop-color="#90EAFF" offset="0%"></stop>
            <stop stop-color="#134AFC" offset="100%"></stop>
        </linearGradient>
        <linearGradient x1="50%" y1="0%" x2="50%" y2="92.863404%" id="linearGradient-15">
            <stop stop-color="#18F6FF" offset="0%"></stop>
            <stop stop-color="#0644FC" offset="100%"></stop>
        </linearGradient>
        <linearGradient x1="50%" y1="0%" x2="50%" y2="92.863404%" id="linearGradient-16">
            <stop stop-color="#18F6FF" offset="0%"></stop>
            <stop stop-color="#0644FC" offset="100%"></stop>
        </linearGradient>
        <linearGradient x1="50%" y1="0%" x2="50%" y2="141.330788%" id="linearGradient-17">
            <stop stop-color="#18F6FF" offset="0%"></stop>
            <stop stop-color="#0644FC" offset="100%"></stop>
        </linearGradient>
        <linearGradient x1="77.4507779%" y1="46.1006384%" x2="0%" y2="54.3702888%" id="linearGradient-18">
            <stop stop-color="#74EFFF" offset="0%"></stop>
            <stop stop-color="#53D9FF" offset="100%"></stop>
        </linearGradient>
        <linearGradient x1="50%" y1="10.5230611%" x2="81.7842645%" y2="233.677156%" id="linearGradient-19">
            <stop stop-color="#18F6FF" offset="0%"></stop>
            <stop stop-color="#0644FC" offset="100%"></stop>
        </linearGradient>
        <linearGradient x1="50%" y1="0%" x2="50%" y2="92.863404%" id="linearGradient-20">
            <stop stop-color="#18F6FF" offset="0%"></stop>
            <stop stop-color="#0644FC" offset="100%"></stop>
        </linearGradient>
        <linearGradient x1="50%" y1="30.7103983%" x2="27.0114301%" y2="87.5091345%" id="linearGradient-21">
            <stop stop-color="#18F6FF" offset="0%"></stop>
            <stop stop-color="#0644FC" offset="100%"></stop>
        </linearGradient>
        <linearGradient x1="50%" y1="31.5967753%" x2="50%" y2="100%" id="linearGradient-22">
            <stop stop-color="#2E5FF1" offset="0%"></stop>
            <stop stop-color="#0C2879" offset="100%"></stop>
        </linearGradient>
        <linearGradient x1="56.8993669%" y1="18.6240218%" x2="44.299147%" y2="85.2353569%" id="linearGradient-23">
            <stop stop-color="#2445A3" offset="0%"></stop>
            <stop stop-color="#4571F3" offset="100%"></stop>
        </linearGradient>
        <linearGradient x1="80.75301%" y1="37.5845079%" x2="6.1876295%" y2="71.3155827%" id="linearGradient-24">
            <stop stop-color="#18F6FF" offset="0%"></stop>
            <stop stop-color="#0644FC" offset="100%"></stop>
        </linearGradient>
        <linearGradient x1="71.9402193%" y1="29.6645719%" x2="29.517156%" y2="67.9911567%" id="linearGradient-25">
            <stop stop-color="#0FD2DA" offset="0%"></stop>
            <stop stop-color="#0644FC" offset="100%"></stop>
        </linearGradient>
        <linearGradient x1="80.75301%" y1="27.7349706%" x2="27.9983267%" y2="77.3953108%" id="linearGradient-26">
            <stop stop-color="#18F6FF" offset="0%"></stop>
            <stop stop-color="#0644FC" offset="100%"></stop>
        </linearGradient>
        <linearGradient x1="80.75301%" y1="42.614574%" x2="-4.90666371%" y2="59.4822599%" id="linearGradient-27">
            <stop stop-color="#18F6FF" offset="0%"></stop>
            <stop stop-color="#0644FC" offset="100%"></stop>
        </linearGradient>
        <linearGradient x1="62.4104732%" y1="9.53216285%" x2="19.9785377%" y2="84.7106467%" id="linearGradient-28">
            <stop stop-color="#18F6FF" offset="0%"></stop>
            <stop stop-color="#0644FC" offset="100%"></stop>
        </linearGradient>
        <linearGradient x1="35.8279649%" y1="14.8435654%" x2="86.4132521%" y2="73.5534642%" id="linearGradient-29">
            <stop stop-color="#A7D7FF" offset="0%"></stop>
            <stop stop-color="#2C91E6" offset="100%"></stop>
        </linearGradient>
        <linearGradient x1="50%" y1="62.6624738%" x2="21.6632785%" y2="50%" id="linearGradient-30">
            <stop stop-color="#77BBF5" offset="0%"></stop>
            <stop stop-color="#3797E8" offset="100%"></stop>
        </linearGradient>
        <linearGradient x1="68.0252411%" y1="18.9273405%" x2="41.5893632%" y2="71.9694665%" id="linearGradient-31">
            <stop stop-color="#8DB7FF" offset="0%"></stop>
            <stop stop-color="#0A3F9A" offset="100%"></stop>
        </linearGradient>
        <radialGradient cx="50%" cy="0%" fx="50%" fy="0%" r="100%" gradientTransform="translate(0.500000,0.000000),scale(0.426840,1.000000),rotate(90.000000),translate(-0.500000,-0.000000)" id="radialGradient-32">
            <stop stop-color="#96EFFF" offset="0%"></stop>
            <stop stop-color="#90B6FA" offset="100%"></stop>
        </radialGradient>
        <linearGradient x1="50%" y1="0%" x2="50%" y2="100%" id="linearGradient-33">
            <stop stop-color="#13A1C3" offset="0%"></stop>
            <stop stop-color="#082C8E" offset="100%"></stop>
        </linearGradient>
        <linearGradient x1="50%" y1="28.6039004%" x2="0%" y2="97.0425517%" id="linearGradient-34">
            <stop stop-color="#2E5FF1" offset="0%"></stop>
            <stop stop-color="#0C2879" offset="100%"></stop>
        </linearGradient>
        <radialGradient cx="50%" cy="50%" fx="50%" fy="50%" r="71.7529297%" gradientTransform="translate(0.500000,0.500000),scale(0.995213,1.000000),rotate(90.000000),translate(-0.500000,-0.500000)" id="radialGradient-35">
            <stop stop-color="#2976DA" offset="0%"></stop>
            <stop stop-color="#073775" offset="100%"></stop>
        </radialGradient>
        <linearGradient x1="7.04467062%" y1="11.2214698%" x2="96.5803936%" y2="93.3351465%" id="linearGradient-36">
            <stop stop-color="#EFF8FF" stop-opacity="0.531659747" offset="0%"></stop>
            <stop stop-color="#EAF6FF" offset="23.1639096%"></stop>
            <stop stop-color="#E5F3FF" offset="49.9262311%"></stop>
            <stop stop-color="#DBEFFF" stop-opacity="0.534036276" offset="100%"></stop>
        </linearGradient>
    </defs>
    <g id="页面-1" stroke="none" stroke-width="1" fill="none" fill-rule="evenodd">
        <g id="柴油机">
            <rect id="矩形" fill="#D8D8D8" opacity="0" x="0" y="0" width="190" height="190"></rect>
            <g id="编组-11" transform="translate(7.000000, 4.000000)">
                <polygon id="路径-2" fill="url(#linearGradient-1)" opacity="0.407784598" points="20.879642 96.7559849 0 113.470824 128.287722 183 160 153.467805 45.1787214 90"></polygon>
                <g id="编组-29" transform="translate(15.000000, 0.000000)">
                    <polygon id="路径-413" fill="url(#linearGradient-2)" points="78.467507 122.519141 82.8357213 122.519141 88.3060298 114.730523 99.935219 101.183887 101.323615 85.5519941 97.8659222 74.6907087 83.0671498 82.5983111 76.1806769 93.8435393 76.1806769 111.125577"></polygon>
                    <polygon id="路径-386" fill="url(#linearGradient-3)" points="3.45572126 95.0560968 15.1828669 101.312543 15.3240299 43.9300747 3.45572126 37.3438361"></polygon>
                    <polygon id="路径-387" fill="url(#linearGradient-4)" points="15.1828669 101.312543 56.4528641 64.2740952 56.3370136 5.13385739 15.2585784 43.9338984"></polygon>
                    <polygon id="路径-388" fill="url(#linearGradient-5)" points="15.3240299 43.9300747 3.50137416 37.3659348 45.8791554 0 56.3826666 5.13003371"></polygon>
                    <ellipse id="椭圆形" fill="url(#radialGradient-6)" opacity="0.361607143" cx="7.39000698" cy="36.2271519" rx="1" ry="1"></ellipse>
                    <ellipse id="椭圆形备份-30" fill="url(#radialGradient-6)" opacity="0.361607143" cx="46.270007" cy="2.6003297" rx="1" ry="1"></ellipse>
                    <ellipse id="椭圆形备份-29" fill="url(#radialGradient-6)" opacity="0.361607143" cx="15.7214355" cy="40.8335658" rx="1" ry="1"></ellipse>
                    <ellipse id="椭圆形备份-31" fill="url(#radialGradient-6)" opacity="0.361607143" cx="52.750007" cy="5.82481949" rx="1" ry="1"></ellipse>
                    <polygon id="路径-389" fill="url(#linearGradient-7)" points="19.135911 40.3054477 19.135911 92.3813178 22.2629088 94.8131805 22.2629088 42.8974552"></polygon>
                    <polygon id="路径-390" fill="url(#linearGradient-8)" points="22.2629088 94.8131805 52.8386007 67.5593141 52.8386007 14.2396222 22.2629088 42.8974552"></polygon>
                    <polygon id="路径-391" fill="url(#linearGradient-9)" points="22.2629088 42.8974552 52.8386007 14.2396222 48.9278195 12.1010586 19.135911 40.3054477"></polygon>
                    <path d="M91.3965113,96.1467463 C92.1605099,91.5187511 95.0133753,88.6283117 99.9551074,87.4754279 C104.89684,86.3225442 108.155541,88.1590715 109.731211,92.9850099 L113.184053,115.578931 C113.424023,122.288589 112.273076,126.473638 109.731211,128.134078 C109.53617,128.261486 109.327023,128.385953 109.103768,128.507479 C104.516179,131.004691 98.6137599,130.696397 91.3965113,127.582598 L91.3965113,96.1467463 Z" id="路径-402" fill="url(#linearGradient-10)"></path>
                    <ellipse id="椭圆形" fill="#4567AB" transform="translate(37.920498, 54.669902) rotate(11.000000) translate(-37.920498, -54.669902) " cx="37.920498" cy="54.6699019" rx="10.875261" ry="19.1199685"></ellipse>
                    <path d="M106.35793,132.43414 C114.480244,132.959978 119.555235,123.346331 119.565337,112.15054 C119.575406,100.95475 114.85369,91.6059841 106.394452,91.8905973 C98.5991279,91.8975882 93.4009456,102.240257 93.3439332,111.884522 C93.2869208,121.528787 98.5626065,132.44113 106.35793,132.43414 Z" id="椭圆形" fill="#0D88FD" transform="translate(106.454406, 112.169505) rotate(11.000000) translate(-106.454406, -112.169505) "></path>
                    <path d="M107.962221,132.610085 C114.35183,132.604352 119.539808,123.523726 119.549908,112.327936 C119.559978,101.132146 114.388352,92.0608103 107.998742,92.0665378 C101.609132,92.0722707 95.1958987,101.056855 95.1858017,112.252645 C95.1757285,123.448435 101.572611,132.615813 107.962221,132.610085 Z" id="椭圆形" fill="url(#linearGradient-11)" transform="translate(107.367855, 112.338312) rotate(11.000000) translate(-107.367855, -112.338312) "></path>
                    <path d="M45.4313585,42.7073751 C43.9632634,43.8665061 42.6096477,45.3935671 41.4769163,47.1685188 C41.3602098,47.3514022 41.1888,47.4484359 41.0538302,47.4080245 C40.5691682,47.2752498 40.0439043,47.2576173 39.4971909,47.3557697 C39.9448123,45.5010885 40.6689018,43.661728 41.6215107,41.9594892 C41.7077081,41.8109534 41.7424631,41.6375734 41.7135258,41.5004605 C41.6845885,41.3633476 41.5960217,41.2817529 41.4790425,41.2843718 C39.7100037,41.3358821 37.810909,42.0886789 36.0033076,43.455005 L35.9860758,43.5462826 C35.5927529,45.6297294 35.5803975,47.5538031 35.8879619,49.2239598 C35.9206794,49.4020229 35.8493919,49.6303547 35.7120237,49.7874853 C35.3373426,50.2233929 34.9905093,50.7032628 34.6792586,51.2163938 C34.5343269,51.4562084 34.2999168,51.5596167 34.1738336,51.4191466 C33.3682795,50.5366769 32.7622994,49.3826486 32.3893402,48.0207579 C32.3139182,47.7439073 32.001272,47.7888299 31.8084896,48.0896505 C30.4173466,50.2519672 29.4076161,52.7088438 28.897597,55.1724352 L28.9432995,55.2107912 C30.03611,56.0701481 31.3654592,56.4862242 32.8248514,56.4256872 C32.9600726,56.4200271 33.0508008,56.5385421 33.0480282,56.7172151 C33.0467729,57.2737538 33.101709,57.7965918 33.2073144,58.2764872 C33.229909,58.3890465 33.2107898,58.5262994 33.154519,58.6554938 C33.0982482,58.7846882 33.0098732,58.8942357 32.9104826,58.9579954 C31.6628595,59.7541423 30.3894889,60.2619287 29.1586831,60.4541136 C29.0384132,60.4704762 28.9114142,60.5697053 28.8224865,60.7167968 C28.7335588,60.8638883 28.6952005,61.0381697 28.7209428,61.1781612 C29.105633,63.2842952 29.9943484,64.9863734 31.2857851,66.0903769 L31.3513595,66.0399672 C32.8195736,64.8802104 34.1732545,63.3526855 35.3060751,61.5773746 C35.4225867,61.3939844 35.5941744,61.2963256 35.7294348,61.3364201 C36.2138915,61.4709709 36.7394148,61.4895408 37.2865894,61.391444 C36.8378132,63.2463596 36.113049,65.0856822 35.1601448,66.7879817 C35.0744714,66.9363594 35.040084,67.109209 35.0690472,67.2458874 C35.0980104,67.3825658 35.1862797,67.4639874 35.3028866,67.4616377 C37.0724752,67.4110104 38.9724531,66.6580664 40.7807462,65.2907599 L40.797978,65.1994823 C41.1787096,63.1878203 41.2118387,61.2447715 40.894756,59.5233825 C40.8619499,59.3448975 40.933332,59.1160303 41.0709678,58.9584081 C41.4442006,58.52107 41.7911275,58.0416123 42.102397,57.5310771 C42.248391,57.2911339 42.4828012,57.1877256 42.6099468,57.3280671 C43.4148772,58.2113299 44.0207896,59.3652293 44.3944401,60.7264558 C44.4701357,61.0018575 44.781446,60.9585124 44.9745019,60.656243 C46.3638193,58.4922035 47.3732495,56.0357859 47.885668,53.5720095 L47.8365049,53.5354881 C46.7506241,52.6812401 45.4312493,52.2641816 43.982575,52.3172486 C43.8327569,52.3225171 43.7321674,52.1912573 43.7343646,51.9933573 C43.7337729,51.4565234 43.680386,50.9451926 43.5754036,50.4708551 C43.552818,50.3580854 43.5719532,50.2206334 43.6282552,50.0912119 C43.6845571,49.9617905 43.7729906,49.8519739 43.8725089,49.7878981 C45.1201385,48.991883 46.3934885,48.4841047 47.6243084,48.2917799 C47.7445761,48.2757121 47.8716849,48.1764235 47.9605188,48.0291558 C48.0493527,47.8818881 48.0873358,47.7074894 48.0609863,47.5678609 C47.675694,45.4618189 46.7861156,43.7602709 45.4937457,42.6573512 L45.4313585,42.7073751 Z M39.6029288,58.8342104 C34.9388423,62.3443241 31.8482717,57.166668 35.3358578,51.4382287 C35.6691534,50.893534 36.0775046,50.4216605 36.5235696,50.0636117 C41.2357776,46.2929964 44.4478269,51.3535685 41.1270079,57.0722247 C40.7132498,57.7855725 40.185507,58.3956953 39.6029288,58.8342104 Z" id="形状" fill-opacity="0.355359484" fill="#9FC4FF" fill-rule="nonzero" transform="translate(38.391138, 54.372999) rotate(-12.000000) translate(-38.391138, -54.372999) "></path>
                    <ellipse id="椭圆形" stroke="#FFFFFF" opacity="0.459100632" transform="translate(37.920498, 54.669902) rotate(11.000000) translate(-37.920498, -54.669902) " cx="37.920498" cy="54.6699019" rx="8.75554176" ry="16.0859967"></ellipse>
                    <line x1="41.6414355" y1="36.4574726" x2="35.1614355" y2="72.8481431" id="直线-10" stroke="#FFFFFF" opacity="0.329985119" stroke-linecap="square"></line>
                    <line x1="27.5242927" y1="53.2708836" x2="50.2042927" y2="60.641146" id="直线-12" stroke="#FFFFFF" opacity="0.329985119" stroke-linecap="square"></line>
                    <line x1="48.8157213" y1="46.821904" x2="29.8385784" y2="65.24756" id="直线-13" stroke="#FFFFFF" opacity="0.329985119" stroke-linecap="square"></line>
                    <ellipse id="椭圆形" stroke="#FFFFFF" opacity="0.459100632" transform="translate(38.008815, 54.217724) rotate(11.000000) translate(-38.008815, -54.217724) " cx="38.0088154" cy="54.2177238" rx="6.44165702" ry="12.4002195"></ellipse>
                    <ellipse id="椭圆形" stroke="#FFFFFF" opacity="0.459100632" transform="translate(38.008815, 54.217724) rotate(11.000000) translate(-38.008815, -54.217724) " cx="38.0088154" cy="54.2177238" rx="3.66499435" ry="7.33227611"></ellipse>
                    <ellipse id="椭圆形" stroke="#FFFFFF" opacity="0.459100632" transform="translate(38.008815, 54.217724) scale(-1, 1) rotate(-11.000000) translate(-38.008815, -54.217724) " cx="38.0088154" cy="54.2177238" rx="1" ry="2.26433271"></ellipse>
                    <polygon id="路径-392" fill="url(#linearGradient-12)" points="5.46151088 96.118631 11.238185 99.1550855 11.238185 102.758795 5.46151088 99.7686743"></polygon>
                    <polygon id="路径-393" fill="url(#linearGradient-13)" points="11.2577344 102.755421 5.62886719 107.353288 3.38132729e-13 103.902076 5.48106027 99.7653004"></polygon>
                    <polygon id="路径-394" fill="#24429B" points="6.7934054e-13 103.902076 1.03028697e-13 104.666813 5.63649484 108.195679 11.265362 103.555527 11.265362 102.751653 5.63649484 107.34952"></polygon>
                    <polygon id="路径-392" fill="url(#linearGradient-12)" points="128.102946 145.629484 133.879621 148.665939 133.879621 152.269648 128.102946 149.279527"></polygon>
                    <polygon id="路径-393" fill="url(#linearGradient-13)" points="133.89917 152.266274 128.270303 156.864141 122.641436 153.412929 128.122496 149.276154"></polygon>
                    <polygon id="路径-394" fill="#24429B" points="122.641436 153.412929 122.641436 154.177666 128.27793 157.706532 133.906798 153.06638 133.906798 152.262507 128.27793 156.860374"></polygon>
                    <polygon id="路径-392" fill="url(#linearGradient-12)" points="68.394375 116.148435 74.1710491 119.184889 74.1710491 122.788598 68.394375 119.798478"></polygon>
                    <polygon id="路径-393" fill="url(#linearGradient-13)" points="74.1905985 122.785225 68.5617313 127.383092 62.9328641 123.93188 68.4139244 119.795104"></polygon>
                    <polygon id="路径-394" fill="#24429B" points="62.9328641 123.93188 62.9328641 124.696616 68.569359 128.225483 74.1982261 123.58533 74.1982261 122.781457 68.569359 127.379324"></polygon>
                    <polygon id="路径-395" fill="url(#linearGradient-14)" points="145.055367 155.047666 157.490273 143.233559 161.692319 124.489773 161.692319 84.9390802 139.475176 101.304479 139.475176 133.730136"></polygon>
                    <polygon id="路径-396" fill="url(#linearGradient-15)" points="145.029462 155.047666 101.830255 131.729414 96.8923191 108.522885 139.478943 133.691636"></polygon>
                    <polygon id="路径-397" fill="url(#linearGradient-16)" points="96.8923191 108.619424 106.795069 97.928133 139.475176 116.170648 139.475176 133.858162"></polygon>
                    <polygon id="路径-398" fill="url(#linearGradient-17)" points="139.475176 133.858162 139.475176 101.613264 115.406605 88.4663881 115.406605 119.610893"></polygon>
                    <polygon id="路径-399" fill="url(#linearGradient-18)" points="115.406605 88.4663881 139.497092 101.613264 161.692319 84.9390802 137.245844 73.2566025"></polygon>
                    <polygon id="路径-400" fill="url(#linearGradient-19)" points="115.406605 102.81615 106.795069 97.928133 115.406605 95.1642846"></polygon>
                    <polygon id="路径-401" fill="url(#linearGradient-20)" points="80.9842927 90.8131577 80.9842927 120.800395 91.3965113 127.586197 91.3965113 96.1830017"></polygon>
                    <path d="M80.9842927,90.8131577 C83.8551521,84.3293901 87.5192871,80.8628836 91.9766978,80.4136383 C91.9586175,80.3782505 96.7380633,82.9293364 106.315035,88.0668961 C102.075083,87.4185714 99.0604391,87.6632729 97.2711026,88.8010005 C95.481766,89.9387281 93.5235689,92.38731 91.3965113,96.1467463 L80.9842927,90.8131577 Z" id="路径-403" fill="url(#linearGradient-21)"></path>
                    <polygon id="路径-404" fill="url(#linearGradient-22)" points="85.150007 82.5983111 85.150007 88.1278095 90.2572559 91.0695694 90.2572559 85.5519941"></polygon>
                    <polygon id="路径-405" fill="url(#linearGradient-23)" points="90.2572559 91.0695694 96.1401521 85.8932016 96.1401521 81.0204793 90.2572559 85.9309886"></polygon>
                    <polygon id="路径-412" fill="url(#linearGradient-24)" points="27.3543373 66.9290811 37.8566784 55.3589273 84.289834 80.9939385 76.1806769 93.8435393"></polygon>
                    <polygon id="路径-410" fill="url(#linearGradient-25)" points="78.467507 122.519141 31.3700955 94.7648221 27.3543373 82.9998407 76.1806769 111.125577"></polygon>
                    <polygon id="路径-411" fill="url(#linearGradient-26)" points="27.3543373 82.9998407 27.3543373 66.9290811 76.1806769 93.8435393 76.1806769 111.125577"></polygon>
                    <polygon id="路径-409" fill="url(#linearGradient-27)" points="37.8566784 55.3589273 50.6819941 50.5932493 96.1401521 74.6012333 84.289834 80.977969"></polygon>
                    <polygon id="路径-416" fill="url(#linearGradient-28)" points="78.467507 122.519141 31.2488463 95.2254635 27.3543373 82.9998407 27.3543373 67.1295428 37.920498 55.3589273 50.5920924 50.5932493 58.2256431 50.5932493 101.323615 78.0784358 88.7521457 78.5115613 79.8063574 88.1278095 76.8529311 93.8435393 76.8529311 111.125577"></polygon>
                    <line x1="41.6414355" y1="60.4108253" x2="72.6528641" y2="78.3758399" id="直线-11" stroke="#FFFFFF" stroke-width="7" opacity="0.237211682" stroke-linecap="round"></line>
                    <line x1="36.0871498" y1="71.9268603" x2="67.0985784" y2="89.8918749" id="直线-11备份" stroke="#FFFFFF" stroke-width="7" opacity="0.259416853" stroke-linecap="round"></line>
                    <line x1="35.1614355" y1="85.7461023" x2="66.1728641" y2="103.711117" id="直线-11备份-2" stroke="#FFFFFF" stroke-width="7" opacity="0.128789993" stroke-linecap="round"></line>
                    <path d="M90.2572559,89.0273288 C94.7131028,85.1388608 98.1651445,82.0541088 100.613381,79.7730728 C102.260937,77.1064564 100.913958,71.7808409 97.8944831,69.7124707 C95.0100072,67.7365759 92.5724456,66.894325 90.5817983,67.1857177 L78.467507,75.0546334 L90.2572559,89.0273288 Z" id="路径-406" fill="url(#linearGradient-29)"></path>
                    <path d="M80.6198617,89.3102183 C85.0310642,91.7737265 90.2524802,90.520463 92.2822207,86.5109759 C94.3119613,82.5014888 92.3814049,77.2540894 87.9702025,74.7905812 C83.559,72.327073 78.337584,73.5803365 76.3078434,77.5898235 C74.2781029,81.5993106 76.2086592,86.8467101 80.6198617,89.3102183 Z" id="椭圆形" fill="#3297ED"></path>
                    <path d="M80.5715492,89.3434814 C84.4214146,91.5565629 88.1655099,89.9485694 89.9697781,86.2799368 C91.7740463,82.6113042 90.1433732,78.0897383 86.2935078,75.8766568 C82.4436424,73.6635753 77.8324504,74.5970272 76.0281822,78.2656598 C74.2239141,81.9342924 76.7216838,87.1303999 80.5715492,89.3434814 Z" id="椭圆形" fill="#6DBCFF" opacity="0.571033296"></path>
                    <path d="M84.289834,70.6632454 C85.9227837,70.5901431 87.3692876,70.8333593 88.6293457,71.3928942 C89.8894038,71.952429 91.1203638,72.8981534 92.3222256,74.2300673 L92.3222256,63.5602968 L84.289834,63.5602968 L84.289834,70.6632454 Z" id="路径-407" fill="url(#linearGradient-30)"></path>
                    <path d="M75.1619353,68.3623565 L51.5752054,54.045136 C50.9146166,49.8516798 51.7850351,46.4920866 54.1864609,43.9663562 C56.5878868,41.4406258 59.5328756,40.1660416 63.0214275,40.1426037 L84.9664609,53.2779252 L75.1619353,68.3623565 Z" id="路径-414" fill="url(#linearGradient-31)"></path>
                    <ellipse id="椭圆形" fill="#50ADF1" transform="translate(80.151292, 60.899966) rotate(32.000000) translate(-80.151292, -60.899966) " cx="80.1512918" cy="60.8999661" rx="3.46681752" ry="8.9946436"></ellipse>
                    <path d="M80.9842038,63.5602968 L95.425978,63.5602968 C95.425978,59.4507412 93.017299,57.3959634 88.1999411,57.3959634 C83.3825832,57.3959634 80.9773374,59.4507412 80.9842038,63.5602968 Z" id="路径-408" fill="url(#radialGradient-32)"></path>
                    <path d="M89.3148396,101.159671 L90.2719461,101.658024 L90.2719461,106.014324 L89.3148396,105.521671 L89.3148396,101.159671 Z M87.9268396,100.436671 L88.8528396,100.918671 L88.8528396,105.284671 L87.9268396,104.808671 L87.9268396,100.436671 Z M86.5378396,99.7126705 L87.4638396,100.194671 L87.4638396,104.570671 L86.5378396,104.094671 L86.5378396,99.7126705 Z M85.1498396,98.9896705 L86.0748396,99.4716705 L86.0748396,103.856671 L85.1498396,103.380671 L85.1498396,98.9896705 Z M83.7608396,98.2666705 L84.6868396,98.7486705 L84.6868396,103.142671 L83.7608396,102.666671 L83.7608396,98.2666705 Z M82.3448396,97.5286705 L83.2978396,98.0246705 L83.2978396,102.428671 L82.3448396,101.938727 L82.3448396,97.5286705 Z" id="形状结合" fill="#1B99DA"></path>
                    <path d="M89.3148396,108.069291 L90.2719461,108.567645 L90.2719461,112.923945 L89.3148396,112.431291 L89.3148396,108.069291 Z M87.9268396,107.346291 L88.8528396,107.828291 L88.8528396,112.194291 L87.9268396,111.718291 L87.9268396,107.346291 Z M86.5378396,106.622291 L87.4638396,107.104291 L87.4638396,111.480291 L86.5378396,111.004291 L86.5378396,106.622291 Z M85.1498396,105.899291 L86.0748396,106.381291 L86.0748396,110.766291 L85.1498396,110.290291 L85.1498396,105.899291 Z M83.7608396,105.176291 L84.6868396,105.658291 L84.6868396,110.052291 L83.7608396,109.576291 L83.7608396,105.176291 Z M82.3448396,104.438291 L83.2978396,104.934291 L83.2978396,109.338291 L82.3448396,108.848348 L82.3448396,104.438291 Z" id="形状结合" fill="#1C7CD7"></path>
                    <path d="M89.3148396,115.439554 L90.2719461,115.937907 L90.2719461,120.294207 L89.3148396,119.801554 L89.3148396,115.439554 Z M87.9268396,114.716554 L88.8528396,115.198554 L88.8528396,119.564554 L87.9268396,119.088554 L87.9268396,114.716554 Z M86.5378396,113.992554 L87.4638396,114.474554 L87.4638396,118.850554 L86.5378396,118.374554 L86.5378396,113.992554 Z M85.1498396,113.269554 L86.0748396,113.751554 L86.0748396,118.136554 L85.1498396,117.660554 L85.1498396,113.269554 Z M83.7608396,112.546554 L84.6868396,113.028554 L84.6868396,117.422554 L83.7608396,116.946554 L83.7608396,112.546554 Z M82.3448396,111.808554 L83.2978396,112.304554 L83.2978396,116.708554 L82.3448396,116.21861 L82.3448396,111.808554 Z" id="形状结合" fill="#2C5CCC"></path>
                    <path d="M5.46128126,89.5926337 L6.73628126,90.0956337 L6.73687181,92.1111858 L5.46157029,91.6588665 L5.46128126,89.5926337 Z M5.46128126,86.1376337 L6.73628126,86.6416337 L6.73628126,88.9956337 L5.46128126,88.4796337 L5.46128126,86.1376337 Z M5.46128126,82.6826337 L6.73628126,83.1866337 L6.73628126,85.5406337 L5.46128126,85.0246337 L5.46128126,82.6826337 Z M5.46128126,79.2276337 L6.73628126,79.7316337 L6.73628126,82.0866337 L5.46128126,81.5706337 L5.46128126,79.2276337 Z M5.46128126,75.7726337 L6.73628126,76.2766337 L6.73628126,78.6316337 L5.46128126,78.1156337 L5.46128126,75.7726337 Z M5.46128126,72.3186337 L6.73628126,72.8216337 L6.73628126,75.1766337 L5.46128126,74.6606337 L5.46128126,72.3186337 Z M5.46128126,68.8636337 L6.73628126,69.3676337 L6.73628126,71.7216337 L5.46128126,71.2056337 L5.46128126,68.8636337 Z M5.46128126,65.4086337 L6.73628126,65.9126337 L6.73628126,68.2666337 L5.46128126,67.7506337 L5.46128126,65.4086337 Z M5.46128126,61.9536337 L6.73628126,62.4576337 L6.73628126,64.8126337 L5.46128126,64.2966337 L5.46128126,61.9536337 Z M5.46128126,58.4986337 L6.73628126,59.0026337 L6.73628126,61.3576337 L5.46128126,60.8416337 L5.46128126,58.4986337 Z M5.46128126,55.0446337 L6.73628126,55.5476337 L6.73628126,57.9026337 L5.46128126,57.3866337 L5.46128126,55.0446337 Z M5.46128126,51.5896337 L6.73628126,52.0936337 L6.73628126,54.4476337 L5.46128126,53.9316337 L5.46128126,51.5896337 Z M5.46128126,48.1346337 L6.73628126,48.6386337 L6.73628126,50.9926337 L5.46128126,50.4766337 L5.46128126,48.1346337 Z M5.46157029,44.9206337 L6.73687181,45.4534752 L6.73628126,47.5376337 L5.46128126,47.0226337 L5.46157029,44.9206337 Z" id="形状结合" fill="url(#linearGradient-33)" opacity="0.688011533"></path>
                    <path d="M7.77556698,90.5139165 L9.05056698,91.0169165 L9.05115753,93.0324686 L7.775856,92.5801493 L7.77556698,90.5139165 Z M7.77556698,87.0589165 L9.05056698,87.5629165 L9.05056698,89.9169165 L7.77556698,89.4009165 L7.77556698,87.0589165 Z M7.77556698,83.6039165 L9.05056698,84.1079165 L9.05056698,86.4619165 L7.77556698,85.9459165 L7.77556698,83.6039165 Z M7.77556698,80.1489165 L9.05056698,80.6529165 L9.05056698,83.0079165 L7.77556698,82.4919165 L7.77556698,80.1489165 Z M7.77556698,76.6939165 L9.05056698,77.1979165 L9.05056698,79.5529165 L7.77556698,79.0369165 L7.77556698,76.6939165 Z M7.77556698,73.2399165 L9.05056698,73.7429165 L9.05056698,76.0979165 L7.77556698,75.5819165 L7.77556698,73.2399165 Z M7.77556698,69.7849165 L9.05056698,70.2889165 L9.05056698,72.6429165 L7.77556698,72.1269165 L7.77556698,69.7849165 Z M7.77556698,66.3299165 L9.05056698,66.8339165 L9.05056698,69.1879165 L7.77556698,68.6719165 L7.77556698,66.3299165 Z M7.77556698,62.8749165 L9.05056698,63.3789165 L9.05056698,65.7339165 L7.77556698,65.2179165 L7.77556698,62.8749165 Z M7.77556698,59.4199165 L9.05056698,59.9239165 L9.05056698,62.2789165 L7.77556698,61.7629165 L7.77556698,59.4199165 Z M7.77556698,55.9659165 L9.05056698,56.4689165 L9.05056698,58.8239165 L7.77556698,58.3079165 L7.77556698,55.9659165 Z M7.77556698,52.5109165 L9.05056698,53.0149165 L9.05056698,55.3689165 L7.77556698,54.8529165 L7.77556698,52.5109165 Z M7.77556698,49.0559165 L9.05056698,49.5599165 L9.05056698,51.9139165 L7.77556698,51.3979165 L7.77556698,49.0559165 Z M7.775856,45.8419165 L9.05115753,46.374758 L9.05056698,48.4589165 L7.77556698,47.9439165 L7.775856,45.8419165 Z" id="形状结合" fill="url(#linearGradient-33)" opacity="0.688011533"></path>
                    <path d="M10.0898527,91.8958407 L11.3648527,92.3988407 L11.3654432,94.4143928 L10.0901417,93.9620735 L10.0898527,91.8958407 Z M10.0898527,88.4408407 L11.3648527,88.9448407 L11.3648527,91.2988407 L10.0898527,90.7828407 L10.0898527,88.4408407 Z M10.0898527,84.9858407 L11.3648527,85.4898407 L11.3648527,87.8438407 L10.0898527,87.3278407 L10.0898527,84.9858407 Z M10.0898527,81.5308407 L11.3648527,82.0348407 L11.3648527,84.3898407 L10.0898527,83.8738407 L10.0898527,81.5308407 Z M10.0898527,78.0758407 L11.3648527,78.5798407 L11.3648527,80.9348407 L10.0898527,80.4188407 L10.0898527,78.0758407 Z M10.0898527,74.6218407 L11.3648527,75.1248407 L11.3648527,77.4798407 L10.0898527,76.9638407 L10.0898527,74.6218407 Z M10.0898527,71.1668407 L11.3648527,71.6708407 L11.3648527,74.0248407 L10.0898527,73.5088407 L10.0898527,71.1668407 Z M10.0898527,67.7118407 L11.3648527,68.2158407 L11.3648527,70.5698407 L10.0898527,70.0538407 L10.0898527,67.7118407 Z M10.0898527,64.2568407 L11.3648527,64.7608407 L11.3648527,67.1158407 L10.0898527,66.5998407 L10.0898527,64.2568407 Z M10.0898527,60.8018407 L11.3648527,61.3058407 L11.3648527,63.6608407 L10.0898527,63.1448407 L10.0898527,60.8018407 Z M10.0898527,57.3478407 L11.3648527,57.8508407 L11.3648527,60.2058407 L10.0898527,59.6898407 L10.0898527,57.3478407 Z M10.0898527,53.8928407 L11.3648527,54.3968407 L11.3648527,56.7508407 L10.0898527,56.2348407 L10.0898527,53.8928407 Z M10.0898527,50.4378407 L11.3648527,50.9418407 L11.3648527,53.2958407 L10.0898527,52.7798407 L10.0898527,50.4378407 Z M10.0901417,47.2238407 L11.3654432,47.7566822 L11.3648527,49.8408407 L10.0898527,49.3258407 L10.0901417,47.2238407 Z" id="形状结合" fill="url(#linearGradient-33)" opacity="0.688011533"></path>
                    <path d="M12.4041384,93.2777649 L13.6791384,93.7807649 L13.679729,95.796317 L12.4044274,95.3439977 L12.4041384,93.2777649 Z M12.4041384,89.8227649 L13.6791384,90.3267649 L13.6791384,92.6807649 L12.4041384,92.1647649 L12.4041384,89.8227649 Z M12.4041384,86.3677649 L13.6791384,86.8717649 L13.6791384,89.2257649 L12.4041384,88.7097649 L12.4041384,86.3677649 Z M12.4041384,82.9127649 L13.6791384,83.4167649 L13.6791384,85.7717649 L12.4041384,85.2557649 L12.4041384,82.9127649 Z M12.4041384,79.4577649 L13.6791384,79.9617649 L13.6791384,82.3167649 L12.4041384,81.8007649 L12.4041384,79.4577649 Z M12.4041384,76.0037649 L13.6791384,76.5067649 L13.6791384,78.8617649 L12.4041384,78.3457649 L12.4041384,76.0037649 Z M12.4041384,72.5487649 L13.6791384,73.0527649 L13.6791384,75.4067649 L12.4041384,74.8907649 L12.4041384,72.5487649 Z M12.4041384,69.0937649 L13.6791384,69.5977649 L13.6791384,71.9517649 L12.4041384,71.4357649 L12.4041384,69.0937649 Z M12.4041384,65.6387649 L13.6791384,66.1427649 L13.6791384,68.4977649 L12.4041384,67.9817649 L12.4041384,65.6387649 Z M12.4041384,62.1837649 L13.6791384,62.6877649 L13.6791384,65.0427649 L12.4041384,64.5267649 L12.4041384,62.1837649 Z M12.4041384,58.7297649 L13.6791384,59.2327649 L13.6791384,61.5877649 L12.4041384,61.0717649 L12.4041384,58.7297649 Z M12.4041384,55.2747649 L13.6791384,55.7787649 L13.6791384,58.1327649 L12.4041384,57.6167649 L12.4041384,55.2747649 Z M12.4041384,51.8197649 L13.6791384,52.3237649 L13.6791384,54.6777649 L12.4041384,54.1617649 L12.4041384,51.8197649 Z M12.4044274,48.6057649 L13.679729,49.1386064 L13.6791384,51.2227649 L12.4041384,50.7077649 L12.4044274,48.6057649 Z" id="形状结合" fill="url(#linearGradient-33)" opacity="0.688011533"></path>
                    <path d="M20.2727098,89.1319923 L21.5477098,89.6349923 L21.5483004,91.6505444 L20.2729989,91.1982251 L20.2727098,89.1319923 Z M20.2727098,85.6769923 L21.5477098,86.1809923 L21.5477098,88.5349923 L20.2727098,88.0189923 L20.2727098,85.6769923 Z M20.2727098,82.2219923 L21.5477098,82.7259923 L21.5477098,85.0799923 L20.2727098,84.5639923 L20.2727098,82.2219923 Z M20.2727098,78.7669923 L21.5477098,79.2709923 L21.5477098,81.6259923 L20.2727098,81.1099923 L20.2727098,78.7669923 Z M20.2727098,75.3119923 L21.5477098,75.8159923 L21.5477098,78.1709923 L20.2727098,77.6549923 L20.2727098,75.3119923 Z M20.2727098,71.8579923 L21.5477098,72.3609923 L21.5477098,74.7159923 L20.2727098,74.1999923 L20.2727098,71.8579923 Z M20.2727098,68.4029923 L21.5477098,68.9069923 L21.5477098,71.2609923 L20.2727098,70.7449923 L20.2727098,68.4029923 Z M20.2727098,64.9479923 L21.5477098,65.4519923 L21.5477098,67.8059923 L20.2727098,67.2899923 L20.2727098,64.9479923 Z M20.2727098,61.4929923 L21.5477098,61.9969923 L21.5477098,64.3519923 L20.2727098,63.8359923 L20.2727098,61.4929923 Z M20.2727098,58.0379923 L21.5477098,58.5419923 L21.5477098,60.8969923 L20.2727098,60.3809923 L20.2727098,58.0379923 Z M20.2727098,54.5839923 L21.5477098,55.0869923 L21.5477098,57.4419923 L20.2727098,56.9259923 L20.2727098,54.5839923 Z M20.2727098,51.1289923 L21.5477098,51.6329923 L21.5477098,53.9869923 L20.2727098,53.4709923 L20.2727098,51.1289923 Z M20.2727098,47.6739923 L21.5477098,48.1779923 L21.5477098,50.5319923 L20.2727098,50.0159923 L20.2727098,47.6739923 Z M20.2729989,44.4599923 L21.5483004,44.9928338 L21.5477098,47.0769923 L20.2727098,46.5619923 L20.2729989,44.4599923 Z" id="形状结合" fill="url(#linearGradient-33)" opacity="0.361258371"></path>
                    <polygon id="路径-420" fill="url(#linearGradient-34)" opacity="0.505557106" points="59.6928641 58.5682597 65.4366546 62.0550092 65.4366546 64.1395915 59.6928641 60.8544851"></polygon>
                    <polygon id="路径-421" fill="#458ECB" points="120.960891 98.1834201 133.286246 104.898933 133.286246 120.294207 120.960891 112.923945"></polygon>
                    <polygon id="路径-421" fill="#55A2E3" points="122.957854 101.868551 131.289282 106.164731 131.289282 117.069717 122.957854 111.849115"></polygon>
                    <ellipse id="椭圆形" fill="url(#radialGradient-35)" opacity="0.469029018" cx="136.52715" cy="129.046394" rx="1" ry="1"></ellipse>
                    <ellipse id="椭圆形" fill="url(#radialGradient-35)" opacity="0.309570312" cx="136.52715" cy="103.711117" rx="1" ry="1"></ellipse>
                    <ellipse id="椭圆形" fill="url(#radialGradient-35)" opacity="0.143833705" cx="118.475721" cy="94.0376475" rx="1" ry="1"></ellipse>
                    <ellipse id="椭圆形" fill="url(#radialGradient-35)" opacity="0.291062128" cx="118.012864" cy="118.451642" rx="1" ry="1"></ellipse>
                    <ellipse id="椭圆形备份-32" fill="url(#radialGradient-35)" cx="141.155721" cy="150.69654" rx="1" ry="1"></ellipse>
                    <ellipse id="椭圆形备份-32" fill="url(#radialGradient-35)" opacity="0.494559152" cx="137.452864" cy="135.034732" rx="1" ry="1"></ellipse>
                    <ellipse id="椭圆形备份-32" fill="url(#radialGradient-35)" opacity="0.317103795" cx="103.664293" cy="130.428318" rx="1" ry="1"></ellipse>
                    <ellipse id="椭圆形备份-32" fill="url(#radialGradient-35)" opacity="0.220819382" cx="99.9614355" cy="112.463303" rx="1" ry="1"></ellipse>
                    <ellipse id="椭圆形备份-32" fill="url(#radialGradient-35)" opacity="0.228306362" cx="99.9614355" cy="108.317531" rx="1" ry="1"></ellipse>
                    <ellipse id="椭圆形备份-32" fill="url(#radialGradient-35)" opacity="0.228306362" cx="107.36715" cy="100.486627" rx="1" ry="1"></ellipse>
                    <ellipse id="椭圆形备份-32" fill="url(#radialGradient-35)" opacity="0.228306362" cx="111.532864" cy="98.1834201" rx="1" ry="1"></ellipse>
                    <path d="M26.3886968,33.4376623 L30.1405204,29.9608094 L33.3543039,32.2707641 L34.1615918,35.5361898 L37.920498,55.3589273 L76.2530587,77.7398151 C76.7370816,76.8665369 77.1515549,76.246819 77.4964788,75.8806615 C77.8414026,75.514504 78.4524999,75.0477709 79.3297705,74.4804623 L42.5560756,53.5012043 L37.4043039,28.4395457 L29.9420204,23.5383706 L22.7345801,30.5634894 L26.3886968,33.4376623 Z" id="路径-422" fill="url(#linearGradient-36)"></path>
                </g>
            </g>
        </g>
    </g>
</svg>