<?xml version="1.0" encoding="UTF-8"?>
<svg width="16px" height="16px" viewBox="0 0 16 16" version="1.1" xmlns="http://www.w3.org/2000/svg" xmlns:xlink="http://www.w3.org/1999/xlink">
    <title>账号</title>
    <g id="页面-1" stroke="none" stroke-width="1" fill="none" fill-rule="evenodd">
        <g id="登陆页" transform="translate(-976.000000, -447.000000)" fill="#0066FF" fill-rule="nonzero">
            <path d="M984.002319,447 C986.487601,447 988.502319,449.014719 988.502319,451.5 C988.502319,452.734018 988.005605,453.852023 987.201206,454.664984 C989.954109,455.867357 991.899108,458.575525 991.996193,461.748745 L992,461.997925 C992,462.55021 991.552285,462.997925 991,462.997925 C990.487164,462.997925 990.064493,462.611885 990.006728,462.114546 L990,461.997925 C990,458.706406 987.349565,456.03393 984.066485,455.998286 L984.002319,456 C983.980213,456 983.958144,455.999841 983.936113,455.999523 L984,455.997925 C980.761603,455.997925 978.122428,458.5635 978.004138,461.772987 L978,461.997925 C978,462.55021 977.552285,462.997925 977,462.997925 C976.487164,462.997925 976.064493,462.611885 976.006728,462.114546 L976,461.997925 C976,458.716636 977.97549,455.896747 980.802012,454.662716 C979.998625,453.851104 979.502319,452.733511 979.502319,451.5 C979.502319,449.014719 981.517038,447 984.002319,447 Z M984.002319,449 C982.621607,449 981.502319,450.119288 981.502319,451.5 C981.502319,452.880712 982.621607,454 984.002319,454 L983.944025,453.998117 C983.962668,453.997989 983.981327,453.997925 984,453.997925 L984.058746,453.999376 C985.413398,453.969376 986.502319,452.861853 986.502319,451.5 C986.502319,450.119288 985.383031,449 984.002319,449 Z" id="账号"></path>
        </g>
    </g>
</svg>